%TF.GenerationSoftware,KiCad,Pcbnew,9.0.2*%
%TF.CreationDate,2025-06-25T16:59:08+03:00*%
%TF.ProjectId,PikaGlow,50696b61-476c-46f7-972e-6b696361645f,rev?*%
%TF.SameCoordinates,Original*%
%TF.FileFunction,Paste,Top*%
%TF.FilePolarity,Positive*%
%FSLAX46Y46*%
G04 Gerber Fmt 4.6, Leading zero omitted, Abs format (unit mm)*
G04 Created by KiCad (PCBNEW 9.0.2) date 2025-06-25 16:59:08*
%MOMM*%
%LPD*%
G01*
G04 APERTURE LIST*
G04 Aperture macros list*
%AMRoundRect*
0 Rectangle with rounded corners*
0 $1 Rounding radius*
0 $2 $3 $4 $5 $6 $7 $8 $9 X,Y pos of 4 corners*
0 Add a 4 corners polygon primitive as box body*
4,1,4,$2,$3,$4,$5,$6,$7,$8,$9,$2,$3,0*
0 Add four circle primitives for the rounded corners*
1,1,$1+$1,$2,$3*
1,1,$1+$1,$4,$5*
1,1,$1+$1,$6,$7*
1,1,$1+$1,$8,$9*
0 Add four rect primitives between the rounded corners*
20,1,$1+$1,$2,$3,$4,$5,0*
20,1,$1+$1,$4,$5,$6,$7,0*
20,1,$1+$1,$6,$7,$8,$9,0*
20,1,$1+$1,$8,$9,$2,$3,0*%
G04 Aperture macros list end*
%TA.AperFunction,ComponentPad*%
%ADD10C,1.600000*%
%TD*%
%TA.AperFunction,ComponentPad*%
%ADD11RoundRect,0.275000X-0.275000X-0.625000X0.275000X-0.625000X0.275000X0.625000X-0.275000X0.625000X0*%
%TD*%
%TA.AperFunction,ComponentPad*%
%ADD12R,1.100000X1.800000*%
%TD*%
%TA.AperFunction,ComponentPad*%
%ADD13C,1.500000*%
%TD*%
%TA.AperFunction,ComponentPad*%
%ADD14RoundRect,0.250000X-0.550000X0.550000X-0.550000X-0.550000X0.550000X-0.550000X0.550000X0.550000X0*%
%TD*%
%TA.AperFunction,ComponentPad*%
%ADD15C,1.440000*%
%TD*%
%TA.AperFunction,ComponentPad*%
%ADD16R,1.800000X1.800000*%
%TD*%
%TA.AperFunction,ComponentPad*%
%ADD17C,1.800000*%
%TD*%
%TA.AperFunction,SMDPad,CuDef*%
%ADD18R,1.270000X5.080000*%
%TD*%
%TA.AperFunction,SMDPad,CuDef*%
%ADD19C,17.800000*%
%TD*%
%TA.AperFunction,ViaPad*%
%ADD20C,5.500000*%
%TD*%
%TA.AperFunction,ViaPad*%
%ADD21C,0.600000*%
%TD*%
%TA.AperFunction,Conductor*%
%ADD22C,0.200000*%
%TD*%
%ADD23C,1.600000*%
%ADD24RoundRect,0.275000X-0.275000X-0.625000X0.275000X-0.625000X0.275000X0.625000X-0.275000X0.625000X0*%
%ADD25R,1.100000X1.800000*%
%ADD26C,1.500000*%
%ADD27RoundRect,0.250000X-0.550000X0.550000X-0.550000X-0.550000X0.550000X-0.550000X0.550000X0.550000X0*%
%ADD28C,1.440000*%
%ADD29R,1.800000X1.800000*%
%ADD30C,1.800000*%
%ADD31R,1.270000X5.080000*%
%ADD32C,17.800000*%
%ADD33C,0.000000*%
%ADD34C,0.150000*%
%ADD35C,0.120000*%
%TA.AperFunction,Profile*%
%ADD36C,0.050000*%
%TD*%
G04 APERTURE END LIST*
D10*
%TO.P,R1,2*%
%TO.N,Net-(BT1--)*%
X122151000Y-163341000D03*
%TO.P,R1,1*%
%TO.N,Net-(D1-K)*%
X114531000Y-163341000D03*
%TD*%
%TO.P,R3,2*%
%TO.N,Net-(BT1--)*%
X153531000Y-163341000D03*
%TO.P,R3,1*%
%TO.N,Net-(D2-K)*%
X161151000Y-163341000D03*
%TD*%
D11*
%TO.P,Q1,3,E*%
%TO.N,Net-(D1-A)*%
X139111000Y-149511000D03*
%TO.P,Q1,2,B*%
%TO.N,Net-(Q1-B)*%
X137841000Y-147441000D03*
D12*
%TO.P,Q1,1,C*%
%TO.N,Net-(BT1-+)*%
X136571000Y-149511000D03*
%TD*%
D13*
%TO.P,R2,2*%
%TO.N,Net-(BT1--)*%
X139541000Y-166841000D03*
%TO.P,R2,1*%
%TO.N,Net-(R2-Pad1)*%
X136141000Y-166841000D03*
%TD*%
D10*
%TO.P,C1,2*%
%TO.N,Net-(BT1--)*%
X112841000Y-133438349D03*
D14*
%TO.P,C1,1*%
%TO.N,Net-(Q1-B)*%
X112841000Y-128438349D03*
%TD*%
D15*
%TO.P,RV1,3,3*%
%TO.N,Net-(R2-Pad1)*%
X162901000Y-132881000D03*
%TO.P,RV1,2,2*%
%TO.N,unconnected-(RV1-Pad2)*%
X165441000Y-130341000D03*
%TO.P,RV1,1,1*%
%TO.N,Net-(BT1-+)*%
X162901000Y-127801000D03*
%TD*%
D10*
%TO.P,R4,2*%
%TO.N,Net-(Q1-B)*%
X134031000Y-139341000D03*
%TO.P,R4,1*%
%TO.N,Net-(R2-Pad1)*%
X141651000Y-139341000D03*
%TD*%
D16*
%TO.P,D1,1,K*%
%TO.N,Net-(D1-K)*%
X108725000Y-156841000D03*
D17*
%TO.P,D1,2,A*%
%TO.N,Net-(D1-A)*%
X111265000Y-156841000D03*
%TD*%
D16*
%TO.P,D2,1,K*%
%TO.N,Net-(D2-K)*%
X164960000Y-156841000D03*
D17*
%TO.P,D2,2,A*%
%TO.N,Net-(D1-A)*%
X167500000Y-156841000D03*
%TD*%
D18*
%TO.P,BT1,1,+*%
%TO.N,Net-(BT1-+)*%
X149326000Y-123341000D03*
X127356000Y-123341000D03*
D19*
%TO.P,BT1,2,-*%
%TO.N,Net-(BT1--)*%
X138341000Y-123341000D03*
%TD*%
D20*
%TO.N,*%
X100965000Y-93345000D03*
D21*
X175895000Y-98425000D03*
X100965000Y-101600000D03*
X105410000Y-105410000D03*
%TD*%
D22*
%TO.N,Net-(BT1--)*%
X125779349Y-120500000D02*
X112841000Y-133438349D01*
X135500000Y-120500000D02*
X125779349Y-120500000D01*
X138341000Y-123341000D02*
X135500000Y-120500000D01*
%TO.N,Net-(BT1-+)*%
X127356000Y-123341000D02*
X127356000Y-139896000D01*
X127356000Y-139896000D02*
X136571000Y-149111000D01*
X153786000Y-127801000D02*
X149326000Y-123341000D01*
X162901000Y-127801000D02*
X153786000Y-127801000D01*
%TD*%
D23*
%TO.C,R1*%
X122151000Y-163341000D03*
X114531000Y-163341000D03*
%TD*%
%TO.C,R3*%
X153531000Y-163341000D03*
X161151000Y-163341000D03*
%TD*%
D24*
%TO.C,Q1*%
X139111000Y-149511000D03*
X137841000Y-147441000D03*
D25*
X136571000Y-149511000D03*
%TD*%
D26*
%TO.C,R2*%
X139541000Y-166841000D03*
X136141000Y-166841000D03*
%TD*%
D23*
%TO.C,C1*%
X112841000Y-133438349D03*
D27*
X112841000Y-128438349D03*
%TD*%
D28*
%TO.C,RV1*%
X162901000Y-132881000D03*
X165441000Y-130341000D03*
X162901000Y-127801000D03*
%TD*%
D23*
%TO.C,R4*%
X134031000Y-139341000D03*
X141651000Y-139341000D03*
%TD*%
D29*
%TO.C,D1*%
X108725000Y-156841000D03*
D30*
X111265000Y-156841000D03*
%TD*%
D29*
%TO.C,D2*%
X164960000Y-156841000D03*
D30*
X167500000Y-156841000D03*
%TD*%
D31*
%TO.C,BT1*%
X149326000Y-123341000D03*
X127356000Y-123341000D03*
D32*
X138341000Y-123341000D03*
%TD*%
D33*
G36*
X150574572Y-151255953D02*
G01*
X150575770Y-151256106D01*
X150576987Y-151256339D01*
X150578225Y-151256654D01*
X150579488Y-151257053D01*
X150580781Y-151257535D01*
X150582107Y-151258104D01*
X150584876Y-151259504D01*
X150587826Y-151261262D01*
X150590989Y-151263390D01*
X150594397Y-151265898D01*
X150598082Y-151268796D01*
X150602076Y-151272095D01*
X150606409Y-151275805D01*
X150629732Y-151295326D01*
X150653344Y-151313851D01*
X150677358Y-151331453D01*
X150701891Y-151348202D01*
X150727056Y-151364169D01*
X150752968Y-151379426D01*
X150779742Y-151394045D01*
X150807493Y-151408096D01*
X150832484Y-151419954D01*
X150857479Y-151431029D01*
X150882520Y-151441328D01*
X150907646Y-151450864D01*
X150932899Y-151459644D01*
X150958321Y-151467679D01*
X150983952Y-151474978D01*
X151009833Y-151481551D01*
X151036006Y-151487409D01*
X151062511Y-151492559D01*
X151089390Y-151497013D01*
X151116683Y-151500779D01*
X151144433Y-151503868D01*
X151172679Y-151506290D01*
X151201463Y-151508053D01*
X151230826Y-151509168D01*
X151272791Y-151509507D01*
X151315174Y-151508261D01*
X151357872Y-151505456D01*
X151400783Y-151501119D01*
X151443805Y-151495276D01*
X151486833Y-151487955D01*
X151529767Y-151479182D01*
X151572502Y-151468984D01*
X151614937Y-151457388D01*
X151656968Y-151444420D01*
X151698493Y-151430107D01*
X151739409Y-151414476D01*
X151779613Y-151397553D01*
X151819004Y-151379366D01*
X151857477Y-151359941D01*
X151894930Y-151339305D01*
X151904362Y-151333876D01*
X151908400Y-151331603D01*
X151912041Y-151329602D01*
X151915328Y-151327858D01*
X151918301Y-151326352D01*
X151921002Y-151325069D01*
X151923472Y-151323992D01*
X151925753Y-151323104D01*
X151927887Y-151322389D01*
X151929914Y-151321829D01*
X151931877Y-151321408D01*
X151933816Y-151321110D01*
X151935773Y-151320918D01*
X151937791Y-151320815D01*
X151939909Y-151320784D01*
X151942028Y-151320815D01*
X151944045Y-151320918D01*
X151946002Y-151321110D01*
X151947942Y-151321408D01*
X151949904Y-151321829D01*
X151951932Y-151322389D01*
X151954065Y-151323104D01*
X151956346Y-151323992D01*
X151958817Y-151325069D01*
X151961518Y-151326352D01*
X151964491Y-151327858D01*
X151967777Y-151329602D01*
X151975457Y-151333876D01*
X151984888Y-151339305D01*
X152011366Y-151354026D01*
X152038570Y-151368212D01*
X152066439Y-151381843D01*
X152094909Y-151394896D01*
X152123922Y-151407354D01*
X152153413Y-151419193D01*
X152183322Y-151430395D01*
X152213588Y-151440938D01*
X152244148Y-151450802D01*
X152274940Y-151459967D01*
X152305905Y-151468412D01*
X152336978Y-151476115D01*
X152368100Y-151483058D01*
X152399209Y-151489219D01*
X152430242Y-151494578D01*
X152461138Y-151499113D01*
X152496488Y-151503253D01*
X152531766Y-151506349D01*
X152566935Y-151508405D01*
X152601954Y-151509424D01*
X152636785Y-151509411D01*
X152671386Y-151508369D01*
X152705719Y-151506302D01*
X152739745Y-151503215D01*
X152773423Y-151499110D01*
X152806714Y-151493992D01*
X152839579Y-151487865D01*
X152871978Y-151480733D01*
X152903872Y-151472599D01*
X152935221Y-151463468D01*
X152965985Y-151453343D01*
X152996126Y-151442228D01*
X153014821Y-151434719D01*
X153033395Y-151426782D01*
X153051839Y-151418423D01*
X153070143Y-151409647D01*
X153088298Y-151400460D01*
X153106296Y-151390868D01*
X153124126Y-151380877D01*
X153141779Y-151370493D01*
X153159246Y-151359721D01*
X153176518Y-151348567D01*
X153193585Y-151337037D01*
X153210438Y-151325138D01*
X153227068Y-151312873D01*
X153243466Y-151300251D01*
X153259621Y-151287275D01*
X153275526Y-151273953D01*
X153277372Y-151272379D01*
X153279231Y-151270838D01*
X153281090Y-151269337D01*
X153282938Y-151267884D01*
X153284763Y-151266487D01*
X153286553Y-151265153D01*
X153288296Y-151263891D01*
X153289979Y-151262708D01*
X153291591Y-151261612D01*
X153293119Y-151260610D01*
X153294552Y-151259711D01*
X153295878Y-151258921D01*
X153297085Y-151258250D01*
X153298160Y-151257704D01*
X153299091Y-151257291D01*
X153299867Y-151257019D01*
X153301895Y-151256610D01*
X153303907Y-151256369D01*
X153305897Y-151256291D01*
X153307862Y-151256368D01*
X153309795Y-151256596D01*
X153311691Y-151256966D01*
X153313546Y-151257473D01*
X153315354Y-151258111D01*
X153317110Y-151258873D01*
X153318809Y-151259752D01*
X153320445Y-151260742D01*
X153322015Y-151261838D01*
X153323512Y-151263032D01*
X153324931Y-151264318D01*
X153326268Y-151265689D01*
X153327516Y-151267140D01*
X153328672Y-151268664D01*
X153329729Y-151270254D01*
X153330684Y-151271904D01*
X153331530Y-151273608D01*
X153332262Y-151275359D01*
X153332875Y-151277151D01*
X153333365Y-151278978D01*
X153333726Y-151280832D01*
X153333953Y-151282709D01*
X153334040Y-151284600D01*
X153333983Y-151286501D01*
X153333777Y-151288404D01*
X153333416Y-151290303D01*
X153332895Y-151292192D01*
X153332209Y-151294065D01*
X153331353Y-151295914D01*
X153329437Y-151298862D01*
X153326332Y-151302595D01*
X153322133Y-151307035D01*
X153316933Y-151312107D01*
X153303913Y-151323832D01*
X153288028Y-151337155D01*
X153270034Y-151351458D01*
X153250688Y-151366123D01*
X153230747Y-151380534D01*
X153210968Y-151394074D01*
X153183115Y-151411943D01*
X153154823Y-151428838D01*
X153126093Y-151444759D01*
X153096924Y-151459707D01*
X153067318Y-151473681D01*
X153037276Y-151486682D01*
X153006798Y-151498709D01*
X152975885Y-151509763D01*
X152944539Y-151519843D01*
X152912759Y-151528949D01*
X152880546Y-151537082D01*
X152847902Y-151544241D01*
X152814826Y-151550427D01*
X152781321Y-151555639D01*
X152747385Y-151559878D01*
X152713022Y-151563143D01*
X152690300Y-151564350D01*
X152661920Y-151565015D01*
X152629813Y-151565166D01*
X152595911Y-151564829D01*
X152562145Y-151564034D01*
X152530447Y-151562808D01*
X152502749Y-151561178D01*
X152480982Y-151559174D01*
X152447098Y-151554669D01*
X152413422Y-151549394D01*
X152379970Y-151543354D01*
X152346756Y-151536552D01*
X152313796Y-151528993D01*
X152281106Y-151520683D01*
X152248701Y-151511625D01*
X152216597Y-151501825D01*
X152184810Y-151491287D01*
X152153354Y-151480015D01*
X152122245Y-151468015D01*
X152091499Y-151455291D01*
X152061131Y-151441848D01*
X152031157Y-151427690D01*
X152001593Y-151412822D01*
X151972453Y-151397248D01*
X151940174Y-151379522D01*
X151917684Y-151391956D01*
X151887193Y-151408284D01*
X151856442Y-151423830D01*
X151825431Y-151438594D01*
X151794161Y-151452575D01*
X151762632Y-151465774D01*
X151730844Y-151478189D01*
X151698799Y-151489820D01*
X151666495Y-151500668D01*
X151633935Y-151510731D01*
X151601117Y-151520009D01*
X151568043Y-151528501D01*
X151534712Y-151536209D01*
X151501126Y-151543130D01*
X151467284Y-151549265D01*
X151433188Y-151554613D01*
X151398836Y-151559174D01*
X151377070Y-151561178D01*
X151349372Y-151562808D01*
X151317674Y-151564034D01*
X151283908Y-151564829D01*
X151250006Y-151565166D01*
X151217899Y-151565015D01*
X151189518Y-151564350D01*
X151166797Y-151563143D01*
X151132433Y-151559878D01*
X151098498Y-151555639D01*
X151064992Y-151550427D01*
X151031917Y-151544241D01*
X150999273Y-151537082D01*
X150967060Y-151528949D01*
X150935280Y-151519843D01*
X150903933Y-151509763D01*
X150873020Y-151498709D01*
X150842543Y-151486682D01*
X150812500Y-151473681D01*
X150782895Y-151459707D01*
X150753726Y-151444759D01*
X150724995Y-151428838D01*
X150696703Y-151411943D01*
X150668851Y-151394074D01*
X150658941Y-151387408D01*
X150648919Y-151380458D01*
X150638876Y-151373299D01*
X150628903Y-151366008D01*
X150619093Y-151358659D01*
X150609538Y-151351328D01*
X150600330Y-151344091D01*
X150591560Y-151337023D01*
X150583320Y-151330200D01*
X150575702Y-151323698D01*
X150568798Y-151317592D01*
X150562699Y-151311958D01*
X150557499Y-151306870D01*
X150553288Y-151302406D01*
X150550158Y-151298640D01*
X150549027Y-151297043D01*
X150548201Y-151295648D01*
X150547689Y-151294563D01*
X150547245Y-151293442D01*
X150546866Y-151292289D01*
X150546553Y-151291107D01*
X150546304Y-151289900D01*
X150546118Y-151288671D01*
X150545994Y-151287424D01*
X150545931Y-151286161D01*
X150545929Y-151284885D01*
X150545985Y-151283602D01*
X150546099Y-151282312D01*
X150546271Y-151281021D01*
X150546498Y-151279732D01*
X150546781Y-151278447D01*
X150547117Y-151277170D01*
X150547506Y-151275904D01*
X150547948Y-151274653D01*
X150548440Y-151273420D01*
X150548982Y-151272209D01*
X150549573Y-151271022D01*
X150550212Y-151269864D01*
X150550898Y-151268736D01*
X150551629Y-151267644D01*
X150552405Y-151266590D01*
X150553225Y-151265577D01*
X150554088Y-151264609D01*
X150554993Y-151263690D01*
X150555938Y-151262821D01*
X150556924Y-151262008D01*
X150557947Y-151261253D01*
X150559009Y-151260559D01*
X150560107Y-151259930D01*
X150562674Y-151258571D01*
X150565135Y-151257476D01*
X150567524Y-151256656D01*
X150568701Y-151256353D01*
X150569872Y-151256122D01*
X150571040Y-151255966D01*
X150572211Y-151255885D01*
X150573386Y-151255880D01*
X150574572Y-151255953D01*
G37*
G36*
X151950493Y-150706951D02*
G01*
X151973910Y-150707169D01*
X151992875Y-150707459D01*
X152008145Y-150707867D01*
X152014630Y-150708130D01*
X152020475Y-150708439D01*
X152025774Y-150708801D01*
X152030622Y-150709222D01*
X152035114Y-150709707D01*
X152039343Y-150710262D01*
X152043405Y-150710893D01*
X152047394Y-150711606D01*
X152055533Y-150713301D01*
X152062109Y-150714792D01*
X152068343Y-150716289D01*
X152074235Y-150717792D01*
X152079783Y-150719299D01*
X152084987Y-150720812D01*
X152089846Y-150722328D01*
X152094360Y-150723849D01*
X152098527Y-150725372D01*
X152102347Y-150726899D01*
X152105818Y-150728429D01*
X152108941Y-150729961D01*
X152111715Y-150731495D01*
X152114138Y-150733031D01*
X152116210Y-150734567D01*
X152117114Y-150735336D01*
X152117929Y-150736105D01*
X152118657Y-150736874D01*
X152119297Y-150737643D01*
X152120332Y-150739244D01*
X152121254Y-150740963D01*
X152122062Y-150742790D01*
X152122753Y-150744712D01*
X152123326Y-150746717D01*
X152123780Y-150748795D01*
X152124113Y-150750933D01*
X152124324Y-150753120D01*
X152124410Y-150755345D01*
X152124371Y-150757594D01*
X152124205Y-150759858D01*
X152123910Y-150762124D01*
X152123485Y-150764381D01*
X152122929Y-150766617D01*
X152122238Y-150768821D01*
X152121413Y-150770980D01*
X152119330Y-150774471D01*
X152115674Y-150778906D01*
X152110615Y-150784156D01*
X152104323Y-150790092D01*
X152096967Y-150796584D01*
X152088718Y-150803504D01*
X152070216Y-150818109D01*
X152050177Y-150832876D01*
X152029958Y-150846771D01*
X152020206Y-150853069D01*
X152010918Y-150858762D01*
X152002264Y-150863722D01*
X151994413Y-150867818D01*
X151971659Y-150878930D01*
X151939909Y-150878930D01*
X151908159Y-150878930D01*
X151885405Y-150867818D01*
X151877555Y-150863722D01*
X151868901Y-150858762D01*
X151859612Y-150853069D01*
X151849860Y-150846771D01*
X151839813Y-150839997D01*
X151829641Y-150832876D01*
X151819514Y-150825537D01*
X151809602Y-150818109D01*
X151800074Y-150810722D01*
X151791101Y-150803504D01*
X151782851Y-150796584D01*
X151775495Y-150790092D01*
X151769203Y-150784156D01*
X151764144Y-150778906D01*
X151760488Y-150774471D01*
X151759239Y-150772599D01*
X151758405Y-150770980D01*
X151757727Y-150769246D01*
X151757130Y-150767519D01*
X151756614Y-150765800D01*
X151756178Y-150764091D01*
X151755822Y-150762394D01*
X151755545Y-150760710D01*
X151755347Y-150759042D01*
X151755226Y-150757391D01*
X151755182Y-150755759D01*
X151755215Y-150754148D01*
X151755324Y-150752559D01*
X151755507Y-150750995D01*
X151755766Y-150749457D01*
X151756098Y-150747947D01*
X151756504Y-150746467D01*
X151756983Y-150745018D01*
X151757533Y-150743602D01*
X151758156Y-150742222D01*
X151758849Y-150740878D01*
X151759612Y-150739574D01*
X151760444Y-150738309D01*
X151761346Y-150737087D01*
X151762316Y-150735909D01*
X151763354Y-150734777D01*
X151764458Y-150733693D01*
X151765629Y-150732658D01*
X151766866Y-150731675D01*
X151768168Y-150730744D01*
X151769535Y-150729868D01*
X151770965Y-150729049D01*
X151772459Y-150728288D01*
X151774016Y-150727588D01*
X151780549Y-150725142D01*
X151789072Y-150722453D01*
X151799047Y-150719654D01*
X151809933Y-150716873D01*
X151821191Y-150714240D01*
X151832282Y-150711887D01*
X151842666Y-150709943D01*
X151851803Y-150708538D01*
X151857292Y-150708069D01*
X151865549Y-150707658D01*
X151888745Y-150707050D01*
X151918143Y-150706790D01*
X151950493Y-150706951D01*
G37*
G36*
X154038518Y-149225549D02*
G01*
X154058191Y-149226338D01*
X154076990Y-149227500D01*
X154093966Y-149229009D01*
X154108170Y-149230841D01*
X154130690Y-149234647D01*
X154152996Y-149239311D01*
X154175072Y-149244826D01*
X154196904Y-149251180D01*
X154218475Y-149258366D01*
X154239771Y-149266373D01*
X154260775Y-149275193D01*
X154281472Y-149284816D01*
X154317813Y-149304040D01*
X154352771Y-149325624D01*
X154386269Y-149349461D01*
X154418232Y-149375443D01*
X154448585Y-149403462D01*
X154477250Y-149433411D01*
X154504154Y-149465181D01*
X154529221Y-149498665D01*
X154552374Y-149533755D01*
X154573539Y-149570343D01*
X154592640Y-149608322D01*
X154609600Y-149647584D01*
X154624346Y-149688021D01*
X154636800Y-149729525D01*
X154646888Y-149771989D01*
X154654534Y-149815305D01*
X154659705Y-149858807D01*
X154662441Y-149902226D01*
X154662775Y-149945456D01*
X154660739Y-149988388D01*
X154656368Y-150030916D01*
X154649693Y-150072931D01*
X154640747Y-150114327D01*
X154629564Y-150154997D01*
X154616177Y-150194832D01*
X154600618Y-150233726D01*
X154582920Y-150271572D01*
X154563116Y-150308261D01*
X154541240Y-150343687D01*
X154517324Y-150377741D01*
X154491402Y-150410318D01*
X154463505Y-150441309D01*
X154446489Y-150458373D01*
X154428992Y-150474729D01*
X154411035Y-150490365D01*
X154392638Y-150505268D01*
X154373822Y-150519426D01*
X154354609Y-150532825D01*
X154335019Y-150545452D01*
X154315074Y-150557296D01*
X154294793Y-150568343D01*
X154274199Y-150578580D01*
X154253311Y-150587995D01*
X154232152Y-150596574D01*
X154210741Y-150604306D01*
X154189100Y-150611177D01*
X154167250Y-150617174D01*
X154145211Y-150622284D01*
X154129978Y-150625248D01*
X154114378Y-150627791D01*
X154098468Y-150629913D01*
X154082302Y-150631615D01*
X154065937Y-150632896D01*
X154049426Y-150633758D01*
X154032827Y-150634200D01*
X154016194Y-150634223D01*
X153999582Y-150633828D01*
X153983048Y-150633015D01*
X153966646Y-150631783D01*
X153950432Y-150630135D01*
X153934462Y-150628069D01*
X153918790Y-150625587D01*
X153903473Y-150622688D01*
X153888565Y-150619373D01*
X153867714Y-150614015D01*
X153847044Y-150607868D01*
X153826576Y-150600947D01*
X153806329Y-150593262D01*
X153786325Y-150584828D01*
X153766582Y-150575655D01*
X153747121Y-150565757D01*
X153727963Y-150555146D01*
X153709127Y-150543834D01*
X153690634Y-150531834D01*
X153672504Y-150519158D01*
X153654756Y-150505818D01*
X153637412Y-150491827D01*
X153620491Y-150477197D01*
X153604013Y-150461941D01*
X153587999Y-150446071D01*
X153568839Y-150425574D01*
X153559747Y-150415316D01*
X153550957Y-150405020D01*
X153542453Y-150394658D01*
X153534216Y-150384206D01*
X153526231Y-150373637D01*
X153518480Y-150362926D01*
X153510946Y-150352048D01*
X153503611Y-150340977D01*
X153496460Y-150329688D01*
X153489475Y-150318154D01*
X153482638Y-150306350D01*
X153475933Y-150294251D01*
X153469343Y-150281832D01*
X153462851Y-150269065D01*
X153449088Y-150240062D01*
X153436885Y-150211518D01*
X153431328Y-150197291D01*
X153426114Y-150183024D01*
X153421226Y-150168667D01*
X153416648Y-150154170D01*
X153412365Y-150139480D01*
X153408361Y-150124547D01*
X153401124Y-150093746D01*
X153394812Y-150061357D01*
X153389297Y-150026972D01*
X153387438Y-150009347D01*
X153386039Y-149987226D01*
X153385111Y-149962092D01*
X153384666Y-149935426D01*
X153384718Y-149908710D01*
X153385278Y-149883427D01*
X153386359Y-149861058D01*
X153387974Y-149843086D01*
X153390189Y-149827085D01*
X153392993Y-149809782D01*
X153396280Y-149791685D01*
X153399946Y-149773303D01*
X153403885Y-149755144D01*
X153407991Y-149737716D01*
X153412159Y-149721529D01*
X153416284Y-149707091D01*
X153422240Y-149689628D01*
X153657849Y-149689628D01*
X153658109Y-149702352D01*
X153658890Y-149714827D01*
X153660191Y-149727051D01*
X153662012Y-149739022D01*
X153664352Y-149750739D01*
X153667211Y-149762200D01*
X153670589Y-149773404D01*
X153674484Y-149784348D01*
X153678898Y-149795033D01*
X153683829Y-149805455D01*
X153689277Y-149815614D01*
X153695242Y-149825508D01*
X153701723Y-149835135D01*
X153708720Y-149844493D01*
X153716232Y-149853583D01*
X153724260Y-149862400D01*
X153732743Y-149870916D01*
X153741510Y-149878897D01*
X153750543Y-149886333D01*
X153759821Y-149893216D01*
X153769326Y-149899539D01*
X153779037Y-149905291D01*
X153788937Y-149910465D01*
X153799004Y-149915053D01*
X153809220Y-149919045D01*
X153819566Y-149922433D01*
X153830022Y-149925209D01*
X153840568Y-149927364D01*
X153851186Y-149928890D01*
X153861856Y-149929778D01*
X153872558Y-149930019D01*
X153883273Y-149929605D01*
X153888763Y-149929170D01*
X153894039Y-149928652D01*
X153899130Y-149928043D01*
X153904064Y-149927335D01*
X153908869Y-149926521D01*
X153913574Y-149925591D01*
X153918207Y-149924538D01*
X153922796Y-149923354D01*
X153927369Y-149922030D01*
X153931955Y-149920559D01*
X153936583Y-149918932D01*
X153941279Y-149917141D01*
X153946074Y-149915177D01*
X153950994Y-149913034D01*
X153956069Y-149910702D01*
X153961326Y-149908174D01*
X153974065Y-149901337D01*
X153986272Y-149893649D01*
X153997922Y-149885147D01*
X154008992Y-149875866D01*
X154019457Y-149865842D01*
X154029294Y-149855112D01*
X154038477Y-149843711D01*
X154046985Y-149831676D01*
X154054791Y-149819043D01*
X154061873Y-149805847D01*
X154068205Y-149792124D01*
X154073765Y-149777912D01*
X154078529Y-149763245D01*
X154082471Y-149748160D01*
X154085568Y-149732693D01*
X154087797Y-149716880D01*
X154088994Y-149701507D01*
X154089227Y-149686089D01*
X154088518Y-149670682D01*
X154086887Y-149655347D01*
X154084357Y-149640143D01*
X154080950Y-149625127D01*
X154076688Y-149610360D01*
X154071591Y-149595899D01*
X154065682Y-149581804D01*
X154058982Y-149568134D01*
X154051513Y-149554948D01*
X154043297Y-149542304D01*
X154034355Y-149530262D01*
X154024710Y-149518881D01*
X154014383Y-149508218D01*
X154003395Y-149498334D01*
X153999430Y-149495088D01*
X153995107Y-149491815D01*
X153990469Y-149488535D01*
X153985560Y-149485270D01*
X153980425Y-149482043D01*
X153975108Y-149478875D01*
X153969653Y-149475787D01*
X153964104Y-149472802D01*
X153958505Y-149469940D01*
X153952901Y-149467225D01*
X153947336Y-149464677D01*
X153941854Y-149462318D01*
X153936499Y-149460169D01*
X153931315Y-149458254D01*
X153926347Y-149456592D01*
X153921638Y-149455207D01*
X153917152Y-149454168D01*
X153912268Y-149453238D01*
X153907045Y-149452418D01*
X153901543Y-149451709D01*
X153895822Y-149451116D01*
X153889943Y-149450640D01*
X153877949Y-149450048D01*
X153866042Y-149449952D01*
X153860272Y-149450095D01*
X153854703Y-149450370D01*
X153849396Y-149450778D01*
X153844412Y-149451322D01*
X153839809Y-149452004D01*
X153835649Y-149452826D01*
X153827599Y-149454746D01*
X153819717Y-149456934D01*
X153812000Y-149459392D01*
X153804440Y-149462124D01*
X153797035Y-149465129D01*
X153789777Y-149468411D01*
X153782663Y-149471971D01*
X153775688Y-149475812D01*
X153768845Y-149479934D01*
X153762131Y-149484341D01*
X153755541Y-149489034D01*
X153749068Y-149494014D01*
X153742709Y-149499285D01*
X153736458Y-149504847D01*
X153730310Y-149510703D01*
X153724260Y-149516855D01*
X153716232Y-149525673D01*
X153708720Y-149534762D01*
X153701723Y-149544121D01*
X153695242Y-149553748D01*
X153689277Y-149563642D01*
X153683829Y-149573800D01*
X153678898Y-149584223D01*
X153674484Y-149594907D01*
X153670589Y-149605852D01*
X153667211Y-149617056D01*
X153664352Y-149628517D01*
X153662012Y-149640234D01*
X153660191Y-149652205D01*
X153658890Y-149664429D01*
X153658109Y-149676903D01*
X153657849Y-149689628D01*
X153422240Y-149689628D01*
X153433037Y-149657973D01*
X153452841Y-149610817D01*
X153475551Y-149565746D01*
X153501025Y-149522887D01*
X153529119Y-149482363D01*
X153559689Y-149444302D01*
X153592593Y-149408827D01*
X153627686Y-149376064D01*
X153664826Y-149346137D01*
X153703869Y-149319173D01*
X153744671Y-149295297D01*
X153787089Y-149274633D01*
X153830981Y-149257307D01*
X153876201Y-149243444D01*
X153899265Y-149237850D01*
X153922608Y-149233169D01*
X153946211Y-149229416D01*
X153970057Y-149226607D01*
X153983740Y-149225660D01*
X154000344Y-149225185D01*
X154018919Y-149225156D01*
X154038518Y-149225549D01*
G37*
G36*
X149860000Y-149225000D02*
G01*
X149879268Y-149225747D01*
X149898809Y-149226867D01*
X149917476Y-149228302D01*
X149934121Y-149229998D01*
X149947597Y-149231899D01*
X149972185Y-149236550D01*
X149996338Y-149242069D01*
X150020058Y-149248456D01*
X150043343Y-149255711D01*
X150066194Y-149263835D01*
X150088612Y-149272827D01*
X150110595Y-149282686D01*
X150132144Y-149293415D01*
X150153259Y-149305011D01*
X150173940Y-149317475D01*
X150194186Y-149330808D01*
X150213999Y-149345008D01*
X150233378Y-149360077D01*
X150252323Y-149376014D01*
X150270833Y-149392819D01*
X150288909Y-149410492D01*
X150309356Y-149432102D01*
X150328818Y-149454550D01*
X150347285Y-149477811D01*
X150364746Y-149501860D01*
X150381189Y-149526674D01*
X150396605Y-149552228D01*
X150410982Y-149578497D01*
X150424310Y-149605457D01*
X150436577Y-149633084D01*
X150447773Y-149661353D01*
X150457887Y-149690240D01*
X150466908Y-149719720D01*
X150474825Y-149749769D01*
X150481628Y-149780363D01*
X150487304Y-149811477D01*
X150491845Y-149843086D01*
X150493459Y-149861058D01*
X150494540Y-149883427D01*
X150495100Y-149908710D01*
X150495152Y-149935426D01*
X150494708Y-149962092D01*
X150493780Y-149987226D01*
X150492380Y-150009347D01*
X150490522Y-150026972D01*
X150485007Y-150061357D01*
X150481958Y-150077775D01*
X150478694Y-150093746D01*
X150475200Y-150109319D01*
X150471458Y-150124547D01*
X150467454Y-150139480D01*
X150463171Y-150154170D01*
X150458593Y-150168667D01*
X150453705Y-150183024D01*
X150448491Y-150197291D01*
X150442934Y-150211518D01*
X150437019Y-150225759D01*
X150430731Y-150240062D01*
X150424052Y-150254481D01*
X150416968Y-150269065D01*
X150410475Y-150281832D01*
X150403885Y-150294251D01*
X150397180Y-150306350D01*
X150390344Y-150318154D01*
X150383359Y-150329688D01*
X150376207Y-150340977D01*
X150368873Y-150352048D01*
X150361339Y-150362926D01*
X150353588Y-150373637D01*
X150345602Y-150384206D01*
X150337366Y-150394658D01*
X150328861Y-150405020D01*
X150320071Y-150415316D01*
X150310979Y-150425574D01*
X150301568Y-150435817D01*
X150291820Y-150446071D01*
X150275805Y-150461941D01*
X150259328Y-150477197D01*
X150242407Y-150491827D01*
X150225062Y-150505818D01*
X150207315Y-150519158D01*
X150189184Y-150531834D01*
X150170691Y-150543834D01*
X150151855Y-150555146D01*
X150132697Y-150565757D01*
X150113237Y-150575655D01*
X150093494Y-150584828D01*
X150073489Y-150593262D01*
X150053242Y-150600947D01*
X150032774Y-150607868D01*
X150012104Y-150614015D01*
X149991253Y-150619373D01*
X149976345Y-150622688D01*
X149961028Y-150625587D01*
X149945357Y-150628069D01*
X149929386Y-150630135D01*
X149913172Y-150631783D01*
X149896771Y-150633015D01*
X149880236Y-150633828D01*
X149863625Y-150634223D01*
X149846992Y-150634200D01*
X149830392Y-150633758D01*
X149813882Y-150632896D01*
X149797516Y-150631615D01*
X149781350Y-150629913D01*
X149765440Y-150627791D01*
X149749841Y-150625248D01*
X149734607Y-150622284D01*
X149721203Y-150619274D01*
X149707786Y-150615904D01*
X149694371Y-150612177D01*
X149680971Y-150608100D01*
X149667599Y-150603677D01*
X149654268Y-150598913D01*
X149640991Y-150593814D01*
X149627782Y-150588384D01*
X149614653Y-150582629D01*
X149601618Y-150576553D01*
X149588690Y-150570162D01*
X149575882Y-150563460D01*
X149563208Y-150556453D01*
X149550680Y-150549145D01*
X149538311Y-150541542D01*
X149526116Y-150533649D01*
X149498714Y-150514325D01*
X149472301Y-150493508D01*
X149446923Y-150471265D01*
X149422626Y-150447668D01*
X149399456Y-150422783D01*
X149377460Y-150396680D01*
X149356682Y-150369429D01*
X149337170Y-150341098D01*
X149318970Y-150311756D01*
X149302127Y-150281473D01*
X149286688Y-150250317D01*
X149272699Y-150218356D01*
X149260205Y-150185661D01*
X149249255Y-150152301D01*
X149239892Y-150118343D01*
X149232164Y-150083857D01*
X149226625Y-150052759D01*
X149222350Y-150021698D01*
X149219324Y-149990709D01*
X149217528Y-149959829D01*
X149216948Y-149929092D01*
X149217567Y-149898535D01*
X149219369Y-149868192D01*
X149222337Y-149838101D01*
X149226455Y-149808295D01*
X149231706Y-149778810D01*
X149238075Y-149749683D01*
X149245544Y-149720949D01*
X149253393Y-149694976D01*
X149790860Y-149694976D01*
X149791823Y-149713076D01*
X149794033Y-149731043D01*
X149797483Y-149748805D01*
X149802167Y-149766290D01*
X149808079Y-149783427D01*
X149815212Y-149800143D01*
X149823561Y-149816368D01*
X149833119Y-149832029D01*
X149843880Y-149847055D01*
X149849198Y-149853643D01*
X149854912Y-149860097D01*
X149860988Y-149866395D01*
X149867395Y-149872513D01*
X149874099Y-149878430D01*
X149881069Y-149884122D01*
X149888271Y-149889569D01*
X149895672Y-149894746D01*
X149903242Y-149899632D01*
X149910946Y-149904204D01*
X149918752Y-149908439D01*
X149926629Y-149912316D01*
X149934542Y-149915811D01*
X149942460Y-149918903D01*
X149950350Y-149921568D01*
X149958180Y-149923784D01*
X149971399Y-149926731D01*
X149984643Y-149928732D01*
X149997882Y-149929796D01*
X150011084Y-149929931D01*
X150024220Y-149929148D01*
X150037259Y-149927454D01*
X150050170Y-149924858D01*
X150062922Y-149921370D01*
X150075485Y-149916998D01*
X150087829Y-149911751D01*
X150099922Y-149905639D01*
X150111734Y-149898669D01*
X150123234Y-149890852D01*
X150134392Y-149882195D01*
X150145177Y-149872708D01*
X150155559Y-149862400D01*
X150163587Y-149853583D01*
X150171099Y-149844493D01*
X150178096Y-149835135D01*
X150184577Y-149825508D01*
X150190541Y-149815614D01*
X150195990Y-149805455D01*
X150200921Y-149795033D01*
X150205334Y-149784348D01*
X150209230Y-149773404D01*
X150212608Y-149762200D01*
X150215467Y-149750739D01*
X150217807Y-149739022D01*
X150219628Y-149727051D01*
X150220929Y-149714827D01*
X150221710Y-149702352D01*
X150221970Y-149689628D01*
X150221710Y-149676903D01*
X150220929Y-149664429D01*
X150219628Y-149652205D01*
X150217807Y-149640234D01*
X150215467Y-149628517D01*
X150212608Y-149617056D01*
X150209230Y-149605852D01*
X150205334Y-149594907D01*
X150200921Y-149584223D01*
X150195990Y-149573800D01*
X150190541Y-149563642D01*
X150184577Y-149553748D01*
X150178096Y-149544121D01*
X150171099Y-149534762D01*
X150163587Y-149525673D01*
X150155559Y-149516855D01*
X150149375Y-149510570D01*
X150143121Y-149504609D01*
X150136787Y-149498969D01*
X150130366Y-149493646D01*
X150123849Y-149488637D01*
X150117227Y-149483936D01*
X150110492Y-149479541D01*
X150103635Y-149475448D01*
X150096648Y-149471652D01*
X150089522Y-149468150D01*
X150082249Y-149464938D01*
X150074820Y-149462012D01*
X150067227Y-149459368D01*
X150059461Y-149457003D01*
X150051514Y-149454912D01*
X150043376Y-149453091D01*
X150035178Y-149451574D01*
X150026959Y-149450442D01*
X150018731Y-149449691D01*
X150010502Y-149449316D01*
X150002283Y-149449310D01*
X149994083Y-149449670D01*
X149985912Y-149450391D01*
X149977780Y-149451466D01*
X149969696Y-149452891D01*
X149961671Y-149454661D01*
X149953713Y-149456771D01*
X149945833Y-149459216D01*
X149938041Y-149461990D01*
X149930345Y-149465089D01*
X149922757Y-149468507D01*
X149915285Y-149472240D01*
X149907939Y-149476282D01*
X149900730Y-149480628D01*
X149893666Y-149485273D01*
X149886758Y-149490212D01*
X149880015Y-149495440D01*
X149873447Y-149500952D01*
X149867064Y-149506743D01*
X149860876Y-149512808D01*
X149854891Y-149519141D01*
X149849121Y-149525737D01*
X149843575Y-149532592D01*
X149838262Y-149539701D01*
X149833192Y-149547057D01*
X149828375Y-149554657D01*
X149823821Y-149562495D01*
X149819539Y-149570565D01*
X149811603Y-149587591D01*
X149804958Y-149604985D01*
X149799596Y-149622677D01*
X149795511Y-149640593D01*
X149792698Y-149658663D01*
X149791150Y-149676815D01*
X149790860Y-149694976D01*
X149253393Y-149694976D01*
X149254098Y-149692643D01*
X149263721Y-149664801D01*
X149274395Y-149637458D01*
X149286106Y-149610650D01*
X149298835Y-149584412D01*
X149312567Y-149558781D01*
X149327287Y-149533791D01*
X149342976Y-149509479D01*
X149359619Y-149485879D01*
X149377201Y-149463027D01*
X149395703Y-149440960D01*
X149415111Y-149419711D01*
X149435407Y-149399318D01*
X149456575Y-149379816D01*
X149478600Y-149361239D01*
X149501464Y-149343624D01*
X149525152Y-149327007D01*
X149549647Y-149311422D01*
X149574933Y-149296905D01*
X149600993Y-149283493D01*
X149613201Y-149277706D01*
X149625438Y-149272245D01*
X149637730Y-149267104D01*
X149650106Y-149262272D01*
X149662594Y-149257743D01*
X149675221Y-149253508D01*
X149688015Y-149249560D01*
X149701005Y-149245889D01*
X149714218Y-149242488D01*
X149727683Y-149239348D01*
X149741426Y-149236462D01*
X149755476Y-149233821D01*
X149784609Y-149229243D01*
X149815305Y-149225549D01*
X149826872Y-149224845D01*
X149842152Y-149224681D01*
X149860000Y-149225000D01*
G37*
G36*
X156615231Y-143406356D02*
G01*
X156617533Y-143406520D01*
X156619766Y-143406774D01*
X156621931Y-143407117D01*
X156624030Y-143407552D01*
X156626065Y-143408079D01*
X156628036Y-143408699D01*
X156629945Y-143409413D01*
X156631794Y-143410223D01*
X156633583Y-143411130D01*
X156635315Y-143412134D01*
X156636991Y-143413237D01*
X156638611Y-143414439D01*
X156640179Y-143415742D01*
X156641694Y-143417147D01*
X156643158Y-143418655D01*
X156644573Y-143420267D01*
X156645941Y-143421984D01*
X156647261Y-143423807D01*
X156648537Y-143425737D01*
X156649769Y-143427776D01*
X156652108Y-143432182D01*
X156654289Y-143437033D01*
X156656324Y-143442339D01*
X156658223Y-143448107D01*
X156661947Y-143461381D01*
X156664850Y-143475070D01*
X156667027Y-143490756D01*
X156668575Y-143510020D01*
X156669590Y-143534443D01*
X156670167Y-143565607D01*
X156670395Y-143654482D01*
X156670151Y-143728309D01*
X156669795Y-143757220D01*
X156669237Y-143782541D01*
X156668444Y-143805579D01*
X156667381Y-143827644D01*
X156666014Y-143850044D01*
X156664310Y-143874087D01*
X156642212Y-144117051D01*
X156611355Y-144362263D01*
X156572208Y-144607507D01*
X156525237Y-144850564D01*
X156470912Y-145089219D01*
X156409701Y-145321254D01*
X156342072Y-145544452D01*
X156268492Y-145756597D01*
X156214848Y-145895309D01*
X156156842Y-146034546D01*
X156094972Y-146173292D01*
X156029739Y-146310535D01*
X155961640Y-146445260D01*
X155891176Y-146576454D01*
X155818845Y-146703102D01*
X155745147Y-146824191D01*
X155701396Y-146892377D01*
X155656878Y-146959101D01*
X155611619Y-147024333D01*
X155565648Y-147088042D01*
X155518989Y-147150200D01*
X155471670Y-147210776D01*
X155423718Y-147269741D01*
X155375160Y-147327064D01*
X155326022Y-147382716D01*
X155276330Y-147436667D01*
X155226112Y-147488888D01*
X155175395Y-147539347D01*
X155124205Y-147588016D01*
X155072569Y-147634864D01*
X155020513Y-147679862D01*
X154968065Y-147722980D01*
X154952479Y-147735239D01*
X154934062Y-147749467D01*
X154894478Y-147779502D01*
X154860797Y-147804426D01*
X154849760Y-147812267D01*
X154846320Y-147814559D01*
X154844505Y-147815584D01*
X154844161Y-147815742D01*
X154843825Y-147815916D01*
X154843500Y-147816106D01*
X154843186Y-147816308D01*
X154842887Y-147816520D01*
X154842603Y-147816742D01*
X154842337Y-147816971D01*
X154842091Y-147817205D01*
X154841866Y-147817442D01*
X154841665Y-147817680D01*
X154841490Y-147817917D01*
X154841413Y-147818035D01*
X154841342Y-147818151D01*
X154841279Y-147818267D01*
X154841224Y-147818381D01*
X154841176Y-147818494D01*
X154841137Y-147818605D01*
X154841106Y-147818713D01*
X154841083Y-147818819D01*
X154841070Y-147818923D01*
X154841065Y-147819024D01*
X154841593Y-147820211D01*
X154843107Y-147822869D01*
X154848672Y-147831922D01*
X154856915Y-147844845D01*
X154866994Y-147860299D01*
X154899680Y-147910795D01*
X154930678Y-147960912D01*
X154960003Y-148010690D01*
X154987673Y-148060171D01*
X155013705Y-148109396D01*
X155038114Y-148158406D01*
X155060918Y-148207244D01*
X155082134Y-148255950D01*
X155101777Y-148304566D01*
X155119865Y-148353134D01*
X155136415Y-148401695D01*
X155151442Y-148450291D01*
X155164964Y-148498962D01*
X155176998Y-148547751D01*
X155187559Y-148596699D01*
X155196665Y-148645847D01*
X155207008Y-148715444D01*
X155216402Y-148797164D01*
X155224841Y-148890901D01*
X155232318Y-148996552D01*
X155238828Y-149114009D01*
X155244365Y-149243168D01*
X155252492Y-149536170D01*
X155256594Y-149730594D01*
X155260996Y-149894440D01*
X155266050Y-150033767D01*
X155272105Y-150154633D01*
X155279511Y-150263097D01*
X155288620Y-150365217D01*
X155299782Y-150467051D01*
X155313346Y-150574659D01*
X155321376Y-150636829D01*
X155328271Y-150694147D01*
X155334136Y-150747788D01*
X155339077Y-150798926D01*
X155343200Y-150848738D01*
X155346610Y-150898397D01*
X155349411Y-150949080D01*
X155351711Y-151001961D01*
X155353415Y-151060701D01*
X155354068Y-151118799D01*
X155353680Y-151176175D01*
X155352261Y-151232752D01*
X155349820Y-151288452D01*
X155346367Y-151343196D01*
X155341912Y-151396906D01*
X155336464Y-151449504D01*
X155330034Y-151500911D01*
X155322630Y-151551049D01*
X155314263Y-151599840D01*
X155304942Y-151647206D01*
X155294677Y-151693067D01*
X155283477Y-151737347D01*
X155271353Y-151779966D01*
X155258313Y-151820847D01*
X155247075Y-151852347D01*
X155234529Y-151884483D01*
X155220721Y-151917169D01*
X155205702Y-151950323D01*
X155189521Y-151983860D01*
X155172225Y-152017695D01*
X155153865Y-152051745D01*
X155134488Y-152085926D01*
X155114144Y-152120153D01*
X155092881Y-152154343D01*
X155070749Y-152188411D01*
X155047796Y-152222273D01*
X155024070Y-152255846D01*
X154999622Y-152289044D01*
X154974499Y-152321784D01*
X154948750Y-152353982D01*
X154901175Y-152410184D01*
X154851376Y-152465337D01*
X154799445Y-152519372D01*
X154745472Y-152572218D01*
X154689547Y-152623807D01*
X154631761Y-152674070D01*
X154572203Y-152722936D01*
X154510964Y-152770337D01*
X154448135Y-152816203D01*
X154383806Y-152860465D01*
X154318066Y-152903054D01*
X154251007Y-152943899D01*
X154182719Y-152982933D01*
X154113291Y-153020084D01*
X154042815Y-153055285D01*
X153971380Y-153088465D01*
X153877116Y-153129023D01*
X153779791Y-153167721D01*
X153679591Y-153204517D01*
X153576704Y-153239368D01*
X153471319Y-153272232D01*
X153363622Y-153303066D01*
X153142044Y-153358472D01*
X152913470Y-153405247D01*
X152679403Y-153443048D01*
X152441342Y-153471535D01*
X152200788Y-153490367D01*
X152130642Y-153494013D01*
X152064722Y-153496618D01*
X152001624Y-153498181D01*
X151939942Y-153498701D01*
X151878273Y-153498181D01*
X151815212Y-153496618D01*
X151749354Y-153494013D01*
X151679295Y-153490367D01*
X151558753Y-153482179D01*
X151438654Y-153471535D01*
X151319182Y-153458477D01*
X151200527Y-153443048D01*
X151082875Y-153425290D01*
X150966413Y-153405247D01*
X150851328Y-153382960D01*
X150737808Y-153358472D01*
X150626040Y-153331827D01*
X150516211Y-153303066D01*
X150408508Y-153272232D01*
X150303118Y-153239368D01*
X150200229Y-153204517D01*
X150100028Y-153167721D01*
X150002702Y-153129023D01*
X149908438Y-153088465D01*
X149856490Y-153064551D01*
X149804866Y-153039470D01*
X149753631Y-153013263D01*
X149702849Y-152985972D01*
X149652585Y-152957640D01*
X149602904Y-152928307D01*
X149553869Y-152898017D01*
X149505544Y-152866810D01*
X149457995Y-152834729D01*
X149411285Y-152801816D01*
X149365480Y-152768112D01*
X149320642Y-152733659D01*
X149276837Y-152698499D01*
X149234128Y-152662674D01*
X149192581Y-152626226D01*
X149152260Y-152589196D01*
X149118261Y-152556716D01*
X149085307Y-152524145D01*
X149053374Y-152491456D01*
X149022440Y-152458620D01*
X148992483Y-152425609D01*
X148963480Y-152392394D01*
X148935409Y-152358948D01*
X148908248Y-152325241D01*
X148881972Y-152291247D01*
X148856562Y-152256935D01*
X148831993Y-152222279D01*
X148808243Y-152187249D01*
X148785291Y-152151818D01*
X148763112Y-152115956D01*
X148741686Y-152079637D01*
X148720989Y-152042831D01*
X148702513Y-152008132D01*
X148685162Y-151973507D01*
X148668903Y-151938838D01*
X148653702Y-151904008D01*
X148639523Y-151868899D01*
X148626334Y-151833393D01*
X148614100Y-151797373D01*
X148602786Y-151760720D01*
X148592359Y-151723317D01*
X148582785Y-151685045D01*
X148574030Y-151645787D01*
X148566059Y-151605426D01*
X148558838Y-151563843D01*
X148552333Y-151520921D01*
X148541337Y-151430586D01*
X148532758Y-151332331D01*
X148527479Y-151233558D01*
X148525524Y-151133278D01*
X148526917Y-151030503D01*
X148531683Y-150924242D01*
X148539848Y-150813507D01*
X148551436Y-150697309D01*
X148566472Y-150574659D01*
X148580037Y-150467051D01*
X148591198Y-150365217D01*
X148600307Y-150263097D01*
X148607714Y-150154633D01*
X148613769Y-150033767D01*
X148618822Y-149894440D01*
X148627326Y-149536170D01*
X148630897Y-149383923D01*
X148635454Y-149243168D01*
X148640990Y-149114009D01*
X148647501Y-148996552D01*
X148654978Y-148890901D01*
X148663417Y-148797164D01*
X148672811Y-148715444D01*
X148683153Y-148645847D01*
X148692259Y-148596699D01*
X148702821Y-148547751D01*
X148714854Y-148498962D01*
X148728376Y-148450291D01*
X148743404Y-148401695D01*
X148759953Y-148353134D01*
X148778041Y-148304566D01*
X148797685Y-148255950D01*
X148818900Y-148207244D01*
X148841704Y-148158406D01*
X148866114Y-148109396D01*
X148892145Y-148060171D01*
X148919815Y-148010690D01*
X148949141Y-147960912D01*
X148980138Y-147910795D01*
X149012824Y-147860299D01*
X149018040Y-147852339D01*
X149022903Y-147844845D01*
X149027307Y-147837984D01*
X149031146Y-147831922D01*
X149034316Y-147826828D01*
X149036711Y-147822869D01*
X149038225Y-147820211D01*
X149038619Y-147819423D01*
X149038753Y-147819024D01*
X149038749Y-147818923D01*
X149038735Y-147818819D01*
X149038713Y-147818713D01*
X149038682Y-147818605D01*
X149038643Y-147818494D01*
X149038596Y-147818381D01*
X149038480Y-147818151D01*
X149038337Y-147817917D01*
X149038167Y-147817680D01*
X149037975Y-147817442D01*
X149037761Y-147817205D01*
X149037529Y-147816971D01*
X149037280Y-147816742D01*
X149037018Y-147816520D01*
X149036744Y-147816308D01*
X149036461Y-147816106D01*
X149036170Y-147815916D01*
X149035875Y-147815742D01*
X149035578Y-147815584D01*
X149034010Y-147814716D01*
X149030824Y-147812604D01*
X149020365Y-147805232D01*
X149005738Y-147794637D01*
X148988482Y-147781982D01*
X148908629Y-147720188D01*
X148830013Y-147654576D01*
X148752650Y-147585166D01*
X148676555Y-147511979D01*
X148601744Y-147435036D01*
X148528231Y-147354357D01*
X148456034Y-147269963D01*
X148385166Y-147181874D01*
X148315644Y-147090111D01*
X148247484Y-146994695D01*
X148180700Y-146895645D01*
X148115308Y-146792982D01*
X148051324Y-146686728D01*
X147988763Y-146576902D01*
X147927640Y-146463525D01*
X147867972Y-146346618D01*
X147801203Y-146208221D01*
X147739327Y-146072088D01*
X147681928Y-145937108D01*
X147628590Y-145802171D01*
X147578899Y-145666168D01*
X147532439Y-145527988D01*
X147488824Y-145386618D01*
X147678774Y-145386618D01*
X147678960Y-145505507D01*
X147681776Y-145631540D01*
X147684100Y-145692631D01*
X147686997Y-145749982D01*
X147689907Y-145801576D01*
X147711868Y-145857138D01*
X147735569Y-145915413D01*
X147764355Y-145983808D01*
X147794877Y-146054484D01*
X147823787Y-146119605D01*
X147894194Y-146269377D01*
X147966856Y-146413996D01*
X148041694Y-146553318D01*
X148118632Y-146687203D01*
X148197591Y-146815506D01*
X148278494Y-146938086D01*
X148361263Y-147054799D01*
X148445822Y-147165503D01*
X148491203Y-147221721D01*
X148536877Y-147276188D01*
X148582868Y-147328928D01*
X148629203Y-147379964D01*
X148675907Y-147429320D01*
X148723005Y-147477019D01*
X148770524Y-147523083D01*
X148818488Y-147567537D01*
X148866923Y-147610404D01*
X148915855Y-147651706D01*
X148965310Y-147691467D01*
X149015313Y-147729710D01*
X149065889Y-147766459D01*
X149117065Y-147801737D01*
X149168865Y-147835567D01*
X149221316Y-147867972D01*
X149227504Y-147871752D01*
X149233470Y-147875488D01*
X149239063Y-147879088D01*
X149244136Y-147882458D01*
X149248539Y-147885506D01*
X149250442Y-147886880D01*
X149252123Y-147888138D01*
X149253562Y-147889269D01*
X149254740Y-147890262D01*
X149255639Y-147891104D01*
X149256241Y-147891784D01*
X149256727Y-147892419D01*
X149257194Y-147893129D01*
X149257640Y-147893910D01*
X149258064Y-147894757D01*
X149258464Y-147895664D01*
X149258840Y-147896626D01*
X149259191Y-147897638D01*
X149259515Y-147898696D01*
X149259811Y-147899795D01*
X149260078Y-147900928D01*
X149260314Y-147902092D01*
X149260519Y-147903281D01*
X149260692Y-147904490D01*
X149260831Y-147905715D01*
X149260935Y-147906949D01*
X149261003Y-147908188D01*
X149260953Y-147910074D01*
X149260805Y-147911910D01*
X149260562Y-147913693D01*
X149260225Y-147915423D01*
X149259799Y-147917097D01*
X149259285Y-147918713D01*
X149258687Y-147920270D01*
X149258006Y-147921765D01*
X149257246Y-147923196D01*
X149256409Y-147924562D01*
X149255498Y-147925861D01*
X149254515Y-147927090D01*
X149253464Y-147928247D01*
X149252346Y-147929332D01*
X149251165Y-147930341D01*
X149249924Y-147931273D01*
X149248624Y-147932126D01*
X149247269Y-147932899D01*
X149245860Y-147933588D01*
X149244402Y-147934192D01*
X149242896Y-147934709D01*
X149241346Y-147935138D01*
X149239753Y-147935476D01*
X149238121Y-147935722D01*
X149236452Y-147935872D01*
X149234749Y-147935927D01*
X149233014Y-147935883D01*
X149231250Y-147935738D01*
X149229461Y-147935491D01*
X149227648Y-147935140D01*
X149225814Y-147934683D01*
X149223961Y-147934118D01*
X149219010Y-147931854D01*
X149210046Y-147926974D01*
X149197870Y-147919960D01*
X149183282Y-147911297D01*
X149150068Y-147890957D01*
X149116805Y-147869824D01*
X149113531Y-147867724D01*
X149110453Y-147865790D01*
X149107569Y-147864020D01*
X149104878Y-147862411D01*
X149102378Y-147860962D01*
X149100067Y-147859671D01*
X149097942Y-147858535D01*
X149096002Y-147857554D01*
X149094246Y-147856724D01*
X149092670Y-147856044D01*
X149091273Y-147855512D01*
X149090053Y-147855127D01*
X149089509Y-147854988D01*
X149089009Y-147854885D01*
X149088552Y-147854818D01*
X149088138Y-147854786D01*
X149087767Y-147854789D01*
X149087438Y-147854827D01*
X149087152Y-147854900D01*
X149086907Y-147855007D01*
X149085431Y-147856574D01*
X149082773Y-147860055D01*
X149074418Y-147871974D01*
X149049105Y-147910173D01*
X149019079Y-147957103D01*
X148992451Y-148000263D01*
X148948571Y-148076867D01*
X148928159Y-148114836D01*
X148908752Y-148152614D01*
X148890340Y-148190225D01*
X148872914Y-148227691D01*
X148856463Y-148265037D01*
X148840977Y-148302285D01*
X148826446Y-148339459D01*
X148812860Y-148376581D01*
X148800209Y-148413676D01*
X148788482Y-148450766D01*
X148777670Y-148487875D01*
X148767763Y-148525025D01*
X148758750Y-148562241D01*
X148750622Y-148599545D01*
X148737492Y-148672329D01*
X148725995Y-148755574D01*
X148716005Y-148851111D01*
X148707396Y-148960767D01*
X148700038Y-149086373D01*
X148693807Y-149229757D01*
X148684212Y-149577180D01*
X148680288Y-149755144D01*
X148676088Y-149907252D01*
X148671361Y-150037984D01*
X148665856Y-150151822D01*
X148659322Y-150253245D01*
X148651507Y-150346733D01*
X148642160Y-150436767D01*
X148631030Y-150527828D01*
X148629323Y-150540707D01*
X148627789Y-150552773D01*
X148626454Y-150563761D01*
X148625342Y-150573402D01*
X148624478Y-150581432D01*
X148623887Y-150587582D01*
X148623593Y-150591587D01*
X148623566Y-150592702D01*
X148623622Y-150593180D01*
X148623911Y-150593233D01*
X148624471Y-150593197D01*
X148626342Y-150592870D01*
X148629119Y-150592226D01*
X148632684Y-150591295D01*
X148636918Y-150590102D01*
X148641705Y-150588678D01*
X148646925Y-150587049D01*
X148652462Y-150585243D01*
X148672000Y-150579410D01*
X148691627Y-150574514D01*
X148711352Y-150570555D01*
X148731183Y-150567532D01*
X148751129Y-150565445D01*
X148771198Y-150564295D01*
X148791399Y-150564081D01*
X148811741Y-150564803D01*
X148832231Y-150566462D01*
X148852878Y-150569057D01*
X148873692Y-150572589D01*
X148894679Y-150577057D01*
X148915850Y-150582461D01*
X148937212Y-150588802D01*
X148958774Y-150596079D01*
X148980545Y-150604292D01*
X149000018Y-150612352D01*
X149019353Y-150621057D01*
X149038559Y-150630413D01*
X149057646Y-150640429D01*
X149076625Y-150651109D01*
X149095505Y-150662461D01*
X149114297Y-150674491D01*
X149133011Y-150687206D01*
X149151657Y-150700613D01*
X149170244Y-150714717D01*
X149188783Y-150729526D01*
X149207285Y-150745047D01*
X149225758Y-150761285D01*
X149244214Y-150778247D01*
X149262661Y-150795941D01*
X149281112Y-150814372D01*
X149298436Y-150832435D01*
X149315392Y-150850816D01*
X149331989Y-150869529D01*
X149348237Y-150888587D01*
X149364146Y-150908006D01*
X149379724Y-150927797D01*
X149394983Y-150947977D01*
X149409931Y-150968558D01*
X149424578Y-150989554D01*
X149438934Y-151010980D01*
X149466812Y-151055176D01*
X149493642Y-151101256D01*
X149519501Y-151149334D01*
X149537193Y-151184505D01*
X149553958Y-151219876D01*
X149569797Y-151255454D01*
X149584713Y-151291246D01*
X149598708Y-151327259D01*
X149611784Y-151363502D01*
X149623944Y-151399981D01*
X149635190Y-151436704D01*
X149645525Y-151473678D01*
X149654950Y-151510911D01*
X149663469Y-151548410D01*
X149671083Y-151586182D01*
X149677794Y-151624234D01*
X149683606Y-151662575D01*
X149688520Y-151701210D01*
X149692539Y-151740149D01*
X149693841Y-151759532D01*
X149694771Y-151783995D01*
X149695329Y-151811819D01*
X149695515Y-151841285D01*
X149695329Y-151870678D01*
X149694771Y-151898278D01*
X149693841Y-151922369D01*
X149692539Y-151941232D01*
X149689320Y-151971066D01*
X149685419Y-152000147D01*
X149680835Y-152028477D01*
X149675568Y-152056061D01*
X149669617Y-152082900D01*
X149662982Y-152108998D01*
X149655663Y-152134358D01*
X149647659Y-152158984D01*
X149638969Y-152182878D01*
X149629594Y-152206043D01*
X149619533Y-152228482D01*
X149608786Y-152250199D01*
X149597351Y-152271197D01*
X149585230Y-152291478D01*
X149572421Y-152311047D01*
X149558924Y-152329905D01*
X149545145Y-152347527D01*
X149530804Y-152364271D01*
X149515919Y-152380128D01*
X149500505Y-152395087D01*
X149484578Y-152409140D01*
X149468153Y-152422276D01*
X149451247Y-152434485D01*
X149433875Y-152445759D01*
X149416054Y-152456087D01*
X149397800Y-152465460D01*
X149379127Y-152473867D01*
X149360053Y-152481300D01*
X149340592Y-152487748D01*
X149320761Y-152493203D01*
X149300576Y-152497653D01*
X149280053Y-152501090D01*
X149271403Y-152502170D01*
X149262938Y-152503033D01*
X149254399Y-152503685D01*
X149245525Y-152504133D01*
X149236056Y-152504382D01*
X149225731Y-152504439D01*
X149214290Y-152504310D01*
X149201472Y-152504001D01*
X149191808Y-152503668D01*
X149182604Y-152503277D01*
X149174069Y-152502843D01*
X149166415Y-152502380D01*
X149159852Y-152501905D01*
X149154591Y-152501433D01*
X149150844Y-152500980D01*
X149149603Y-152500765D01*
X149148820Y-152500561D01*
X149147110Y-152499974D01*
X149145867Y-152499720D01*
X149145429Y-152499727D01*
X149145117Y-152499829D01*
X149144936Y-152500028D01*
X149144888Y-152500330D01*
X149145207Y-152501252D01*
X149146099Y-152502626D01*
X149147592Y-152504480D01*
X149149713Y-152506845D01*
X149155943Y-152513222D01*
X149165005Y-152521992D01*
X149177111Y-152533392D01*
X149192476Y-152547657D01*
X149239317Y-152590103D01*
X149286982Y-152631326D01*
X149335489Y-152671339D01*
X149384857Y-152710152D01*
X149435104Y-152747778D01*
X149486249Y-152784228D01*
X149538309Y-152819514D01*
X149591302Y-152853647D01*
X149645248Y-152886639D01*
X149700163Y-152918502D01*
X149756067Y-152949247D01*
X149812978Y-152978886D01*
X149870913Y-153007431D01*
X149929891Y-153034892D01*
X149989930Y-153061282D01*
X150051049Y-153086613D01*
X150150084Y-153124886D01*
X150251353Y-153161107D01*
X150354740Y-153195252D01*
X150460128Y-153227297D01*
X150567401Y-153257219D01*
X150676443Y-153284992D01*
X150899369Y-153333999D01*
X151127975Y-153374125D01*
X151361332Y-153405180D01*
X151598508Y-153426970D01*
X151838574Y-153439302D01*
X151943508Y-153440798D01*
X152056045Y-153439013D01*
X152174609Y-153434066D01*
X152297626Y-153426073D01*
X152423520Y-153415154D01*
X152550716Y-153401426D01*
X152677640Y-153385006D01*
X152802715Y-153366013D01*
X152898541Y-153349493D01*
X152993618Y-153331324D01*
X153087773Y-153311562D01*
X153180834Y-153290264D01*
X153272628Y-153267485D01*
X153362984Y-153243281D01*
X153451727Y-153217710D01*
X153538687Y-153190826D01*
X153623691Y-153162687D01*
X153706565Y-153133348D01*
X153787138Y-153102866D01*
X153865237Y-153071297D01*
X153940690Y-153038696D01*
X154013323Y-153005121D01*
X154082966Y-152970628D01*
X154149445Y-152935272D01*
X154223226Y-152893136D01*
X154294846Y-152849406D01*
X154364450Y-152803977D01*
X154432185Y-152756744D01*
X154498196Y-152707601D01*
X154562629Y-152656442D01*
X154625629Y-152603163D01*
X154687343Y-152547657D01*
X154695446Y-152540152D01*
X154702708Y-152533392D01*
X154709155Y-152527349D01*
X154714814Y-152521992D01*
X154719712Y-152517293D01*
X154723875Y-152513222D01*
X154727331Y-152509749D01*
X154728802Y-152508228D01*
X154730106Y-152506845D01*
X154731246Y-152505597D01*
X154732226Y-152504480D01*
X154733050Y-152503491D01*
X154733720Y-152502626D01*
X154734239Y-152501881D01*
X154734612Y-152501252D01*
X154734744Y-152500980D01*
X154734841Y-152500736D01*
X154734903Y-152500520D01*
X154734930Y-152500330D01*
X154734924Y-152500166D01*
X154734883Y-152500028D01*
X154734809Y-152499916D01*
X154734702Y-152499829D01*
X154734562Y-152499766D01*
X154734390Y-152499727D01*
X154734187Y-152499712D01*
X154733952Y-152499720D01*
X154733391Y-152499803D01*
X154732709Y-152499974D01*
X154731911Y-152500228D01*
X154730999Y-152500561D01*
X154728975Y-152500980D01*
X154725228Y-152501433D01*
X154719967Y-152501905D01*
X154713404Y-152502380D01*
X154697215Y-152503277D01*
X154678347Y-152504001D01*
X154665529Y-152504310D01*
X154654088Y-152504439D01*
X154643763Y-152504382D01*
X154634293Y-152504133D01*
X154625419Y-152503685D01*
X154616880Y-152503033D01*
X154608416Y-152502170D01*
X154599765Y-152501090D01*
X154572911Y-152496382D01*
X154546647Y-152489919D01*
X154521009Y-152481731D01*
X154496036Y-152471850D01*
X154471766Y-152460304D01*
X154448235Y-152447126D01*
X154425482Y-152432346D01*
X154403544Y-152415994D01*
X154382458Y-152398101D01*
X154362263Y-152378697D01*
X154342996Y-152357814D01*
X154324694Y-152335482D01*
X154307395Y-152311731D01*
X154291137Y-152286592D01*
X154275957Y-152260097D01*
X154261893Y-152232274D01*
X154254633Y-152216378D01*
X154247737Y-152200234D01*
X154241199Y-152183830D01*
X154235017Y-152167153D01*
X154229186Y-152150191D01*
X154223704Y-152132931D01*
X154218567Y-152115361D01*
X154213771Y-152097469D01*
X154205191Y-152060667D01*
X154197934Y-152022426D01*
X154191973Y-151982647D01*
X154187280Y-151941232D01*
X154185978Y-151922369D01*
X154185048Y-151898278D01*
X154184490Y-151870678D01*
X154184304Y-151841285D01*
X154184490Y-151811819D01*
X154185048Y-151783995D01*
X154185978Y-151759532D01*
X154187280Y-151740149D01*
X154190682Y-151706467D01*
X154194741Y-151673075D01*
X154199460Y-151639953D01*
X154204846Y-151607080D01*
X154210903Y-151574437D01*
X154217636Y-151542003D01*
X154225051Y-151509758D01*
X154233152Y-151477682D01*
X154241945Y-151445755D01*
X154251434Y-151413957D01*
X154261624Y-151382267D01*
X154272521Y-151350665D01*
X154284130Y-151319132D01*
X154296455Y-151287647D01*
X154309502Y-151256189D01*
X154323276Y-151224740D01*
X154349302Y-151169871D01*
X154377196Y-151116570D01*
X154406844Y-151064962D01*
X154438130Y-151015170D01*
X154470938Y-150967316D01*
X154505153Y-150921526D01*
X154540660Y-150877923D01*
X154577342Y-150836630D01*
X154615085Y-150797770D01*
X154653772Y-150761469D01*
X154693289Y-150727848D01*
X154733520Y-150697033D01*
X154774350Y-150669146D01*
X154815662Y-150644311D01*
X154857342Y-150622652D01*
X154899274Y-150604292D01*
X154921044Y-150596079D01*
X154942606Y-150588802D01*
X154963968Y-150582461D01*
X154985139Y-150577057D01*
X155006127Y-150572589D01*
X155026940Y-150569057D01*
X155047587Y-150566462D01*
X155068078Y-150564803D01*
X155088419Y-150564081D01*
X155108620Y-150564295D01*
X155128689Y-150565445D01*
X155148635Y-150567532D01*
X155168466Y-150570555D01*
X155188191Y-150574514D01*
X155207818Y-150579410D01*
X155227356Y-150585243D01*
X155232893Y-150587049D01*
X155238114Y-150588678D01*
X155242900Y-150590102D01*
X155247134Y-150591295D01*
X155250699Y-150592226D01*
X155253476Y-150592870D01*
X155254533Y-150593075D01*
X155255348Y-150593197D01*
X155255907Y-150593233D01*
X155256087Y-150593218D01*
X155256196Y-150593180D01*
X155256225Y-150591587D01*
X155255932Y-150587582D01*
X155254477Y-150573402D01*
X155252029Y-150552773D01*
X155248788Y-150527828D01*
X155237659Y-150436767D01*
X155228312Y-150346733D01*
X155220497Y-150253245D01*
X155213962Y-150151822D01*
X155208457Y-150037984D01*
X155203730Y-149907252D01*
X155195607Y-149577180D01*
X155191878Y-149413246D01*
X155187802Y-149272975D01*
X155183328Y-149153839D01*
X155178409Y-149053305D01*
X155171282Y-148947931D01*
X155162666Y-148845508D01*
X155158018Y-148797907D01*
X155153257Y-148754049D01*
X155148472Y-148714935D01*
X155143749Y-148681566D01*
X155136556Y-148638504D01*
X155128261Y-148595708D01*
X155118849Y-148553136D01*
X155108303Y-148510744D01*
X155096606Y-148468488D01*
X155083743Y-148426325D01*
X155069697Y-148384212D01*
X155054452Y-148342105D01*
X155037991Y-148299961D01*
X155020299Y-148257736D01*
X155001358Y-148215387D01*
X154981154Y-148172871D01*
X154959669Y-148130144D01*
X154936887Y-148087163D01*
X154912792Y-148043884D01*
X154887367Y-148000263D01*
X154874985Y-147979936D01*
X154860740Y-147957103D01*
X154845644Y-147933328D01*
X154830714Y-147910173D01*
X154816961Y-147889200D01*
X154805400Y-147871974D01*
X154797046Y-147860055D01*
X154794388Y-147856574D01*
X154792911Y-147855007D01*
X154792381Y-147854827D01*
X154791681Y-147854786D01*
X154790810Y-147854885D01*
X154789765Y-147855127D01*
X154788546Y-147855512D01*
X154787149Y-147856044D01*
X154785573Y-147856724D01*
X154783816Y-147857554D01*
X154779752Y-147859671D01*
X154774940Y-147862411D01*
X154769366Y-147865790D01*
X154763013Y-147869824D01*
X154746775Y-147880248D01*
X154729750Y-147890957D01*
X154712737Y-147901468D01*
X154696537Y-147911297D01*
X154681948Y-147919960D01*
X154669772Y-147926974D01*
X154660808Y-147931854D01*
X154657781Y-147933343D01*
X154655857Y-147934118D01*
X154654005Y-147934683D01*
X154652171Y-147935140D01*
X154650358Y-147935491D01*
X154648568Y-147935738D01*
X154646804Y-147935883D01*
X154645070Y-147935927D01*
X154643367Y-147935872D01*
X154641698Y-147935722D01*
X154640065Y-147935476D01*
X154638473Y-147935138D01*
X154636922Y-147934709D01*
X154635416Y-147934192D01*
X154633958Y-147933588D01*
X154632550Y-147932899D01*
X154631195Y-147932126D01*
X154629895Y-147931273D01*
X154628653Y-147930341D01*
X154627472Y-147929332D01*
X154626355Y-147928247D01*
X154625303Y-147927090D01*
X154624321Y-147925861D01*
X154623410Y-147924562D01*
X154622573Y-147923196D01*
X154621813Y-147921765D01*
X154621132Y-147920270D01*
X154620533Y-147918713D01*
X154620020Y-147917097D01*
X154619593Y-147915423D01*
X154619257Y-147913693D01*
X154619013Y-147911910D01*
X154618865Y-147910074D01*
X154618815Y-147908188D01*
X154618883Y-147906949D01*
X154618988Y-147905715D01*
X154619126Y-147904490D01*
X154619299Y-147903281D01*
X154619504Y-147902092D01*
X154619741Y-147900928D01*
X154620008Y-147899795D01*
X154620304Y-147898696D01*
X154620628Y-147897638D01*
X154620978Y-147896626D01*
X154621354Y-147895664D01*
X154621755Y-147894757D01*
X154622179Y-147893910D01*
X154622625Y-147893129D01*
X154623091Y-147892419D01*
X154623578Y-147891784D01*
X154624179Y-147891104D01*
X154625079Y-147890262D01*
X154627695Y-147888138D01*
X154631280Y-147885506D01*
X154635682Y-147882458D01*
X154640755Y-147879088D01*
X154646348Y-147875488D01*
X154652314Y-147871752D01*
X154658503Y-147867972D01*
X154743800Y-147814260D01*
X154827745Y-147756412D01*
X154910338Y-147694427D01*
X154991580Y-147628305D01*
X155071470Y-147558045D01*
X155150008Y-147483646D01*
X155227194Y-147405110D01*
X155303028Y-147322434D01*
X155377510Y-147235619D01*
X155450640Y-147144664D01*
X155522419Y-147049570D01*
X155592846Y-146950335D01*
X155661921Y-146846959D01*
X155729644Y-146739442D01*
X155796015Y-146627783D01*
X155861034Y-146511982D01*
X155901471Y-146436258D01*
X155942588Y-146356048D01*
X155983747Y-146272718D01*
X156024315Y-146187636D01*
X156063655Y-146102170D01*
X156101131Y-146017687D01*
X156136108Y-145935554D01*
X156167951Y-145857138D01*
X156189911Y-145801576D01*
X156192822Y-145749982D01*
X156195719Y-145692631D01*
X156198043Y-145631540D01*
X156199765Y-145568551D01*
X156200858Y-145505507D01*
X156201294Y-145444249D01*
X156201044Y-145386618D01*
X156200081Y-145334457D01*
X156198378Y-145289607D01*
X156193970Y-145216692D01*
X156188266Y-145145498D01*
X156181236Y-145075900D01*
X156172850Y-145007772D01*
X156163075Y-144940989D01*
X156151883Y-144875423D01*
X156139242Y-144810950D01*
X156125121Y-144747443D01*
X156109491Y-144684776D01*
X156092320Y-144622824D01*
X156073577Y-144561460D01*
X156053233Y-144500558D01*
X156031256Y-144439992D01*
X156007617Y-144379638D01*
X155982283Y-144319367D01*
X155955225Y-144259055D01*
X155945565Y-144238348D01*
X155937027Y-144220298D01*
X155929618Y-144204933D01*
X155923343Y-144192281D01*
X155920634Y-144186981D01*
X155918210Y-144182370D01*
X155916073Y-144178451D01*
X155914223Y-144175228D01*
X155912662Y-144172704D01*
X155911391Y-144170882D01*
X155910863Y-144170236D01*
X155910409Y-144169767D01*
X155910027Y-144169475D01*
X155909717Y-144169361D01*
X155897346Y-144181917D01*
X155866656Y-144217222D01*
X155765056Y-144338331D01*
X155634385Y-144497192D01*
X155504111Y-144658311D01*
X155231889Y-145006015D01*
X154973316Y-145350296D01*
X154730307Y-145688276D01*
X154504780Y-146017079D01*
X154298650Y-146333826D01*
X154113833Y-146635642D01*
X153952246Y-146919647D01*
X153880763Y-147054072D01*
X153815805Y-147182965D01*
X153806598Y-147201615D01*
X153798260Y-147218213D01*
X153790839Y-147232665D01*
X153784386Y-147244878D01*
X153778950Y-147254760D01*
X153776628Y-147258797D01*
X153774580Y-147262217D01*
X153772810Y-147265007D01*
X153771326Y-147267156D01*
X153770134Y-147268652D01*
X153769649Y-147269152D01*
X153769239Y-147269485D01*
X153768442Y-147270012D01*
X153767594Y-147270505D01*
X153766697Y-147270962D01*
X153765756Y-147271383D01*
X153763753Y-147272120D01*
X153761615Y-147272717D01*
X153759372Y-147273175D01*
X153757053Y-147273494D01*
X153754688Y-147273674D01*
X153752305Y-147273718D01*
X153749935Y-147273625D01*
X153747607Y-147273396D01*
X153745350Y-147273033D01*
X153743194Y-147272535D01*
X153741168Y-147271904D01*
X153739301Y-147271141D01*
X153738437Y-147270710D01*
X153737624Y-147270246D01*
X153736866Y-147269749D01*
X153736166Y-147269219D01*
X153734858Y-147268141D01*
X153733614Y-147266995D01*
X153732438Y-147265785D01*
X153731333Y-147264519D01*
X153730300Y-147263202D01*
X153729342Y-147261839D01*
X153728464Y-147260436D01*
X153727666Y-147259000D01*
X153726951Y-147257536D01*
X153726324Y-147256050D01*
X153725785Y-147254548D01*
X153725338Y-147253035D01*
X153724986Y-147251517D01*
X153724731Y-147250001D01*
X153724576Y-147248492D01*
X153724524Y-147246995D01*
X153724667Y-147246064D01*
X153725088Y-147244582D01*
X153726707Y-147240091D01*
X153729268Y-147233777D01*
X153732660Y-147225894D01*
X153741490Y-147206439D01*
X153752305Y-147183759D01*
X153763120Y-147161410D01*
X153771950Y-147142881D01*
X153777903Y-147130107D01*
X153779522Y-147126482D01*
X153780086Y-147125022D01*
X153778017Y-147123743D01*
X153772041Y-147121367D01*
X153749758Y-147113744D01*
X153673592Y-147089965D01*
X153573811Y-147060431D01*
X153472641Y-147031889D01*
X153324267Y-146992904D01*
X153176187Y-146957346D01*
X153028672Y-146925267D01*
X152881991Y-146896719D01*
X152736414Y-146871756D01*
X152592210Y-146850430D01*
X152449650Y-146832793D01*
X152309003Y-146818899D01*
X152217798Y-146811513D01*
X152135432Y-146805996D01*
X152059460Y-146802309D01*
X151987435Y-146800411D01*
X151916911Y-146800262D01*
X151845441Y-146801821D01*
X151770578Y-146805048D01*
X151689878Y-146809903D01*
X151533046Y-146822480D01*
X151375268Y-146839379D01*
X151216516Y-146860607D01*
X151056763Y-146886169D01*
X150895981Y-146916072D01*
X150734141Y-146950323D01*
X150571216Y-146988926D01*
X150407178Y-147031889D01*
X150357809Y-147045614D01*
X150306008Y-147060431D01*
X150206227Y-147089965D01*
X150163803Y-147102995D01*
X150130060Y-147113744D01*
X150107777Y-147121367D01*
X150101801Y-147123743D01*
X150099732Y-147125022D01*
X150101915Y-147130107D01*
X150107868Y-147142881D01*
X150116699Y-147161410D01*
X150127513Y-147183759D01*
X150133113Y-147195375D01*
X150138328Y-147206439D01*
X150143048Y-147216697D01*
X150147159Y-147225894D01*
X150150551Y-147233777D01*
X150153112Y-147240091D01*
X150154046Y-147242580D01*
X150154731Y-147244582D01*
X150155151Y-147246064D01*
X150155295Y-147246995D01*
X150155243Y-147248492D01*
X150155088Y-147250001D01*
X150154833Y-147251517D01*
X150154480Y-147253035D01*
X150154034Y-147254548D01*
X150153495Y-147256050D01*
X150152867Y-147257536D01*
X150152153Y-147259000D01*
X150151355Y-147260436D01*
X150150476Y-147261839D01*
X150149519Y-147263202D01*
X150148486Y-147264519D01*
X150147380Y-147265785D01*
X150146204Y-147266995D01*
X150144961Y-147268141D01*
X150143653Y-147269219D01*
X150142953Y-147269749D01*
X150142194Y-147270246D01*
X150141381Y-147270710D01*
X150140517Y-147271141D01*
X150138651Y-147271904D01*
X150136625Y-147272535D01*
X150134469Y-147273033D01*
X150132212Y-147273396D01*
X150129884Y-147273625D01*
X150127514Y-147273718D01*
X150125131Y-147273674D01*
X150122766Y-147273494D01*
X150120447Y-147273175D01*
X150118204Y-147272717D01*
X150116066Y-147272120D01*
X150114063Y-147271383D01*
X150112225Y-147270505D01*
X150111376Y-147270012D01*
X150110580Y-147269485D01*
X150109685Y-147268652D01*
X150108492Y-147267156D01*
X150105239Y-147262217D01*
X150100869Y-147254760D01*
X150095433Y-147244878D01*
X150088980Y-147232665D01*
X150081559Y-147218213D01*
X150064014Y-147182965D01*
X149962322Y-146983870D01*
X149846538Y-146773630D01*
X149716932Y-146552688D01*
X149573774Y-146321482D01*
X149417332Y-146080454D01*
X149247877Y-145830043D01*
X149065679Y-145570691D01*
X148871007Y-145302836D01*
X148766744Y-145162944D01*
X148657910Y-145019563D01*
X148433453Y-144731105D01*
X148321289Y-144590412D01*
X148211476Y-144455000D01*
X148105743Y-144327060D01*
X148005820Y-144208784D01*
X147983099Y-144181962D01*
X147975719Y-144173326D01*
X147972482Y-144169626D01*
X147972380Y-144169531D01*
X147972272Y-144169446D01*
X147972158Y-144169370D01*
X147972040Y-144169303D01*
X147971916Y-144169245D01*
X147971788Y-144169197D01*
X147971655Y-144169157D01*
X147971519Y-144169126D01*
X147971380Y-144169104D01*
X147971237Y-144169091D01*
X147971091Y-144169087D01*
X147970943Y-144169091D01*
X147970793Y-144169105D01*
X147970641Y-144169127D01*
X147970487Y-144169157D01*
X147970333Y-144169196D01*
X147970177Y-144169244D01*
X147970022Y-144169300D01*
X147969866Y-144169365D01*
X147969710Y-144169438D01*
X147969555Y-144169519D01*
X147969401Y-144169608D01*
X147969248Y-144169706D01*
X147969097Y-144169812D01*
X147968947Y-144169926D01*
X147968800Y-144170049D01*
X147968656Y-144170179D01*
X147968514Y-144170317D01*
X147968376Y-144170463D01*
X147968241Y-144170617D01*
X147968111Y-144170779D01*
X147967985Y-144170949D01*
X147965676Y-144174560D01*
X147962019Y-144181235D01*
X147951217Y-144202633D01*
X147936693Y-144232862D01*
X147919566Y-144269639D01*
X147893259Y-144328881D01*
X147868595Y-144388214D01*
X147845548Y-144447747D01*
X147824093Y-144507590D01*
X147804203Y-144567851D01*
X147785853Y-144628640D01*
X147769018Y-144690066D01*
X147753672Y-144752239D01*
X147739790Y-144815267D01*
X147727345Y-144879260D01*
X147716313Y-144944328D01*
X147706667Y-145010579D01*
X147698383Y-145078124D01*
X147691434Y-145147070D01*
X147681441Y-145289607D01*
X147679737Y-145334457D01*
X147678774Y-145386618D01*
X147488824Y-145386618D01*
X147488794Y-145386522D01*
X147447549Y-145240659D01*
X147405337Y-145076251D01*
X147366533Y-144907809D01*
X147331319Y-144736434D01*
X147299879Y-144563227D01*
X147272394Y-144389288D01*
X147249050Y-144215717D01*
X147230027Y-144043617D01*
X147215510Y-143874087D01*
X147212438Y-143827644D01*
X147211375Y-143805579D01*
X147210582Y-143782541D01*
X147209668Y-143728309D01*
X147209424Y-143654482D01*
X147209415Y-143605093D01*
X147209652Y-143565607D01*
X147209892Y-143549084D01*
X147210229Y-143534443D01*
X147210675Y-143521488D01*
X147211243Y-143510020D01*
X147211944Y-143499842D01*
X147212791Y-143490756D01*
X147213795Y-143482565D01*
X147214968Y-143475070D01*
X147216323Y-143468075D01*
X147217871Y-143461381D01*
X147219624Y-143454791D01*
X147221595Y-143448107D01*
X147222814Y-143444377D01*
X147224089Y-143440827D01*
X147225422Y-143437455D01*
X147226812Y-143434262D01*
X147228262Y-143431248D01*
X147229771Y-143428411D01*
X147231341Y-143425752D01*
X147232972Y-143423270D01*
X147234665Y-143420964D01*
X147236421Y-143418835D01*
X147237323Y-143417837D01*
X147238240Y-143416882D01*
X147239174Y-143415972D01*
X147240124Y-143415105D01*
X147241090Y-143414282D01*
X147242073Y-143413503D01*
X147243072Y-143412767D01*
X147244088Y-143412075D01*
X147245120Y-143411427D01*
X147246169Y-143410822D01*
X147247235Y-143410261D01*
X147248318Y-143409743D01*
X147250797Y-143408747D01*
X147253550Y-143407940D01*
X147256548Y-143407320D01*
X147259761Y-143406882D01*
X147263161Y-143406624D01*
X147266717Y-143406543D01*
X147270400Y-143406636D01*
X147274181Y-143406899D01*
X147278030Y-143407329D01*
X147281918Y-143407924D01*
X147285815Y-143408680D01*
X147289692Y-143409594D01*
X147293520Y-143410663D01*
X147297268Y-143411884D01*
X147300908Y-143413254D01*
X147304410Y-143414770D01*
X147338451Y-143434406D01*
X147381086Y-143465933D01*
X147431776Y-143508758D01*
X147489986Y-143562287D01*
X147626822Y-143699092D01*
X147787307Y-143871606D01*
X147967152Y-144075089D01*
X148162069Y-144304799D01*
X148367769Y-144555997D01*
X148579966Y-144823941D01*
X148809693Y-145124004D01*
X149028968Y-145420845D01*
X149236293Y-145712235D01*
X149430171Y-145995945D01*
X149609104Y-146269746D01*
X149771595Y-146531408D01*
X149916146Y-146778702D01*
X150041260Y-147009399D01*
X150052992Y-147031641D01*
X150062889Y-147050211D01*
X150069909Y-147063126D01*
X150072014Y-147066843D01*
X150072659Y-147067907D01*
X150073009Y-147068401D01*
X150073513Y-147068564D01*
X150074511Y-147068559D01*
X150077879Y-147068075D01*
X150082897Y-147067001D01*
X150089347Y-147065391D01*
X150097013Y-147063298D01*
X150105677Y-147060773D01*
X150115122Y-147057871D01*
X150125132Y-147054642D01*
X150303330Y-147000557D01*
X150483816Y-146951116D01*
X150665853Y-146906475D01*
X150848702Y-146866788D01*
X151031625Y-146832212D01*
X151213884Y-146802900D01*
X151394742Y-146779008D01*
X151573461Y-146760691D01*
X151661602Y-146753554D01*
X151741960Y-146748197D01*
X151816749Y-146744589D01*
X151888183Y-146742699D01*
X151958477Y-146742495D01*
X152029843Y-146743947D01*
X152104496Y-146747024D01*
X152184649Y-146751695D01*
X152375988Y-146767338D01*
X152570721Y-146789728D01*
X152767855Y-146818667D01*
X152966393Y-146853956D01*
X153165341Y-146895396D01*
X153363703Y-146942790D01*
X153560483Y-146995938D01*
X153754687Y-147054642D01*
X153764696Y-147057871D01*
X153774142Y-147060773D01*
X153782806Y-147063298D01*
X153790471Y-147065391D01*
X153796922Y-147067001D01*
X153799623Y-147067608D01*
X153801939Y-147068075D01*
X153803843Y-147068394D01*
X153805308Y-147068559D01*
X153806306Y-147068564D01*
X153806621Y-147068504D01*
X153806810Y-147068401D01*
X153807805Y-147066843D01*
X153809910Y-147063126D01*
X153816930Y-147050211D01*
X153838559Y-147009399D01*
X153963672Y-146778702D01*
X154108223Y-146531408D01*
X154270714Y-146269746D01*
X154449648Y-145995945D01*
X154643526Y-145712235D01*
X154850851Y-145420845D01*
X155070126Y-145124004D01*
X155299853Y-144823941D01*
X155468852Y-144609996D01*
X155638222Y-144401037D01*
X155802781Y-144203439D01*
X155957343Y-144023576D01*
X156054208Y-143914186D01*
X156144738Y-143814460D01*
X156228577Y-143724762D01*
X156305369Y-143645454D01*
X156374756Y-143576898D01*
X156406562Y-143546766D01*
X156436382Y-143519458D01*
X156464174Y-143495020D01*
X156489892Y-143473497D01*
X156513491Y-143454934D01*
X156534927Y-143439376D01*
X156540738Y-143435363D01*
X156546275Y-143431651D01*
X156551557Y-143428232D01*
X156556603Y-143425097D01*
X156561430Y-143422238D01*
X156566056Y-143419647D01*
X156570500Y-143417315D01*
X156574781Y-143415233D01*
X156578915Y-143413393D01*
X156582922Y-143411786D01*
X156586820Y-143410404D01*
X156590627Y-143409238D01*
X156594360Y-143408281D01*
X156598039Y-143407522D01*
X156601682Y-143406954D01*
X156605307Y-143406568D01*
X156610415Y-143406290D01*
X156612859Y-143406280D01*
X156615231Y-143406356D01*
G37*
D34*
X107950580Y-130771682D02*
X107998200Y-130724063D01*
X107998200Y-130724063D02*
X108045819Y-130581206D01*
X108045819Y-130581206D02*
X108045819Y-130485968D01*
X108045819Y-130485968D02*
X107998200Y-130343111D01*
X107998200Y-130343111D02*
X107902961Y-130247873D01*
X107902961Y-130247873D02*
X107807723Y-130200254D01*
X107807723Y-130200254D02*
X107617247Y-130152635D01*
X107617247Y-130152635D02*
X107474390Y-130152635D01*
X107474390Y-130152635D02*
X107283914Y-130200254D01*
X107283914Y-130200254D02*
X107188676Y-130247873D01*
X107188676Y-130247873D02*
X107093438Y-130343111D01*
X107093438Y-130343111D02*
X107045819Y-130485968D01*
X107045819Y-130485968D02*
X107045819Y-130581206D01*
X107045819Y-130581206D02*
X107093438Y-130724063D01*
X107093438Y-130724063D02*
X107141057Y-130771682D01*
X108045819Y-131724063D02*
X108045819Y-131152635D01*
X108045819Y-131438349D02*
X107045819Y-131438349D01*
X107045819Y-131438349D02*
X107188676Y-131343111D01*
X107188676Y-131343111D02*
X107283914Y-131247873D01*
X107283914Y-131247873D02*
X107331533Y-131152635D01*
X163436238Y-135345819D02*
X163769571Y-134869628D01*
X164007666Y-135345819D02*
X164007666Y-134345819D01*
X164007666Y-134345819D02*
X163626714Y-134345819D01*
X163626714Y-134345819D02*
X163531476Y-134393438D01*
X163531476Y-134393438D02*
X163483857Y-134441057D01*
X163483857Y-134441057D02*
X163436238Y-134536295D01*
X163436238Y-134536295D02*
X163436238Y-134679152D01*
X163436238Y-134679152D02*
X163483857Y-134774390D01*
X163483857Y-134774390D02*
X163531476Y-134822009D01*
X163531476Y-134822009D02*
X163626714Y-134869628D01*
X163626714Y-134869628D02*
X164007666Y-134869628D01*
X163150523Y-134345819D02*
X162817190Y-135345819D01*
X162817190Y-135345819D02*
X162483857Y-134345819D01*
X161626714Y-135345819D02*
X162198142Y-135345819D01*
X161912428Y-135345819D02*
X161912428Y-134345819D01*
X161912428Y-134345819D02*
X162007666Y-134488676D01*
X162007666Y-134488676D02*
X162102904Y-134583914D01*
X162102904Y-134583914D02*
X162198142Y-134631533D01*
X139126714Y-111772009D02*
X138983857Y-111819628D01*
X138983857Y-111819628D02*
X138936238Y-111867247D01*
X138936238Y-111867247D02*
X138888619Y-111962485D01*
X138888619Y-111962485D02*
X138888619Y-112105342D01*
X138888619Y-112105342D02*
X138936238Y-112200580D01*
X138936238Y-112200580D02*
X138983857Y-112248200D01*
X138983857Y-112248200D02*
X139079095Y-112295819D01*
X139079095Y-112295819D02*
X139460047Y-112295819D01*
X139460047Y-112295819D02*
X139460047Y-111295819D01*
X139460047Y-111295819D02*
X139126714Y-111295819D01*
X139126714Y-111295819D02*
X139031476Y-111343438D01*
X139031476Y-111343438D02*
X138983857Y-111391057D01*
X138983857Y-111391057D02*
X138936238Y-111486295D01*
X138936238Y-111486295D02*
X138936238Y-111581533D01*
X138936238Y-111581533D02*
X138983857Y-111676771D01*
X138983857Y-111676771D02*
X139031476Y-111724390D01*
X139031476Y-111724390D02*
X139126714Y-111772009D01*
X139126714Y-111772009D02*
X139460047Y-111772009D01*
X138602904Y-111295819D02*
X138031476Y-111295819D01*
X138317190Y-112295819D02*
X138317190Y-111295819D01*
X137174333Y-112295819D02*
X137745761Y-112295819D01*
X137460047Y-112295819D02*
X137460047Y-111295819D01*
X137460047Y-111295819D02*
X137555285Y-111438676D01*
X137555285Y-111438676D02*
X137650523Y-111533914D01*
X137650523Y-111533914D02*
X137745761Y-111581533D01*
D35*
%TO.C,C1*%
X116961000Y-130938349D02*
G75*
G02*
X108721000Y-130938349I-4120000J0D01*
G01*
X108721000Y-130938349D02*
G75*
G02*
X116961000Y-130938349I4120000J0D01*
G01*
X113881000Y-134458349D02*
X114942000Y-134458349D01*
X113881000Y-134418349D02*
X115006000Y-134418349D01*
X113881000Y-134378349D02*
X115068000Y-134378349D01*
X113881000Y-134338349D02*
X115128000Y-134338349D01*
X113881000Y-134298349D02*
X115185000Y-134298349D01*
X113881000Y-134258349D02*
X115241000Y-134258349D01*
X113881000Y-134218349D02*
X115294000Y-134218349D01*
X113881000Y-134178349D02*
X115346000Y-134178349D01*
X113881000Y-134138349D02*
X115396000Y-134138349D01*
X113881000Y-134098349D02*
X115445000Y-134098349D01*
X113881000Y-134058349D02*
X115492000Y-134058349D01*
X113881000Y-134018349D02*
X115537000Y-134018349D01*
X113881000Y-133978349D02*
X115582000Y-133978349D01*
X113881000Y-133938349D02*
X115625000Y-133938349D01*
X113881000Y-133898349D02*
X115667000Y-133898349D01*
X113881000Y-133858349D02*
X115708000Y-133858349D01*
X113881000Y-133818349D02*
X115747000Y-133818349D01*
X113881000Y-133778349D02*
X115786000Y-133778349D01*
X113881000Y-133738349D02*
X115823000Y-133738349D01*
X113881000Y-133698349D02*
X115860000Y-133698349D01*
X113881000Y-133658349D02*
X115896000Y-133658349D01*
X113881000Y-133618349D02*
X115930000Y-133618349D01*
X113881000Y-133578349D02*
X115964000Y-133578349D01*
X113881000Y-133538349D02*
X115997000Y-133538349D01*
X113881000Y-133498349D02*
X116029000Y-133498349D01*
X113881000Y-133458349D02*
X116060000Y-133458349D01*
X113881000Y-133418349D02*
X116091000Y-133418349D01*
X113881000Y-133378349D02*
X116121000Y-133378349D01*
X113881000Y-133338349D02*
X116150000Y-133338349D01*
X113881000Y-133298349D02*
X116178000Y-133298349D01*
X113881000Y-133258349D02*
X116206000Y-133258349D01*
X113881000Y-133218349D02*
X116233000Y-133218349D01*
X113881000Y-133178349D02*
X116259000Y-133178349D01*
X113881000Y-133138349D02*
X116284000Y-133138349D01*
X113881000Y-133098349D02*
X116309000Y-133098349D01*
X113881000Y-133058349D02*
X116334000Y-133058349D01*
X113881000Y-133018349D02*
X116357000Y-133018349D01*
X113881000Y-132978349D02*
X116380000Y-132978349D01*
X113881000Y-132938349D02*
X116403000Y-132938349D01*
X113881000Y-132898349D02*
X116425000Y-132898349D01*
X113881000Y-132858349D02*
X116446000Y-132858349D01*
X113881000Y-132818349D02*
X116467000Y-132818349D01*
X113881000Y-132778349D02*
X116487000Y-132778349D01*
X113881000Y-132738349D02*
X116507000Y-132738349D01*
X113881000Y-132698349D02*
X116526000Y-132698349D01*
X113881000Y-132658349D02*
X116545000Y-132658349D01*
X113881000Y-132618349D02*
X116563000Y-132618349D01*
X113881000Y-132578349D02*
X116581000Y-132578349D01*
X113881000Y-132538349D02*
X116598000Y-132538349D01*
X113881000Y-132498349D02*
X116614000Y-132498349D01*
X113881000Y-132458349D02*
X116630000Y-132458349D01*
X113881000Y-132418349D02*
X116646000Y-132418349D01*
X112308000Y-135018349D02*
X113374000Y-135018349D01*
X112073000Y-134978349D02*
X113609000Y-134978349D01*
X111894000Y-134938349D02*
X113788000Y-134938349D01*
X111744000Y-134898349D02*
X113938000Y-134898349D01*
X111613000Y-134858349D02*
X114069000Y-134858349D01*
X111495000Y-134818349D02*
X114187000Y-134818349D01*
X111388000Y-134778349D02*
X114294000Y-134778349D01*
X111289000Y-134738349D02*
X114393000Y-134738349D01*
X111197000Y-134698349D02*
X114485000Y-134698349D01*
X111110000Y-134658349D02*
X114572000Y-134658349D01*
X111028000Y-134618349D02*
X114654000Y-134618349D01*
X110951000Y-134578349D02*
X114731000Y-134578349D01*
X110877000Y-134538349D02*
X114805000Y-134538349D01*
X110807000Y-134498349D02*
X114875000Y-134498349D01*
X110740000Y-134458349D02*
X111801000Y-134458349D01*
X110676000Y-134418349D02*
X111801000Y-134418349D01*
X110614000Y-134378349D02*
X111801000Y-134378349D01*
X110554000Y-134338349D02*
X111801000Y-134338349D01*
X110526000Y-126528651D02*
X110526000Y-127328651D01*
X110497000Y-134298349D02*
X111801000Y-134298349D01*
X110441000Y-134258349D02*
X111801000Y-134258349D01*
X110388000Y-134218349D02*
X111801000Y-134218349D01*
X110336000Y-134178349D02*
X111801000Y-134178349D01*
X110286000Y-134138349D02*
X111801000Y-134138349D01*
X110237000Y-134098349D02*
X111801000Y-134098349D01*
X110190000Y-134058349D02*
X111801000Y-134058349D01*
X110145000Y-134018349D02*
X111801000Y-134018349D01*
X110126000Y-126928651D02*
X110926000Y-126928651D01*
X110100000Y-133978349D02*
X111801000Y-133978349D01*
X110057000Y-133938349D02*
X111801000Y-133938349D01*
X110015000Y-133898349D02*
X111801000Y-133898349D01*
X109974000Y-133858349D02*
X111801000Y-133858349D01*
X109935000Y-133818349D02*
X111801000Y-133818349D01*
X109896000Y-133778349D02*
X111801000Y-133778349D01*
X109859000Y-133738349D02*
X111801000Y-133738349D01*
X109822000Y-133698349D02*
X111801000Y-133698349D01*
X109786000Y-133658349D02*
X111801000Y-133658349D01*
X109752000Y-133618349D02*
X111801000Y-133618349D01*
X109718000Y-133578349D02*
X111801000Y-133578349D01*
X109685000Y-133538349D02*
X111801000Y-133538349D01*
X109653000Y-133498349D02*
X111801000Y-133498349D01*
X109622000Y-133458349D02*
X111801000Y-133458349D01*
X109591000Y-133418349D02*
X111801000Y-133418349D01*
X109561000Y-133378349D02*
X111801000Y-133378349D01*
X109532000Y-133338349D02*
X111801000Y-133338349D01*
X109504000Y-133298349D02*
X111801000Y-133298349D01*
X109476000Y-133258349D02*
X111801000Y-133258349D01*
X109449000Y-133218349D02*
X111801000Y-133218349D01*
X109423000Y-133178349D02*
X111801000Y-133178349D01*
X109398000Y-133138349D02*
X111801000Y-133138349D01*
X109373000Y-133098349D02*
X111801000Y-133098349D01*
X109348000Y-133058349D02*
X111801000Y-133058349D01*
X109325000Y-133018349D02*
X111801000Y-133018349D01*
X109302000Y-132978349D02*
X111801000Y-132978349D01*
X109279000Y-132938349D02*
X111801000Y-132938349D01*
X109257000Y-132898349D02*
X111801000Y-132898349D01*
X109236000Y-132858349D02*
X111801000Y-132858349D01*
X109215000Y-132818349D02*
X111801000Y-132818349D01*
X109195000Y-132778349D02*
X111801000Y-132778349D01*
X109175000Y-132738349D02*
X111801000Y-132738349D01*
X109156000Y-132698349D02*
X111801000Y-132698349D01*
X109137000Y-132658349D02*
X111801000Y-132658349D01*
X109119000Y-132618349D02*
X111801000Y-132618349D01*
X109101000Y-132578349D02*
X111801000Y-132578349D01*
X109084000Y-132538349D02*
X111801000Y-132538349D01*
X109068000Y-132498349D02*
X111801000Y-132498349D01*
X109052000Y-132458349D02*
X111801000Y-132458349D01*
X109036000Y-132418349D02*
X111801000Y-132418349D01*
X109021000Y-132378349D02*
X116661000Y-132378349D01*
X109006000Y-132338349D02*
X116676000Y-132338349D01*
X108992000Y-132298349D02*
X116690000Y-132298349D01*
X108978000Y-132258349D02*
X116704000Y-132258349D01*
X108965000Y-132218349D02*
X116717000Y-132218349D01*
X108952000Y-132178349D02*
X116730000Y-132178349D01*
X108940000Y-132138349D02*
X116742000Y-132138349D01*
X108928000Y-132098349D02*
X116754000Y-132098349D01*
X108916000Y-132058349D02*
X116766000Y-132058349D01*
X108905000Y-132018349D02*
X116777000Y-132018349D01*
X108894000Y-131978349D02*
X116788000Y-131978349D01*
X108884000Y-131938349D02*
X116798000Y-131938349D01*
X108874000Y-131898349D02*
X116808000Y-131898349D01*
X108865000Y-131858349D02*
X116817000Y-131858349D01*
X108856000Y-131818349D02*
X116826000Y-131818349D01*
X108848000Y-131778349D02*
X116834000Y-131778349D01*
X108839000Y-131738349D02*
X116843000Y-131738349D01*
X108832000Y-131698349D02*
X116850000Y-131698349D01*
X108824000Y-131658349D02*
X116858000Y-131658349D01*
X108818000Y-131618349D02*
X116864000Y-131618349D01*
X108811000Y-131578349D02*
X116871000Y-131578349D01*
X108805000Y-131538349D02*
X116877000Y-131538349D01*
X108799000Y-131498349D02*
X116883000Y-131498349D01*
X108794000Y-131458349D02*
X116888000Y-131458349D01*
X108789000Y-131418349D02*
X116893000Y-131418349D01*
X108785000Y-131378349D02*
X116897000Y-131378349D01*
X108780000Y-131338349D02*
X116902000Y-131338349D01*
X108777000Y-131298349D02*
X116905000Y-131298349D01*
X108773000Y-131258349D02*
X116909000Y-131258349D01*
X108771000Y-131218349D02*
X116911000Y-131218349D01*
X108768000Y-131178349D02*
X116914000Y-131178349D01*
X108766000Y-131138349D02*
X116916000Y-131138349D01*
X108764000Y-131098349D02*
X116918000Y-131098349D01*
X108763000Y-131058349D02*
X116919000Y-131058349D01*
X108762000Y-131018349D02*
X116920000Y-131018349D01*
X108761000Y-130978349D02*
X116921000Y-130978349D01*
X108761000Y-130938349D02*
X116921000Y-130938349D01*
%TO.C,RV1*%
X166451000Y-133751000D02*
X166451000Y-126931000D01*
X163283000Y-133751000D02*
X166451000Y-133751000D01*
X163283000Y-126931000D02*
X166451000Y-126931000D01*
X159231000Y-133751000D02*
X162519000Y-133751000D01*
X159231000Y-133751000D02*
X159231000Y-126931000D01*
X159231000Y-126931000D02*
X162519000Y-126931000D01*
%TO.C,BT1*%
X127561000Y-117881000D02*
X127561000Y-120341000D01*
X127561000Y-126341000D02*
X127561000Y-126971000D01*
X127561000Y-126971000D02*
X129001000Y-130921000D01*
X129641000Y-115801000D02*
X127561000Y-117881000D01*
X129641000Y-115801000D02*
X133141000Y-115801000D01*
X143541000Y-115801000D02*
X147041000Y-115801000D01*
X147041000Y-115801000D02*
X149121000Y-117881000D01*
X149121000Y-117881000D02*
X149121000Y-120341000D01*
X149121000Y-126341000D02*
X149121000Y-126971000D01*
X149121000Y-126971000D02*
X147681000Y-130921000D01*
X132341000Y-131891000D02*
G75*
G02*
X129015757Y-130929169I-1310000J1700000D01*
G01*
X147681000Y-130921000D02*
G75*
G02*
X144344354Y-131907530I-2030000J730001D01*
G01*
%TD*%
D10*
%TO.P,R1,2*%
%TO.N,Net-(BT1--)*%
X122151000Y-163341000D03*
%TO.P,R1,1*%
%TO.N,Net-(D1-K)*%
X114531000Y-163341000D03*
%TD*%
%TO.P,R3,2*%
%TO.N,Net-(BT1--)*%
X153531000Y-163341000D03*
%TO.P,R3,1*%
%TO.N,Net-(D2-K)*%
X161151000Y-163341000D03*
%TD*%
D11*
%TO.P,Q1,3,E*%
%TO.N,Net-(D1-A)*%
X139111000Y-149511000D03*
%TO.P,Q1,2,B*%
%TO.N,Net-(Q1-B)*%
X137841000Y-147441000D03*
D12*
%TO.P,Q1,1,C*%
%TO.N,Net-(BT1-+)*%
X136571000Y-149511000D03*
%TD*%
D13*
%TO.P,R2,2*%
%TO.N,Net-(BT1--)*%
X139541000Y-166841000D03*
%TO.P,R2,1*%
%TO.N,Net-(R2-Pad1)*%
X136141000Y-166841000D03*
%TD*%
D10*
%TO.P,C1,2*%
%TO.N,Net-(BT1--)*%
X112841000Y-133438349D03*
D14*
%TO.P,C1,1*%
%TO.N,Net-(Q1-B)*%
X112841000Y-128438349D03*
%TD*%
D15*
%TO.P,RV1,3,3*%
%TO.N,Net-(R2-Pad1)*%
X162901000Y-132881000D03*
%TO.P,RV1,2,2*%
%TO.N,unconnected-(RV1-Pad2)*%
X165441000Y-130341000D03*
%TO.P,RV1,1,1*%
%TO.N,Net-(BT1-+)*%
X162901000Y-127801000D03*
%TD*%
D10*
%TO.P,R4,2*%
%TO.N,Net-(Q1-B)*%
X134031000Y-139341000D03*
%TO.P,R4,1*%
%TO.N,Net-(R2-Pad1)*%
X141651000Y-139341000D03*
%TD*%
D16*
%TO.P,D1,1,K*%
%TO.N,Net-(D1-K)*%
X108725000Y-156841000D03*
D17*
%TO.P,D1,2,A*%
%TO.N,Net-(D1-A)*%
X111265000Y-156841000D03*
%TD*%
D16*
%TO.P,D2,1,K*%
%TO.N,Net-(D2-K)*%
X164960000Y-156841000D03*
D17*
%TO.P,D2,2,A*%
%TO.N,Net-(D1-A)*%
X167500000Y-156841000D03*
%TD*%
D20*
%TO.N,*%
X100965000Y-93345000D03*
D21*
X175895000Y-98425000D03*
X100965000Y-101600000D03*
X105410000Y-105410000D03*
%TD*%
D22*
%TO.N,Net-(R2-Pad1)*%
X161607050Y-164442000D02*
X168701000Y-157348050D01*
X151698471Y-139341000D02*
X141651000Y-139341000D01*
X148111000Y-132881000D02*
X141651000Y-139341000D01*
X168701000Y-157348050D02*
X168701000Y-156343529D01*
X168701000Y-156343529D02*
X151698471Y-139341000D01*
X158492950Y-162240000D02*
X160694950Y-164442000D01*
X162901000Y-132881000D02*
X148111000Y-132881000D01*
X160694950Y-164442000D02*
X161607050Y-164442000D01*
X140742000Y-162240000D02*
X158492950Y-162240000D01*
X140742000Y-162240000D02*
X136141000Y-166841000D01*
%TO.N,Net-(D2-K)*%
X161151000Y-160650000D02*
X164960000Y-156841000D01*
X161151000Y-163341000D02*
X161151000Y-160650000D01*
%TO.N,Net-(D1-A)*%
X159770000Y-149111000D02*
X139111000Y-149111000D01*
X131381000Y-156841000D02*
X111265000Y-156841000D01*
X167500000Y-156841000D02*
X159770000Y-149111000D01*
X139111000Y-149111000D02*
X131381000Y-156841000D01*
%TO.N,Net-(D1-K)*%
X114531000Y-163341000D02*
X108725000Y-157535000D01*
X108725000Y-157535000D02*
X108725000Y-156841000D01*
%TO.N,Net-(Q1-B)*%
X137841000Y-147841000D02*
X134031000Y-144031000D01*
X133841000Y-139341000D02*
X122938349Y-128438349D01*
X134031000Y-139341000D02*
X133841000Y-139341000D01*
X122938349Y-128438349D02*
X112841000Y-128438349D01*
X134031000Y-144031000D02*
X134031000Y-139341000D01*
%TO.N,Net-(BT1--)*%
X116852000Y-158042000D02*
X110767529Y-158042000D01*
X122151000Y-163341000D02*
X116852000Y-158042000D01*
X150031000Y-166841000D02*
X153531000Y-163341000D01*
X110767529Y-158042000D02*
X110064000Y-157338471D01*
X110064000Y-157338471D02*
X110064000Y-136215349D01*
X139541000Y-166841000D02*
X150031000Y-166841000D01*
X138490000Y-167892000D02*
X126702000Y-167892000D01*
X126702000Y-167892000D02*
X122151000Y-163341000D01*
X110064000Y-136215349D02*
X112841000Y-133438349D01*
X139541000Y-166841000D02*
X138490000Y-167892000D01*
%TO.N,Net-(BT1-+)*%
X162181001Y-127081001D02*
X112312188Y-127081001D01*
X111740000Y-129223509D02*
X131627491Y-149111000D01*
X162901000Y-127801000D02*
X162181001Y-127081001D01*
X112312188Y-127081001D02*
X111740000Y-127653189D01*
X111740000Y-127653189D02*
X111740000Y-129223509D01*
X131627491Y-149111000D02*
X136571000Y-149111000D01*
%TD*%
D23*
%TO.C,R1*%
X122151000Y-163341000D03*
X114531000Y-163341000D03*
%TD*%
%TO.C,R3*%
X153531000Y-163341000D03*
X161151000Y-163341000D03*
%TD*%
D24*
%TO.C,Q1*%
X139111000Y-149511000D03*
X137841000Y-147441000D03*
D25*
X136571000Y-149511000D03*
%TD*%
D26*
%TO.C,R2*%
X139541000Y-166841000D03*
X136141000Y-166841000D03*
%TD*%
D23*
%TO.C,C1*%
X112841000Y-133438349D03*
D27*
X112841000Y-128438349D03*
%TD*%
D28*
%TO.C,RV1*%
X162901000Y-132881000D03*
X165441000Y-130341000D03*
X162901000Y-127801000D03*
%TD*%
D23*
%TO.C,R4*%
X134031000Y-139341000D03*
X141651000Y-139341000D03*
%TD*%
D29*
%TO.C,D1*%
X108725000Y-156841000D03*
D30*
X111265000Y-156841000D03*
%TD*%
D29*
%TO.C,D2*%
X164960000Y-156841000D03*
D30*
X167500000Y-156841000D03*
%TD*%
D33*
G36*
X118967486Y-150966669D02*
G01*
X118968924Y-150966852D01*
X118970384Y-150967132D01*
X118971870Y-150967510D01*
X118973386Y-150967988D01*
X118974937Y-150968567D01*
X118976529Y-150969249D01*
X118979851Y-150970929D01*
X118983391Y-150973039D01*
X118987187Y-150975593D01*
X118991277Y-150978602D01*
X118995699Y-150982080D01*
X119000491Y-150986039D01*
X119005691Y-150990491D01*
X119033679Y-151013916D01*
X119062013Y-151036146D01*
X119090830Y-151057268D01*
X119120269Y-151077366D01*
X119150467Y-151096527D01*
X119181561Y-151114836D01*
X119213690Y-151132379D01*
X119246991Y-151149240D01*
X119276981Y-151163470D01*
X119306975Y-151176759D01*
X119337023Y-151189119D01*
X119367175Y-151200561D01*
X119397479Y-151211097D01*
X119427985Y-151220739D01*
X119458742Y-151229498D01*
X119489799Y-151237386D01*
X119521207Y-151244415D01*
X119553013Y-151250596D01*
X119585268Y-151255940D01*
X119618020Y-151260460D01*
X119651319Y-151264167D01*
X119685214Y-151267072D01*
X119719755Y-151269188D01*
X119754991Y-151270526D01*
X119805349Y-151270933D01*
X119856208Y-151269437D01*
X119907447Y-151266071D01*
X119958940Y-151260867D01*
X120010566Y-151253856D01*
X120062200Y-151245071D01*
X120113720Y-151234543D01*
X120165003Y-151222306D01*
X120215924Y-151208390D01*
X120266361Y-151192828D01*
X120316191Y-151175653D01*
X120365291Y-151156896D01*
X120413536Y-151136589D01*
X120460804Y-151114764D01*
X120506972Y-151091454D01*
X120551916Y-151066691D01*
X120563234Y-151060175D01*
X120568080Y-151057448D01*
X120572450Y-151055047D01*
X120576393Y-151052954D01*
X120579961Y-151051147D01*
X120583202Y-151049608D01*
X120586166Y-151048315D01*
X120588904Y-151047250D01*
X120591464Y-151046391D01*
X120593897Y-151045719D01*
X120596252Y-151045215D01*
X120598579Y-151044857D01*
X120600928Y-151044626D01*
X120603349Y-151044502D01*
X120605891Y-151044466D01*
X120608433Y-151044502D01*
X120610854Y-151044626D01*
X120613203Y-151044857D01*
X120615530Y-151045215D01*
X120617885Y-151045719D01*
X120620318Y-151046391D01*
X120622878Y-151047250D01*
X120625616Y-151048315D01*
X120628580Y-151049608D01*
X120631821Y-151051147D01*
X120635389Y-151052954D01*
X120639333Y-151055047D01*
X120648548Y-151060175D01*
X120659866Y-151066691D01*
X120691639Y-151084356D01*
X120724284Y-151101379D01*
X120757726Y-151117736D01*
X120791891Y-151133400D01*
X120826706Y-151148349D01*
X120862096Y-151162556D01*
X120897987Y-151175998D01*
X120934305Y-151188650D01*
X120970977Y-151200487D01*
X121007928Y-151211485D01*
X121045085Y-151221618D01*
X121082374Y-151230863D01*
X121119720Y-151239194D01*
X121157050Y-151246587D01*
X121194290Y-151253018D01*
X121231366Y-151258461D01*
X121273785Y-151263429D01*
X121316120Y-151267144D01*
X121358322Y-151269610D01*
X121400345Y-151270833D01*
X121442141Y-151270817D01*
X121483663Y-151269567D01*
X121524863Y-151267087D01*
X121565693Y-151263382D01*
X121606107Y-151258457D01*
X121646057Y-151252315D01*
X121685495Y-151244963D01*
X121724374Y-151236404D01*
X121762646Y-151226644D01*
X121800265Y-151215686D01*
X121837182Y-151203536D01*
X121873351Y-151190198D01*
X121895785Y-151181188D01*
X121918074Y-151171663D01*
X121940206Y-151161632D01*
X121962172Y-151151101D01*
X121983958Y-151140077D01*
X122005555Y-151128566D01*
X122026951Y-151116577D01*
X122048135Y-151104116D01*
X122069095Y-151091189D01*
X122089822Y-151077805D01*
X122110302Y-151063969D01*
X122130526Y-151049690D01*
X122150482Y-151034973D01*
X122170159Y-151019825D01*
X122189546Y-151004255D01*
X122208631Y-150988268D01*
X122210846Y-150986380D01*
X122213077Y-150984530D01*
X122215308Y-150982729D01*
X122217526Y-150980986D01*
X122219716Y-150979309D01*
X122221864Y-150977709D01*
X122223955Y-150976194D01*
X122225975Y-150974774D01*
X122227909Y-150973459D01*
X122229743Y-150972257D01*
X122231463Y-150971177D01*
X122233054Y-150970230D01*
X122234502Y-150969424D01*
X122235792Y-150968769D01*
X122236909Y-150968274D01*
X122237841Y-150967948D01*
X122240274Y-150967456D01*
X122242688Y-150967168D01*
X122245077Y-150967073D01*
X122247434Y-150967167D01*
X122249754Y-150967439D01*
X122252029Y-150967884D01*
X122254255Y-150968492D01*
X122256424Y-150969258D01*
X122258532Y-150970172D01*
X122260570Y-150971227D01*
X122262534Y-150972416D01*
X122264418Y-150973730D01*
X122266214Y-150975163D01*
X122267917Y-150976706D01*
X122269521Y-150978352D01*
X122271020Y-150980093D01*
X122272406Y-150981921D01*
X122273675Y-150983829D01*
X122274820Y-150985809D01*
X122275835Y-150987854D01*
X122276714Y-150989955D01*
X122277450Y-150992106D01*
X122278038Y-150994298D01*
X122278471Y-150996523D01*
X122278743Y-150998775D01*
X122278848Y-151001045D01*
X122278780Y-151003326D01*
X122278532Y-151005610D01*
X122278099Y-151007889D01*
X122277474Y-151010155D01*
X122276651Y-151012402D01*
X122275624Y-151014621D01*
X122273325Y-151018159D01*
X122269599Y-151022638D01*
X122264559Y-151027967D01*
X122258320Y-151034053D01*
X122242695Y-151048124D01*
X122223633Y-151064111D01*
X122202040Y-151081274D01*
X122178826Y-151098872D01*
X122154897Y-151116165D01*
X122131161Y-151132413D01*
X122097738Y-151153856D01*
X122063788Y-151174130D01*
X122029311Y-151193235D01*
X121994309Y-151211173D01*
X121958782Y-151227942D01*
X121922731Y-151243543D01*
X121886158Y-151257976D01*
X121849063Y-151271240D01*
X121811446Y-151283336D01*
X121773310Y-151294264D01*
X121734655Y-151304023D01*
X121695482Y-151312614D01*
X121655791Y-151320037D01*
X121615585Y-151326291D01*
X121574863Y-151331378D01*
X121533626Y-151335296D01*
X121506360Y-151336745D01*
X121472304Y-151337543D01*
X121433775Y-151337723D01*
X121393093Y-151337320D01*
X121352574Y-151336365D01*
X121314536Y-151334894D01*
X121281299Y-151332939D01*
X121255179Y-151330533D01*
X121214518Y-151325128D01*
X121174107Y-151318798D01*
X121133964Y-151311549D01*
X121094107Y-151303387D01*
X121054555Y-151294316D01*
X121015327Y-151284344D01*
X120976442Y-151273475D01*
X120937917Y-151261715D01*
X120899771Y-151249069D01*
X120862024Y-151235543D01*
X120824694Y-151221143D01*
X120787799Y-151205874D01*
X120751358Y-151189742D01*
X120715389Y-151172752D01*
X120679911Y-151154911D01*
X120644944Y-151136222D01*
X120606209Y-151114951D01*
X120579221Y-151129872D01*
X120542632Y-151149466D01*
X120505730Y-151168121D01*
X120468517Y-151185838D01*
X120430993Y-151202615D01*
X120393158Y-151218453D01*
X120355013Y-151233351D01*
X120316559Y-151247309D01*
X120277794Y-151260326D01*
X120238722Y-151272401D01*
X120199340Y-151283535D01*
X120159651Y-151293726D01*
X120119655Y-151302975D01*
X120079351Y-151311280D01*
X120038741Y-151318642D01*
X119997825Y-151325060D01*
X119956603Y-151330533D01*
X119930484Y-151332939D01*
X119897246Y-151334894D01*
X119859209Y-151336365D01*
X119818690Y-151337320D01*
X119778007Y-151337723D01*
X119739478Y-151337543D01*
X119705422Y-151336745D01*
X119678156Y-151335296D01*
X119636920Y-151331378D01*
X119596198Y-151326291D01*
X119555991Y-151320037D01*
X119516300Y-151312614D01*
X119477127Y-151304023D01*
X119438472Y-151294264D01*
X119400336Y-151283336D01*
X119362720Y-151271240D01*
X119325625Y-151257976D01*
X119289051Y-151243543D01*
X119253001Y-151227942D01*
X119217474Y-151211173D01*
X119182471Y-151193235D01*
X119147994Y-151174130D01*
X119114044Y-151153856D01*
X119080621Y-151132413D01*
X119068730Y-151124414D01*
X119056703Y-151116074D01*
X119044651Y-151107484D01*
X119032684Y-151098734D01*
X119020912Y-151089915D01*
X119009446Y-151081118D01*
X118998396Y-151072433D01*
X118987872Y-151063952D01*
X118977984Y-151055765D01*
X118968842Y-151047962D01*
X118960557Y-151040635D01*
X118953239Y-151033874D01*
X118946998Y-151027769D01*
X118941945Y-151022412D01*
X118938189Y-151017893D01*
X118936832Y-151015976D01*
X118935841Y-151014303D01*
X118935227Y-151013000D01*
X118934694Y-151011655D01*
X118934240Y-151010272D01*
X118933864Y-151008854D01*
X118933565Y-151007405D01*
X118933342Y-151005930D01*
X118933193Y-151004433D01*
X118933118Y-151002917D01*
X118933114Y-151001387D01*
X118933182Y-150999847D01*
X118933319Y-150998300D01*
X118933525Y-150996750D01*
X118933798Y-150995203D01*
X118934137Y-150993660D01*
X118934541Y-150992128D01*
X118935008Y-150990609D01*
X118935537Y-150989108D01*
X118936128Y-150987629D01*
X118936778Y-150986175D01*
X118937488Y-150984751D01*
X118938254Y-150983361D01*
X118939077Y-150982008D01*
X118939955Y-150980698D01*
X118940886Y-150979433D01*
X118941871Y-150978217D01*
X118942906Y-150977056D01*
X118943992Y-150975952D01*
X118945126Y-150974910D01*
X118946308Y-150973934D01*
X118947537Y-150973028D01*
X118948811Y-150972195D01*
X118950129Y-150971441D01*
X118953208Y-150969809D01*
X118956162Y-150968496D01*
X118959029Y-150967512D01*
X118960442Y-150967148D01*
X118961846Y-150966871D01*
X118963249Y-150966684D01*
X118964653Y-150966586D01*
X118966064Y-150966581D01*
X118967486Y-150966669D01*
G37*
G36*
X120618591Y-150307866D02*
G01*
X120646692Y-150308128D01*
X120669451Y-150308476D01*
X120687774Y-150308965D01*
X120695556Y-150309280D01*
X120702570Y-150309651D01*
X120708929Y-150310086D01*
X120714747Y-150310591D01*
X120720136Y-150311173D01*
X120725212Y-150311839D01*
X120730086Y-150312597D01*
X120734873Y-150313452D01*
X120744639Y-150315485D01*
X120752530Y-150317275D01*
X120760012Y-150319072D01*
X120767082Y-150320875D01*
X120773740Y-150322684D01*
X120779985Y-150324498D01*
X120785816Y-150326318D01*
X120791232Y-150328143D01*
X120796232Y-150329971D01*
X120800816Y-150331804D01*
X120804982Y-150333640D01*
X120808730Y-150335478D01*
X120812058Y-150337319D01*
X120814965Y-150339161D01*
X120817451Y-150341005D01*
X120818536Y-150341928D01*
X120819515Y-150342850D01*
X120820389Y-150343773D01*
X120821156Y-150344696D01*
X120822398Y-150346617D01*
X120823505Y-150348681D01*
X120824474Y-150350872D01*
X120825303Y-150353179D01*
X120825991Y-150355585D01*
X120826536Y-150358079D01*
X120826936Y-150360645D01*
X120827189Y-150363269D01*
X120827293Y-150365938D01*
X120827246Y-150368638D01*
X120827046Y-150371355D01*
X120826693Y-150374074D01*
X120826182Y-150376782D01*
X120825514Y-150379465D01*
X120824686Y-150382109D01*
X120823696Y-150384700D01*
X120821196Y-150388890D01*
X120816809Y-150394212D01*
X120810738Y-150400512D01*
X120803188Y-150407635D01*
X120794361Y-150415425D01*
X120784461Y-150423729D01*
X120762260Y-150441255D01*
X120738213Y-150458975D01*
X120713950Y-150475650D01*
X120702247Y-150483208D01*
X120691101Y-150490040D01*
X120680716Y-150495991D01*
X120671296Y-150500906D01*
X120643991Y-150514241D01*
X120605891Y-150514241D01*
X120567791Y-150514241D01*
X120540486Y-150500906D01*
X120531066Y-150495991D01*
X120520681Y-150490040D01*
X120509535Y-150483208D01*
X120497832Y-150475650D01*
X120485775Y-150467521D01*
X120473569Y-150458975D01*
X120461417Y-150450169D01*
X120449522Y-150441255D01*
X120438089Y-150432390D01*
X120427321Y-150423729D01*
X120417421Y-150415425D01*
X120408595Y-150407635D01*
X120401044Y-150400512D01*
X120394973Y-150394212D01*
X120390586Y-150388890D01*
X120389087Y-150386644D01*
X120388086Y-150384700D01*
X120387272Y-150382620D01*
X120386556Y-150380547D01*
X120385937Y-150378484D01*
X120385414Y-150376434D01*
X120384987Y-150374397D01*
X120384654Y-150372377D01*
X120384416Y-150370375D01*
X120384271Y-150368394D01*
X120384219Y-150366435D01*
X120384258Y-150364502D01*
X120384388Y-150362596D01*
X120384609Y-150360719D01*
X120384919Y-150358873D01*
X120385318Y-150357061D01*
X120385805Y-150355284D01*
X120386379Y-150353546D01*
X120387040Y-150351847D01*
X120387787Y-150350191D01*
X120388618Y-150348579D01*
X120389534Y-150347013D01*
X120390533Y-150345496D01*
X120391615Y-150344029D01*
X120392779Y-150342616D01*
X120394024Y-150341257D01*
X120395350Y-150339956D01*
X120396755Y-150338714D01*
X120398240Y-150337534D01*
X120399802Y-150336417D01*
X120401442Y-150335366D01*
X120403159Y-150334383D01*
X120404951Y-150333471D01*
X120406819Y-150332630D01*
X120414658Y-150329695D01*
X120424887Y-150326469D01*
X120436856Y-150323109D01*
X120449919Y-150319772D01*
X120463429Y-150316613D01*
X120476738Y-150313789D01*
X120489199Y-150311456D01*
X120500164Y-150309771D01*
X120506750Y-150309207D01*
X120516659Y-150308714D01*
X120544495Y-150307985D01*
X120579772Y-150307672D01*
X120618591Y-150307866D01*
G37*
G36*
X123124222Y-148530183D02*
G01*
X123147830Y-148531131D01*
X123170388Y-148532525D01*
X123190759Y-148534336D01*
X123207803Y-148536533D01*
X123234828Y-148541101D01*
X123261595Y-148546698D01*
X123288087Y-148553315D01*
X123314285Y-148560941D01*
X123340171Y-148569564D01*
X123365725Y-148579172D01*
X123390930Y-148589756D01*
X123415766Y-148601303D01*
X123459376Y-148624372D01*
X123501325Y-148650274D01*
X123541523Y-148678878D01*
X123579879Y-148710057D01*
X123616301Y-148743679D01*
X123650701Y-148779617D01*
X123682985Y-148817742D01*
X123713065Y-148857922D01*
X123740849Y-148900030D01*
X123766247Y-148943936D01*
X123789168Y-148989511D01*
X123809520Y-149036625D01*
X123827215Y-149085150D01*
X123842160Y-149134955D01*
X123854266Y-149185912D01*
X123863441Y-149237891D01*
X123869646Y-149290093D01*
X123872929Y-149342196D01*
X123873330Y-149394072D01*
X123870887Y-149445590D01*
X123865641Y-149496623D01*
X123857631Y-149547042D01*
X123846897Y-149596717D01*
X123833477Y-149645521D01*
X123817412Y-149693323D01*
X123798741Y-149739996D01*
X123777504Y-149785411D01*
X123753740Y-149829438D01*
X123727488Y-149871948D01*
X123698789Y-149912814D01*
X123667682Y-149951906D01*
X123634206Y-149989096D01*
X123613787Y-150009572D01*
X123592791Y-150029199D01*
X123571242Y-150047963D01*
X123549166Y-150065846D01*
X123526587Y-150082835D01*
X123503531Y-150098914D01*
X123480023Y-150114067D01*
X123456088Y-150128280D01*
X123431752Y-150141536D01*
X123407038Y-150153821D01*
X123381974Y-150165118D01*
X123356582Y-150175414D01*
X123330889Y-150184692D01*
X123304920Y-150192936D01*
X123278700Y-150200133D01*
X123252254Y-150206266D01*
X123233974Y-150209823D01*
X123215254Y-150212874D01*
X123196162Y-150215421D01*
X123176763Y-150217462D01*
X123157124Y-150219000D01*
X123137312Y-150220034D01*
X123117392Y-150220565D01*
X123097432Y-150220593D01*
X123077499Y-150220118D01*
X123057658Y-150219142D01*
X123037975Y-150217665D01*
X123018519Y-150215686D01*
X122999354Y-150213207D01*
X122980548Y-150210229D01*
X122962168Y-150206750D01*
X122944278Y-150202773D01*
X122919257Y-150196342D01*
X122894453Y-150188966D01*
X122869891Y-150180661D01*
X122845595Y-150171440D01*
X122821590Y-150161318D01*
X122797898Y-150150311D01*
X122774546Y-150138433D01*
X122751556Y-150125700D01*
X122728953Y-150112126D01*
X122706761Y-150097725D01*
X122685005Y-150082514D01*
X122663708Y-150066506D01*
X122642894Y-150049717D01*
X122622589Y-150032161D01*
X122602816Y-150013854D01*
X122583599Y-149994810D01*
X122560607Y-149970213D01*
X122549697Y-149957904D01*
X122539149Y-149945548D01*
X122528943Y-149933114D01*
X122519059Y-149920571D01*
X122509477Y-149907889D01*
X122500176Y-149895036D01*
X122491135Y-149881983D01*
X122482334Y-149868697D01*
X122473752Y-149855150D01*
X122465370Y-149841309D01*
X122457166Y-149827145D01*
X122449120Y-149812626D01*
X122441212Y-149797723D01*
X122433421Y-149782403D01*
X122416906Y-149747599D01*
X122402262Y-149713347D01*
X122395594Y-149696273D01*
X122389337Y-149679153D01*
X122383471Y-149661926D01*
X122377978Y-149644528D01*
X122372838Y-149626901D01*
X122368033Y-149608981D01*
X122359349Y-149572019D01*
X122351774Y-149533153D01*
X122345156Y-149491891D01*
X122342926Y-149470741D01*
X122341247Y-149444196D01*
X122340133Y-149414035D01*
X122339600Y-149382036D01*
X122339662Y-149349977D01*
X122340334Y-149319637D01*
X122341631Y-149292795D01*
X122343568Y-149271228D01*
X122346226Y-149252027D01*
X122349591Y-149231263D01*
X122353536Y-149209546D01*
X122357935Y-149187488D01*
X122362662Y-149165697D01*
X122367589Y-149144784D01*
X122372591Y-149125360D01*
X122377541Y-149108033D01*
X122384688Y-149087078D01*
X122667418Y-149087078D01*
X122667731Y-149102348D01*
X122668668Y-149117317D01*
X122670229Y-149131986D01*
X122672414Y-149146351D01*
X122675222Y-149160411D01*
X122678653Y-149174165D01*
X122682706Y-149187609D01*
X122687381Y-149200743D01*
X122692678Y-149213564D01*
X122698595Y-149226071D01*
X122705133Y-149238261D01*
X122712290Y-149250134D01*
X122720067Y-149261686D01*
X122728464Y-149272917D01*
X122737479Y-149283824D01*
X122747112Y-149294405D01*
X122757291Y-149304624D01*
X122767812Y-149314201D01*
X122778651Y-149323124D01*
X122789785Y-149331384D01*
X122801191Y-149338971D01*
X122812845Y-149345874D01*
X122824724Y-149352083D01*
X122836805Y-149357588D01*
X122849064Y-149362379D01*
X122861479Y-149366445D01*
X122874026Y-149369776D01*
X122886682Y-149372362D01*
X122899423Y-149374192D01*
X122912227Y-149375258D01*
X122925070Y-149375547D01*
X122937928Y-149375051D01*
X122944516Y-149374528D01*
X122950847Y-149373906D01*
X122956956Y-149373176D01*
X122962877Y-149372327D01*
X122968643Y-149371349D01*
X122974289Y-149370234D01*
X122979848Y-149368971D01*
X122985355Y-149367550D01*
X122990843Y-149365961D01*
X122996346Y-149364195D01*
X123001899Y-149362243D01*
X123007535Y-149360093D01*
X123013288Y-149357738D01*
X123019193Y-149355165D01*
X123025282Y-149352367D01*
X123031591Y-149349333D01*
X123046878Y-149341129D01*
X123061526Y-149331904D01*
X123075507Y-149321701D01*
X123088790Y-149310564D01*
X123101349Y-149298535D01*
X123113152Y-149285659D01*
X123124173Y-149271978D01*
X123134381Y-149257536D01*
X123143749Y-149242376D01*
X123152247Y-149226540D01*
X123159847Y-149210074D01*
X123166519Y-149193019D01*
X123172234Y-149175419D01*
X123176965Y-149157317D01*
X123180682Y-149138756D01*
X123183356Y-149119780D01*
X123184793Y-149101333D01*
X123185072Y-149082831D01*
X123184221Y-149064344D01*
X123182264Y-149045942D01*
X123179229Y-149027696D01*
X123175141Y-149009677D01*
X123170025Y-148991956D01*
X123163909Y-148974603D01*
X123156818Y-148957690D01*
X123148778Y-148941286D01*
X123139816Y-148925462D01*
X123129956Y-148910290D01*
X123119227Y-148895839D01*
X123107652Y-148882181D01*
X123095259Y-148869386D01*
X123082074Y-148857525D01*
X123077316Y-148853631D01*
X123072128Y-148849702D01*
X123066562Y-148845766D01*
X123060672Y-148841849D01*
X123054510Y-148837976D01*
X123048129Y-148834174D01*
X123041583Y-148830469D01*
X123034925Y-148826887D01*
X123028206Y-148823453D01*
X123021482Y-148820194D01*
X123014803Y-148817136D01*
X123008225Y-148814306D01*
X123001799Y-148811728D01*
X122995578Y-148809429D01*
X122989616Y-148807435D01*
X122983966Y-148805773D01*
X122978583Y-148804527D01*
X122972721Y-148803410D01*
X122966453Y-148802426D01*
X122959851Y-148801576D01*
X122952986Y-148800864D01*
X122945931Y-148800292D01*
X122931539Y-148799582D01*
X122917251Y-148799467D01*
X122910326Y-148799639D01*
X122903644Y-148799969D01*
X122897275Y-148800459D01*
X122891294Y-148801111D01*
X122885771Y-148801929D01*
X122880778Y-148802916D01*
X122871118Y-148805219D01*
X122861661Y-148807845D01*
X122852400Y-148810796D01*
X122843328Y-148814073D01*
X122834441Y-148817680D01*
X122825733Y-148821618D01*
X122817196Y-148825890D01*
X122808825Y-148830499D01*
X122800614Y-148835446D01*
X122792558Y-148840734D01*
X122784649Y-148846365D01*
X122776882Y-148852342D01*
X122769251Y-148858666D01*
X122761749Y-148865341D01*
X122754372Y-148872368D01*
X122747112Y-148879751D01*
X122737479Y-148890332D01*
X122728464Y-148901239D01*
X122720067Y-148912470D01*
X122712290Y-148924022D01*
X122705133Y-148935895D01*
X122698595Y-148948085D01*
X122692678Y-148960592D01*
X122687381Y-148973413D01*
X122682706Y-148986547D01*
X122678653Y-148999992D01*
X122675222Y-149013745D01*
X122672414Y-149027805D01*
X122670229Y-149042170D01*
X122668668Y-149056839D01*
X122667731Y-149071809D01*
X122667418Y-149087078D01*
X122384688Y-149087078D01*
X122397645Y-149049093D01*
X122421409Y-148992505D01*
X122448662Y-148938420D01*
X122479230Y-148886989D01*
X122512943Y-148838361D01*
X122549627Y-148792687D01*
X122589112Y-148750117D01*
X122631224Y-148710801D01*
X122675791Y-148674889D01*
X122722642Y-148642533D01*
X122771605Y-148613881D01*
X122822507Y-148589084D01*
X122875177Y-148568293D01*
X122929442Y-148551657D01*
X122957118Y-148544945D01*
X122985130Y-148539327D01*
X123013453Y-148534824D01*
X123042069Y-148531453D01*
X123058488Y-148530317D01*
X123078413Y-148529747D01*
X123100703Y-148529712D01*
X123124222Y-148530183D01*
G37*
G36*
X118110000Y-148529525D02*
G01*
X118133122Y-148530421D01*
X118156571Y-148531765D01*
X118178971Y-148533487D01*
X118198945Y-148535522D01*
X118215116Y-148537803D01*
X118244622Y-148543384D01*
X118273606Y-148550007D01*
X118302069Y-148557672D01*
X118330012Y-148566378D01*
X118357433Y-148576126D01*
X118384334Y-148586917D01*
X118410714Y-148598748D01*
X118436573Y-148611622D01*
X118461911Y-148625537D01*
X118486728Y-148640495D01*
X118511024Y-148656494D01*
X118534799Y-148673534D01*
X118558053Y-148691617D01*
X118580787Y-148710741D01*
X118603000Y-148730908D01*
X118624691Y-148752115D01*
X118649227Y-148778048D01*
X118672582Y-148804985D01*
X118694742Y-148832898D01*
X118715695Y-148861757D01*
X118735427Y-148891534D01*
X118753926Y-148922198D01*
X118771179Y-148953721D01*
X118787172Y-148986073D01*
X118801893Y-149019225D01*
X118815328Y-149053148D01*
X118827464Y-149087812D01*
X118838290Y-149123188D01*
X118847790Y-149159247D01*
X118855953Y-149195960D01*
X118862765Y-149233297D01*
X118868214Y-149271228D01*
X118870151Y-149292795D01*
X118871448Y-149319637D01*
X118872120Y-149349977D01*
X118872183Y-149382036D01*
X118871649Y-149414035D01*
X118870536Y-149444196D01*
X118868856Y-149470741D01*
X118866626Y-149491891D01*
X118860008Y-149533153D01*
X118856350Y-149552855D01*
X118852433Y-149572019D01*
X118848239Y-149590708D01*
X118843750Y-149608981D01*
X118838944Y-149626901D01*
X118833805Y-149644528D01*
X118828312Y-149661926D01*
X118822446Y-149679153D01*
X118816189Y-149696273D01*
X118809521Y-149713347D01*
X118802423Y-149730435D01*
X118794877Y-149747599D01*
X118786862Y-149764902D01*
X118778361Y-149782403D01*
X118770570Y-149797723D01*
X118762662Y-149812626D01*
X118754617Y-149827145D01*
X118746413Y-149841309D01*
X118738030Y-149855150D01*
X118729449Y-149868697D01*
X118720648Y-149881983D01*
X118711607Y-149895036D01*
X118702305Y-149907889D01*
X118692723Y-149920571D01*
X118682839Y-149933114D01*
X118672634Y-149945548D01*
X118662086Y-149957904D01*
X118651175Y-149970213D01*
X118639881Y-149982505D01*
X118628184Y-149994810D01*
X118608967Y-150013854D01*
X118589193Y-150032161D01*
X118568888Y-150049717D01*
X118548075Y-150066506D01*
X118526778Y-150082514D01*
X118505021Y-150097725D01*
X118482829Y-150112126D01*
X118460226Y-150125700D01*
X118437237Y-150138433D01*
X118413884Y-150150311D01*
X118390193Y-150161318D01*
X118366187Y-150171440D01*
X118341891Y-150180661D01*
X118317329Y-150188966D01*
X118292525Y-150196342D01*
X118267504Y-150202773D01*
X118249615Y-150206750D01*
X118231234Y-150210229D01*
X118212428Y-150213207D01*
X118193263Y-150215686D01*
X118173807Y-150217665D01*
X118154125Y-150219142D01*
X118134283Y-150220118D01*
X118114350Y-150220593D01*
X118094390Y-150220565D01*
X118074471Y-150220034D01*
X118054658Y-150219000D01*
X118035019Y-150217462D01*
X118015620Y-150215421D01*
X117996528Y-150212874D01*
X117977809Y-150209823D01*
X117959529Y-150206266D01*
X117943443Y-150202654D01*
X117927343Y-150198609D01*
X117911246Y-150194137D01*
X117895166Y-150189244D01*
X117879119Y-150183937D01*
X117863122Y-150178221D01*
X117847189Y-150172102D01*
X117831338Y-150165586D01*
X117815584Y-150158679D01*
X117799942Y-150151388D01*
X117784428Y-150143719D01*
X117769059Y-150135676D01*
X117753849Y-150127268D01*
X117738815Y-150118499D01*
X117723973Y-150109375D01*
X117709339Y-150099903D01*
X117676457Y-150076715D01*
X117644762Y-150051734D01*
X117614308Y-150025043D01*
X117585152Y-149996726D01*
X117557348Y-149966864D01*
X117530951Y-149935541D01*
X117506019Y-149902840D01*
X117482604Y-149868842D01*
X117460763Y-149833632D01*
X117440552Y-149797292D01*
X117422025Y-149759904D01*
X117405238Y-149721552D01*
X117390247Y-149682318D01*
X117377105Y-149642285D01*
X117365870Y-149601536D01*
X117356596Y-149560153D01*
X117349950Y-149522835D01*
X117344820Y-149485562D01*
X117341188Y-149448375D01*
X117339034Y-149411319D01*
X117338338Y-149374435D01*
X117339081Y-149337766D01*
X117341243Y-149301356D01*
X117344804Y-149265245D01*
X117349746Y-149229478D01*
X117356047Y-149194097D01*
X117363690Y-149159145D01*
X117372653Y-149124663D01*
X117382072Y-149093496D01*
X118027032Y-149093496D01*
X118028188Y-149115216D01*
X118030840Y-149136777D01*
X118034980Y-149158091D01*
X118040600Y-149179073D01*
X118047694Y-149199637D01*
X118056255Y-149219697D01*
X118066273Y-149239166D01*
X118077743Y-149257960D01*
X118090656Y-149275991D01*
X118097038Y-149283896D01*
X118103894Y-149291641D01*
X118111186Y-149299198D01*
X118118874Y-149306540D01*
X118126919Y-149313640D01*
X118135282Y-149320472D01*
X118143925Y-149327007D01*
X118152807Y-149333220D01*
X118161890Y-149339083D01*
X118171135Y-149344569D01*
X118180503Y-149349652D01*
X118189954Y-149354304D01*
X118199451Y-149358498D01*
X118208952Y-149362208D01*
X118218421Y-149365406D01*
X118227816Y-149368066D01*
X118243679Y-149371602D01*
X118259572Y-149374003D01*
X118275458Y-149375280D01*
X118291301Y-149375442D01*
X118307064Y-149374502D01*
X118322711Y-149372469D01*
X118338204Y-149369354D01*
X118353506Y-149365168D01*
X118368582Y-149359922D01*
X118383394Y-149353626D01*
X118397906Y-149346291D01*
X118412080Y-149337928D01*
X118425881Y-149328547D01*
X118439270Y-149318159D01*
X118452213Y-149306775D01*
X118464671Y-149294405D01*
X118474304Y-149283824D01*
X118483319Y-149272917D01*
X118491715Y-149261686D01*
X118499492Y-149250134D01*
X118506650Y-149238261D01*
X118513187Y-149226071D01*
X118519105Y-149213564D01*
X118524401Y-149200743D01*
X118529076Y-149187609D01*
X118533129Y-149174165D01*
X118536560Y-149160411D01*
X118539368Y-149146351D01*
X118541553Y-149131986D01*
X118543114Y-149117317D01*
X118544052Y-149102348D01*
X118544364Y-149087078D01*
X118544052Y-149071809D01*
X118543114Y-149056839D01*
X118541553Y-149042170D01*
X118539368Y-149027805D01*
X118536560Y-149013745D01*
X118533129Y-148999992D01*
X118529076Y-148986547D01*
X118524401Y-148973413D01*
X118519105Y-148960592D01*
X118513187Y-148948085D01*
X118506650Y-148935895D01*
X118499492Y-148924022D01*
X118491715Y-148912470D01*
X118483319Y-148901239D01*
X118474304Y-148890332D01*
X118464671Y-148879751D01*
X118457250Y-148872208D01*
X118449745Y-148865055D01*
X118442145Y-148858287D01*
X118434439Y-148851900D01*
X118426619Y-148845888D01*
X118418672Y-148840248D01*
X118410590Y-148834974D01*
X118402362Y-148830062D01*
X118393978Y-148825507D01*
X118385427Y-148821305D01*
X118376699Y-148817450D01*
X118367784Y-148813939D01*
X118358673Y-148810767D01*
X118349353Y-148807928D01*
X118339816Y-148805418D01*
X118330051Y-148803234D01*
X118320213Y-148801413D01*
X118310351Y-148800055D01*
X118300477Y-148799154D01*
X118290603Y-148798704D01*
X118280740Y-148798697D01*
X118270900Y-148799129D01*
X118261095Y-148799993D01*
X118251336Y-148801284D01*
X118241636Y-148802994D01*
X118232005Y-148805118D01*
X118222456Y-148807650D01*
X118213000Y-148810583D01*
X118203649Y-148813913D01*
X118194414Y-148817631D01*
X118185308Y-148821733D01*
X118176342Y-148826212D01*
X118167527Y-148831063D01*
X118158876Y-148836278D01*
X118150399Y-148841852D01*
X118142109Y-148847779D01*
X118134018Y-148854053D01*
X118126137Y-148860668D01*
X118118477Y-148867617D01*
X118111051Y-148874894D01*
X118103870Y-148882494D01*
X118096945Y-148890409D01*
X118090290Y-148898635D01*
X118083914Y-148907165D01*
X118077830Y-148915993D01*
X118072050Y-148925113D01*
X118066585Y-148934518D01*
X118061446Y-148944203D01*
X118051924Y-148964634D01*
X118043949Y-148985507D01*
X118037515Y-149006737D01*
X118032613Y-149028236D01*
X118029237Y-149049920D01*
X118027380Y-149071702D01*
X118027032Y-149093496D01*
X117382072Y-149093496D01*
X117382918Y-149090696D01*
X117394465Y-149057285D01*
X117407275Y-149024474D01*
X117421327Y-148992304D01*
X117436602Y-148960819D01*
X117453081Y-148930062D01*
X117470744Y-148900074D01*
X117489571Y-148870899D01*
X117509543Y-148842579D01*
X117530641Y-148815157D01*
X117552844Y-148788676D01*
X117576133Y-148763178D01*
X117600488Y-148738707D01*
X117625890Y-148715303D01*
X117652320Y-148693012D01*
X117679757Y-148671874D01*
X117708183Y-148651933D01*
X117737577Y-148633231D01*
X117767919Y-148615811D01*
X117799191Y-148599716D01*
X117813842Y-148592771D01*
X117828525Y-148586219D01*
X117843276Y-148580049D01*
X117858127Y-148574251D01*
X117873112Y-148568816D01*
X117888265Y-148563735D01*
X117903618Y-148558996D01*
X117919206Y-148554591D01*
X117935062Y-148550510D01*
X117951219Y-148546742D01*
X117967711Y-148543279D01*
X117984572Y-148540110D01*
X118019531Y-148534616D01*
X118056366Y-148530183D01*
X118070246Y-148529339D01*
X118088583Y-148529142D01*
X118110000Y-148529525D01*
G37*
G36*
X126216277Y-141547152D02*
G01*
X126219040Y-141547349D01*
X126221719Y-141547653D01*
X126224317Y-141548065D01*
X126226836Y-141548587D01*
X126229278Y-141549219D01*
X126231643Y-141549963D01*
X126233934Y-141550821D01*
X126236152Y-141551793D01*
X126238300Y-141552880D01*
X126240378Y-141554085D01*
X126242389Y-141555409D01*
X126244334Y-141556851D01*
X126246214Y-141558415D01*
X126248032Y-141560101D01*
X126249790Y-141561911D01*
X126251488Y-141563845D01*
X126253129Y-141565906D01*
X126254714Y-141568093D01*
X126256245Y-141570409D01*
X126257723Y-141572856D01*
X126260530Y-141578143D01*
X126263147Y-141583964D01*
X126265589Y-141590331D01*
X126267868Y-141597254D01*
X126272337Y-141613182D01*
X126275820Y-141629609D01*
X126278433Y-141648432D01*
X126280290Y-141671548D01*
X126281508Y-141700856D01*
X126282201Y-141738253D01*
X126282474Y-141844904D01*
X126282181Y-141933496D01*
X126281754Y-141968189D01*
X126281085Y-141998573D01*
X126280133Y-142026220D01*
X126278857Y-142052697D01*
X126277217Y-142079577D01*
X126275171Y-142108429D01*
X126248654Y-142399986D01*
X126211626Y-142694241D01*
X126164649Y-142988533D01*
X126108285Y-143280202D01*
X126043095Y-143566587D01*
X125969641Y-143845029D01*
X125888486Y-144112867D01*
X125800191Y-144367441D01*
X125735818Y-144533896D01*
X125666210Y-144700979D01*
X125591967Y-144867475D01*
X125513686Y-145032167D01*
X125431968Y-145193837D01*
X125347411Y-145351269D01*
X125260614Y-145503247D01*
X125172176Y-145648554D01*
X125119675Y-145730377D01*
X125066253Y-145810446D01*
X125011943Y-145888724D01*
X124956777Y-145965175D01*
X124900787Y-146039765D01*
X124844004Y-146112456D01*
X124786462Y-146183214D01*
X124728192Y-146252002D01*
X124669226Y-146318784D01*
X124609596Y-146383525D01*
X124549335Y-146446190D01*
X124488474Y-146506741D01*
X124427046Y-146565143D01*
X124365083Y-146621361D01*
X124302616Y-146675359D01*
X124239678Y-146727101D01*
X124220975Y-146741812D01*
X124198874Y-146758885D01*
X124151373Y-146794927D01*
X124110957Y-146824836D01*
X124097712Y-146834245D01*
X124093584Y-146836995D01*
X124091406Y-146838226D01*
X124090993Y-146838415D01*
X124090591Y-146838624D01*
X124090200Y-146838851D01*
X124089823Y-146839094D01*
X124089464Y-146839349D01*
X124089123Y-146839615D01*
X124088804Y-146839890D01*
X124088509Y-146840170D01*
X124088239Y-146840454D01*
X124087998Y-146840740D01*
X124087788Y-146841025D01*
X124087695Y-146841166D01*
X124087611Y-146841306D01*
X124087535Y-146841445D01*
X124087469Y-146841582D01*
X124087412Y-146841717D01*
X124087364Y-146841850D01*
X124087327Y-146841980D01*
X124087300Y-146842108D01*
X124087284Y-146842232D01*
X124087278Y-146842353D01*
X124087912Y-146843778D01*
X124089729Y-146846967D01*
X124096406Y-146857831D01*
X124106299Y-146873339D01*
X124118393Y-146891883D01*
X124157617Y-146952479D01*
X124194813Y-147012619D01*
X124230004Y-147072353D01*
X124263208Y-147131729D01*
X124294446Y-147190799D01*
X124323737Y-147249612D01*
X124351102Y-147308217D01*
X124376561Y-147366665D01*
X124400133Y-147425004D01*
X124421839Y-147483286D01*
X124441698Y-147541559D01*
X124459731Y-147599873D01*
X124475957Y-147658279D01*
X124490397Y-147716826D01*
X124503071Y-147775563D01*
X124513998Y-147834541D01*
X124526409Y-147918057D01*
X124537682Y-148016121D01*
X124547809Y-148128606D01*
X124556782Y-148255387D01*
X124564594Y-148396336D01*
X124571238Y-148551326D01*
X124580991Y-148902928D01*
X124585913Y-149136237D01*
X124591195Y-149332853D01*
X124597260Y-149500045D01*
X124604526Y-149645084D01*
X124613414Y-149775241D01*
X124624344Y-149897785D01*
X124637738Y-150019986D01*
X124654016Y-150149116D01*
X124663651Y-150223720D01*
X124671925Y-150292501D01*
X124678963Y-150356870D01*
X124684893Y-150418236D01*
X124689840Y-150478010D01*
X124693932Y-150537602D01*
X124697294Y-150598421D01*
X124700053Y-150661878D01*
X124702097Y-150732366D01*
X124702881Y-150802083D01*
X124702416Y-150870935D01*
X124700713Y-150938827D01*
X124697784Y-151005667D01*
X124693640Y-151071360D01*
X124688294Y-151135812D01*
X124681757Y-151198929D01*
X124674041Y-151260618D01*
X124665156Y-151320784D01*
X124655115Y-151379333D01*
X124643930Y-151436171D01*
X124631612Y-151491205D01*
X124618172Y-151544341D01*
X124603623Y-151595484D01*
X124587976Y-151644541D01*
X124574491Y-151682341D01*
X124559434Y-151720904D01*
X124542866Y-151760128D01*
X124524843Y-151799912D01*
X124505425Y-151840156D01*
X124484670Y-151880759D01*
X124462638Y-151921619D01*
X124439386Y-151962636D01*
X124414973Y-152003709D01*
X124389458Y-152044736D01*
X124362899Y-152085618D01*
X124335355Y-152126253D01*
X124306884Y-152166539D01*
X124277546Y-152206377D01*
X124247399Y-152245666D01*
X124216501Y-152284303D01*
X124159410Y-152351746D01*
X124099651Y-152417929D01*
X124037334Y-152482771D01*
X123972566Y-152546186D01*
X123905457Y-152608093D01*
X123836113Y-152668408D01*
X123764644Y-152727048D01*
X123691157Y-152783929D01*
X123615762Y-152838969D01*
X123538567Y-152892083D01*
X123459680Y-152943189D01*
X123379209Y-152992204D01*
X123297263Y-153039044D01*
X123213949Y-153083626D01*
X123129378Y-153125866D01*
X123043656Y-153165683D01*
X122930540Y-153214352D01*
X122813749Y-153260790D01*
X122693509Y-153304945D01*
X122570045Y-153346767D01*
X122443583Y-153386203D01*
X122314346Y-153423204D01*
X122048452Y-153489691D01*
X121774165Y-153545821D01*
X121493284Y-153591182D01*
X121207611Y-153625367D01*
X120918946Y-153647965D01*
X120834771Y-153652341D01*
X120755667Y-153655466D01*
X120679949Y-153657341D01*
X120605931Y-153657966D01*
X120531928Y-153657341D01*
X120456255Y-153655466D01*
X120377225Y-153652341D01*
X120293154Y-153647965D01*
X120148504Y-153638140D01*
X120004384Y-153625367D01*
X119861019Y-153609697D01*
X119718633Y-153591182D01*
X119577450Y-153569873D01*
X119437695Y-153545821D01*
X119299594Y-153519076D01*
X119163370Y-153489691D01*
X119029248Y-153457717D01*
X118897453Y-153423204D01*
X118768209Y-153386203D01*
X118641742Y-153346767D01*
X118518275Y-153304945D01*
X118398034Y-153260790D01*
X118281243Y-153214352D01*
X118168126Y-153165683D01*
X118105788Y-153136986D01*
X118043839Y-153106888D01*
X117982357Y-153075440D01*
X117921419Y-153042691D01*
X117861102Y-153008692D01*
X117801484Y-152973493D01*
X117742642Y-152937145D01*
X117684653Y-152899697D01*
X117627594Y-152861200D01*
X117571543Y-152821704D01*
X117516576Y-152781259D01*
X117462770Y-152739915D01*
X117410204Y-152697723D01*
X117358954Y-152654733D01*
X117309097Y-152610995D01*
X117260711Y-152566560D01*
X117219913Y-152527584D01*
X117180368Y-152488499D01*
X117142048Y-152449272D01*
X117104928Y-152409869D01*
X117068980Y-152370255D01*
X117034176Y-152330398D01*
X117000491Y-152290262D01*
X116967897Y-152249814D01*
X116936367Y-152209021D01*
X116905874Y-152167847D01*
X116876391Y-152126259D01*
X116847892Y-152084223D01*
X116820349Y-152041706D01*
X116793735Y-151998672D01*
X116768023Y-151955089D01*
X116743186Y-151910922D01*
X116721015Y-151869283D01*
X116700195Y-151827732D01*
X116680684Y-151786130D01*
X116662442Y-151744334D01*
X116645428Y-151702204D01*
X116629601Y-151659597D01*
X116614919Y-151616372D01*
X116601343Y-151572389D01*
X116588831Y-151527505D01*
X116577342Y-151481579D01*
X116566836Y-151434470D01*
X116557270Y-151386036D01*
X116548605Y-151336136D01*
X116540800Y-151284629D01*
X116527604Y-151176228D01*
X116517310Y-151058322D01*
X116510975Y-150939794D01*
X116508628Y-150819459D01*
X116510300Y-150696128D01*
X116516020Y-150568615D01*
X116525818Y-150435733D01*
X116539723Y-150296296D01*
X116557766Y-150149116D01*
X116574044Y-150019986D01*
X116587438Y-149897785D01*
X116598369Y-149775241D01*
X116607257Y-149645084D01*
X116614523Y-149500045D01*
X116620587Y-149332853D01*
X116630791Y-148902928D01*
X116635076Y-148720233D01*
X116640545Y-148551326D01*
X116647189Y-148396336D01*
X116655001Y-148255387D01*
X116663974Y-148128606D01*
X116674100Y-148016121D01*
X116685373Y-147918057D01*
X116697784Y-147834541D01*
X116708711Y-147775563D01*
X116721385Y-147716826D01*
X116735825Y-147658279D01*
X116752052Y-147599873D01*
X116770085Y-147541559D01*
X116789944Y-147483286D01*
X116811650Y-147425004D01*
X116835222Y-147366665D01*
X116860680Y-147308217D01*
X116888045Y-147249612D01*
X116917336Y-147190799D01*
X116948574Y-147131729D01*
X116981778Y-147072353D01*
X117016969Y-147012619D01*
X117054166Y-146952479D01*
X117093389Y-146891883D01*
X117099648Y-146882332D01*
X117105484Y-146873339D01*
X117110768Y-146865105D01*
X117115376Y-146857831D01*
X117119180Y-146851718D01*
X117122053Y-146846967D01*
X117123870Y-146843778D01*
X117124343Y-146842833D01*
X117124504Y-146842353D01*
X117124498Y-146842232D01*
X117124482Y-146842108D01*
X117124455Y-146841980D01*
X117124418Y-146841850D01*
X117124372Y-146841717D01*
X117124315Y-146841582D01*
X117124176Y-146841306D01*
X117124004Y-146841025D01*
X117123801Y-146840740D01*
X117123569Y-146840454D01*
X117123313Y-146840170D01*
X117123035Y-146839890D01*
X117122737Y-146839615D01*
X117122422Y-146839349D01*
X117122093Y-146839094D01*
X117121753Y-146838851D01*
X117121404Y-146838624D01*
X117121051Y-146838415D01*
X117120694Y-146838226D01*
X117118812Y-146837183D01*
X117114989Y-146834649D01*
X117102438Y-146825804D01*
X117084886Y-146813089D01*
X117064179Y-146797903D01*
X116968355Y-146723750D01*
X116874016Y-146645015D01*
X116781180Y-146561724D01*
X116689866Y-146473900D01*
X116600092Y-146381568D01*
X116511878Y-146284753D01*
X116425240Y-146183480D01*
X116340199Y-146077774D01*
X116256773Y-145967658D01*
X116174980Y-145853158D01*
X116094840Y-145734298D01*
X116016369Y-145611103D01*
X115939588Y-145483598D01*
X115864515Y-145351807D01*
X115791168Y-145215755D01*
X115719566Y-145075466D01*
X115639444Y-144909390D01*
X115565192Y-144746030D01*
X115496313Y-144584054D01*
X115432308Y-144422130D01*
X115372679Y-144258926D01*
X115316927Y-144093111D01*
X115264589Y-143923467D01*
X115492529Y-143923467D01*
X115492752Y-144066133D01*
X115496131Y-144217372D01*
X115498919Y-144290681D01*
X115502396Y-144359503D01*
X115505889Y-144421416D01*
X115532241Y-144488091D01*
X115560682Y-144558020D01*
X115595226Y-144640094D01*
X115631852Y-144724906D01*
X115666544Y-144803051D01*
X115751033Y-144982777D01*
X115838227Y-145156319D01*
X115928033Y-145323507D01*
X116020358Y-145484168D01*
X116115109Y-145638132D01*
X116212192Y-145785227D01*
X116311516Y-145925283D01*
X116412986Y-146058129D01*
X116467444Y-146125589D01*
X116522252Y-146190950D01*
X116577442Y-146254238D01*
X116633044Y-146315482D01*
X116689088Y-146374709D01*
X116745606Y-146431947D01*
X116802628Y-146487225D01*
X116860185Y-146540569D01*
X116918308Y-146592009D01*
X116977026Y-146641571D01*
X117036372Y-146689285D01*
X117096375Y-146735177D01*
X117157067Y-146779276D01*
X117218478Y-146821609D01*
X117280638Y-146862205D01*
X117343579Y-146901091D01*
X117351005Y-146905627D01*
X117358164Y-146910110D01*
X117364876Y-146914430D01*
X117370963Y-146918474D01*
X117376246Y-146922131D01*
X117378531Y-146923780D01*
X117380548Y-146925290D01*
X117382274Y-146926648D01*
X117383688Y-146927839D01*
X117384767Y-146928850D01*
X117385489Y-146929666D01*
X117386073Y-146930428D01*
X117386633Y-146931280D01*
X117387168Y-146932217D01*
X117387677Y-146933233D01*
X117388157Y-146934321D01*
X117388609Y-146935476D01*
X117389029Y-146936691D01*
X117389418Y-146937960D01*
X117389773Y-146939278D01*
X117390093Y-146940639D01*
X117390377Y-146942035D01*
X117390623Y-146943462D01*
X117390831Y-146944913D01*
X117390997Y-146946382D01*
X117391122Y-146947863D01*
X117391204Y-146949351D01*
X117391144Y-146951613D01*
X117390966Y-146953816D01*
X117390674Y-146955957D01*
X117390271Y-146958032D01*
X117389759Y-146960041D01*
X117389142Y-146961981D01*
X117388424Y-146963848D01*
X117387607Y-146965642D01*
X117386695Y-146967360D01*
X117385691Y-146968999D01*
X117384597Y-146970557D01*
X117383418Y-146972032D01*
X117382157Y-146973421D01*
X117380816Y-146974723D01*
X117379399Y-146975934D01*
X117377908Y-146977053D01*
X117376349Y-146978076D01*
X117374722Y-146979003D01*
X117373032Y-146979830D01*
X117371282Y-146980555D01*
X117369476Y-146981176D01*
X117367615Y-146981690D01*
X117365704Y-146982096D01*
X117363745Y-146982391D01*
X117361742Y-146982572D01*
X117359698Y-146982637D01*
X117357617Y-146982584D01*
X117355500Y-146982410D01*
X117353353Y-146982114D01*
X117351177Y-146981693D01*
X117348976Y-146981144D01*
X117346754Y-146980466D01*
X117340812Y-146977750D01*
X117330055Y-146971893D01*
X117315444Y-146963477D01*
X117297938Y-146953081D01*
X117258082Y-146928673D01*
X117218166Y-146903313D01*
X117214237Y-146900794D01*
X117210543Y-146898473D01*
X117207083Y-146896349D01*
X117203854Y-146894418D01*
X117200854Y-146892679D01*
X117198080Y-146891130D01*
X117195531Y-146889767D01*
X117193203Y-146888589D01*
X117191095Y-146887593D01*
X117189204Y-146886778D01*
X117187528Y-146886139D01*
X117186064Y-146885677D01*
X117185411Y-146885510D01*
X117184811Y-146885387D01*
X117184262Y-146885306D01*
X117183765Y-146885268D01*
X117183320Y-146885272D01*
X117182926Y-146885317D01*
X117182582Y-146885404D01*
X117182289Y-146885533D01*
X117180517Y-146887414D01*
X117177327Y-146891590D01*
X117167302Y-146905893D01*
X117136926Y-146951732D01*
X117100895Y-147008049D01*
X117068941Y-147059841D01*
X117016285Y-147151764D01*
X116991790Y-147197327D01*
X116968502Y-147242661D01*
X116946409Y-147287794D01*
X116925497Y-147332754D01*
X116905756Y-147377569D01*
X116887173Y-147422267D01*
X116869735Y-147466875D01*
X116853432Y-147511422D01*
X116838251Y-147555936D01*
X116824179Y-147600444D01*
X116811204Y-147644974D01*
X116799316Y-147689555D01*
X116788500Y-147734214D01*
X116778747Y-147778978D01*
X116762990Y-147866319D01*
X116749194Y-147966214D01*
X116737207Y-148080857D01*
X116726875Y-148212445D01*
X116718046Y-148363172D01*
X116710568Y-148535233D01*
X116699054Y-148952141D01*
X116694345Y-149165697D01*
X116689306Y-149348227D01*
X116683634Y-149505106D01*
X116677027Y-149641711D01*
X116669186Y-149763418D01*
X116659808Y-149875604D01*
X116648592Y-149983645D01*
X116635236Y-150092918D01*
X116633188Y-150108372D01*
X116631347Y-150122852D01*
X116629745Y-150136037D01*
X116628410Y-150147607D01*
X116627373Y-150157243D01*
X116626664Y-150164623D01*
X116626312Y-150169429D01*
X116626279Y-150170767D01*
X116626346Y-150171340D01*
X116626693Y-150171404D01*
X116627365Y-150171361D01*
X116629611Y-150170968D01*
X116632943Y-150170196D01*
X116637221Y-150169078D01*
X116642302Y-150167648D01*
X116648045Y-150165938D01*
X116654310Y-150163983D01*
X116660954Y-150161816D01*
X116684400Y-150154817D01*
X116707953Y-150148942D01*
X116731623Y-150144190D01*
X116755420Y-150140563D01*
X116779355Y-150138059D01*
X116803438Y-150136678D01*
X116827679Y-150136421D01*
X116852089Y-150137288D01*
X116876677Y-150139279D01*
X116901454Y-150142393D01*
X116926430Y-150146631D01*
X116951615Y-150151993D01*
X116977020Y-150158478D01*
X117002655Y-150166087D01*
X117028529Y-150174819D01*
X117054654Y-150184676D01*
X117078022Y-150194347D01*
X117101223Y-150204793D01*
X117124271Y-150216021D01*
X117147175Y-150228039D01*
X117169950Y-150240855D01*
X117192606Y-150254478D01*
X117215157Y-150268914D01*
X117237613Y-150284172D01*
X117259988Y-150300260D01*
X117282293Y-150317185D01*
X117304540Y-150334956D01*
X117326742Y-150353581D01*
X117348910Y-150373066D01*
X117371056Y-150393422D01*
X117393194Y-150414654D01*
X117415334Y-150436771D01*
X117436123Y-150458447D01*
X117456471Y-150480504D01*
X117476387Y-150502959D01*
X117495885Y-150525830D01*
X117514975Y-150549131D01*
X117533669Y-150572881D01*
X117551979Y-150597097D01*
X117569917Y-150621794D01*
X117587493Y-150646989D01*
X117604721Y-150672700D01*
X117638174Y-150725735D01*
X117670370Y-150781032D01*
X117701401Y-150838726D01*
X117722632Y-150880931D01*
X117742750Y-150923376D01*
X117761756Y-150966069D01*
X117779655Y-151009019D01*
X117796449Y-151052236D01*
X117812141Y-151095727D01*
X117826733Y-151139502D01*
X117840228Y-151183570D01*
X117852630Y-151227939D01*
X117863940Y-151272618D01*
X117874162Y-151317616D01*
X117883299Y-151362943D01*
X117891353Y-151408605D01*
X117898327Y-151454614D01*
X117904224Y-151500977D01*
X117909046Y-151547703D01*
X117910609Y-151570964D01*
X117911725Y-151600319D01*
X117912395Y-151633707D01*
X117912618Y-151669067D01*
X117912395Y-151704338D01*
X117911725Y-151737458D01*
X117910609Y-151766367D01*
X117909046Y-151789002D01*
X117905184Y-151824804D01*
X117900503Y-151859701D01*
X117895002Y-151893697D01*
X117888682Y-151926797D01*
X117881541Y-151959005D01*
X117873579Y-151990322D01*
X117864795Y-152020755D01*
X117855190Y-152050305D01*
X117844763Y-152078978D01*
X117833513Y-152106776D01*
X117821440Y-152133703D01*
X117808543Y-152159764D01*
X117794822Y-152184961D01*
X117780276Y-152209299D01*
X117764905Y-152232781D01*
X117748709Y-152255410D01*
X117732173Y-152276557D01*
X117714965Y-152296650D01*
X117697103Y-152315678D01*
X117678606Y-152333629D01*
X117659493Y-152350492D01*
X117639783Y-152366256D01*
X117619496Y-152380907D01*
X117598650Y-152394435D01*
X117577265Y-152406829D01*
X117555359Y-152418076D01*
X117532952Y-152428165D01*
X117510063Y-152437085D01*
X117486710Y-152444823D01*
X117462914Y-152451368D01*
X117438692Y-152456708D01*
X117414064Y-152460833D01*
X117403683Y-152462129D01*
X117393526Y-152463165D01*
X117383279Y-152463947D01*
X117372630Y-152464484D01*
X117361267Y-152464783D01*
X117348877Y-152464851D01*
X117335148Y-152464696D01*
X117319766Y-152464325D01*
X117308170Y-152463927D01*
X117297125Y-152463457D01*
X117286883Y-152462936D01*
X117277698Y-152462381D01*
X117269822Y-152461811D01*
X117263509Y-152461245D01*
X117259012Y-152460701D01*
X117257524Y-152460443D01*
X117256584Y-152460198D01*
X117254532Y-152459493D01*
X117253040Y-152459188D01*
X117252514Y-152459197D01*
X117252141Y-152459319D01*
X117251923Y-152459558D01*
X117251866Y-152459920D01*
X117252248Y-152461027D01*
X117253319Y-152462676D01*
X117255111Y-152464901D01*
X117257655Y-152467738D01*
X117265132Y-152475391D01*
X117276006Y-152485915D01*
X117290533Y-152499595D01*
X117308971Y-152516713D01*
X117365180Y-152567648D01*
X117422378Y-152617116D01*
X117480587Y-152665131D01*
X117539829Y-152711707D01*
X117600125Y-152756858D01*
X117661499Y-152800598D01*
X117723971Y-152842941D01*
X117787563Y-152883901D01*
X117852297Y-152923492D01*
X117918196Y-152961727D01*
X117985281Y-152998621D01*
X118053573Y-153034188D01*
X118123095Y-153068441D01*
X118193869Y-153101395D01*
X118265916Y-153133063D01*
X118339259Y-153163460D01*
X118458101Y-153209388D01*
X118579624Y-153252853D01*
X118703688Y-153293827D01*
X118830153Y-153332281D01*
X118958881Y-153368187D01*
X119089732Y-153401515D01*
X119357243Y-153460323D01*
X119631571Y-153508475D01*
X119911598Y-153545740D01*
X120196210Y-153571888D01*
X120484289Y-153586688D01*
X120610210Y-153588482D01*
X120745254Y-153586340D01*
X120887531Y-153580403D01*
X121035151Y-153570812D01*
X121186224Y-153557709D01*
X121338860Y-153541235D01*
X121491168Y-153521532D01*
X121641259Y-153498740D01*
X121756250Y-153478916D01*
X121870342Y-153457113D01*
X121983328Y-153433399D01*
X122095001Y-153407841D01*
X122205154Y-153380506D01*
X122313580Y-153351462D01*
X122420073Y-153320776D01*
X122524425Y-153288516D01*
X122626429Y-153254749D01*
X122725878Y-153219542D01*
X122822565Y-153182964D01*
X122916284Y-153145080D01*
X123006827Y-153105960D01*
X123093988Y-153065670D01*
X123177559Y-153024278D01*
X123257334Y-152981851D01*
X123345871Y-152931288D01*
X123431815Y-152878812D01*
X123515340Y-152824298D01*
X123596622Y-152767618D01*
X123675835Y-152708646D01*
X123753154Y-152647255D01*
X123828755Y-152583320D01*
X123902811Y-152516713D01*
X123912535Y-152507706D01*
X123921249Y-152499595D01*
X123928986Y-152492343D01*
X123935777Y-152485915D01*
X123941654Y-152480276D01*
X123946650Y-152475391D01*
X123950797Y-152471223D01*
X123952562Y-152469398D01*
X123954127Y-152467738D01*
X123955496Y-152466241D01*
X123956672Y-152464901D01*
X123957660Y-152463714D01*
X123958464Y-152462676D01*
X123959087Y-152461782D01*
X123959534Y-152461027D01*
X123959693Y-152460701D01*
X123959810Y-152460408D01*
X123959884Y-152460148D01*
X123959917Y-152459920D01*
X123959908Y-152459724D01*
X123959859Y-152459558D01*
X123959770Y-152459424D01*
X123959642Y-152459319D01*
X123959475Y-152459243D01*
X123959268Y-152459197D01*
X123959024Y-152459179D01*
X123958743Y-152459188D01*
X123958069Y-152459288D01*
X123957251Y-152459493D01*
X123956293Y-152459798D01*
X123955199Y-152460198D01*
X123952770Y-152460701D01*
X123948273Y-152461245D01*
X123941960Y-152461811D01*
X123934085Y-152462381D01*
X123914658Y-152463457D01*
X123892016Y-152464325D01*
X123876635Y-152464696D01*
X123862905Y-152464851D01*
X123850515Y-152464783D01*
X123839152Y-152464484D01*
X123828503Y-152463947D01*
X123818256Y-152463165D01*
X123808099Y-152462129D01*
X123797718Y-152460833D01*
X123765493Y-152455183D01*
X123733976Y-152447428D01*
X123703211Y-152437602D01*
X123673244Y-152425744D01*
X123644119Y-152411890D01*
X123615882Y-152396076D01*
X123588578Y-152378339D01*
X123562253Y-152358717D01*
X123536950Y-152337245D01*
X123512716Y-152313961D01*
X123489595Y-152288902D01*
X123467633Y-152262103D01*
X123446874Y-152233602D01*
X123427364Y-152203436D01*
X123409148Y-152171640D01*
X123392271Y-152138253D01*
X123383560Y-152119179D01*
X123375284Y-152099806D01*
X123367439Y-152080121D01*
X123360020Y-152060108D01*
X123353023Y-152039754D01*
X123346445Y-152019042D01*
X123340280Y-151997958D01*
X123334526Y-151976487D01*
X123324229Y-151932325D01*
X123315520Y-151886436D01*
X123308367Y-151838701D01*
X123302736Y-151789002D01*
X123301174Y-151766367D01*
X123300057Y-151737458D01*
X123299388Y-151704338D01*
X123299164Y-151669067D01*
X123299388Y-151633707D01*
X123300057Y-151600319D01*
X123301174Y-151570964D01*
X123302736Y-151547703D01*
X123306819Y-151507285D01*
X123311689Y-151467214D01*
X123317352Y-151427468D01*
X123323815Y-151388020D01*
X123331084Y-151348849D01*
X123339164Y-151309928D01*
X123348061Y-151271234D01*
X123357783Y-151232743D01*
X123368334Y-151194431D01*
X123379720Y-151156273D01*
X123391949Y-151118245D01*
X123405026Y-151080323D01*
X123418956Y-151042483D01*
X123433746Y-151004701D01*
X123449403Y-150966952D01*
X123465931Y-150929212D01*
X123497162Y-150863370D01*
X123530635Y-150799409D01*
X123566213Y-150737479D01*
X123603756Y-150677728D01*
X123643126Y-150620304D01*
X123684184Y-150565356D01*
X123726791Y-150513032D01*
X123770810Y-150463480D01*
X123816102Y-150416849D01*
X123862527Y-150373287D01*
X123909947Y-150332943D01*
X123958225Y-150295964D01*
X124007220Y-150262500D01*
X124056795Y-150232698D01*
X124106810Y-150206707D01*
X124157128Y-150184676D01*
X124183253Y-150174819D01*
X124209127Y-150166087D01*
X124234762Y-150158478D01*
X124260167Y-150151993D01*
X124285352Y-150146631D01*
X124310328Y-150142393D01*
X124335105Y-150139279D01*
X124359693Y-150137288D01*
X124384103Y-150136421D01*
X124408344Y-150136678D01*
X124432427Y-150138059D01*
X124456362Y-150140563D01*
X124480159Y-150144190D01*
X124503829Y-150148942D01*
X124527382Y-150154817D01*
X124550828Y-150161816D01*
X124557472Y-150163983D01*
X124563736Y-150165938D01*
X124569480Y-150167648D01*
X124574561Y-150169078D01*
X124578839Y-150170196D01*
X124582171Y-150170968D01*
X124583439Y-150171214D01*
X124584417Y-150171361D01*
X124585089Y-150171404D01*
X124585304Y-150171386D01*
X124585436Y-150171340D01*
X124585470Y-150169429D01*
X124585118Y-150164623D01*
X124583372Y-150147607D01*
X124580435Y-150122852D01*
X124576546Y-150092918D01*
X124563190Y-149983645D01*
X124551974Y-149875604D01*
X124542596Y-149763418D01*
X124534755Y-149641711D01*
X124528149Y-149505106D01*
X124522477Y-149348227D01*
X124512728Y-148952141D01*
X124508253Y-148755420D01*
X124503362Y-148587095D01*
X124497994Y-148444131D01*
X124492090Y-148323491D01*
X124483538Y-148197041D01*
X124473200Y-148074134D01*
X124467621Y-148017013D01*
X124461909Y-147964383D01*
X124456166Y-147917446D01*
X124450498Y-147877403D01*
X124441867Y-147825729D01*
X124431914Y-147774375D01*
X124420619Y-147723288D01*
X124407963Y-147672417D01*
X124393928Y-147621710D01*
X124378492Y-147571115D01*
X124361636Y-147520579D01*
X124343342Y-147470051D01*
X124323589Y-147419478D01*
X124302359Y-147368808D01*
X124279630Y-147317989D01*
X124255385Y-147266970D01*
X124229602Y-147215697D01*
X124202264Y-147164120D01*
X124173350Y-147112185D01*
X124142840Y-147059841D01*
X124127982Y-147035448D01*
X124110887Y-147008049D01*
X124092773Y-146979518D01*
X124074856Y-146951732D01*
X124058353Y-146926565D01*
X124044480Y-146905893D01*
X124034455Y-146891590D01*
X124031265Y-146887414D01*
X124029493Y-146885533D01*
X124028857Y-146885317D01*
X124028017Y-146885268D01*
X124026972Y-146885387D01*
X124025718Y-146885677D01*
X124024255Y-146886139D01*
X124022579Y-146886778D01*
X124020688Y-146887593D01*
X124018580Y-146888589D01*
X124013702Y-146891130D01*
X124007928Y-146894418D01*
X124001239Y-146898473D01*
X123993616Y-146903313D01*
X123974131Y-146915822D01*
X123953700Y-146928673D01*
X123933285Y-146941287D01*
X123913844Y-146953081D01*
X123896338Y-146963477D01*
X123881727Y-146971893D01*
X123870970Y-146977750D01*
X123867337Y-146979536D01*
X123865028Y-146980466D01*
X123862806Y-146981144D01*
X123860605Y-146981693D01*
X123858429Y-146982114D01*
X123856281Y-146982410D01*
X123854165Y-146982584D01*
X123852084Y-146982637D01*
X123850040Y-146982572D01*
X123848037Y-146982391D01*
X123846078Y-146982096D01*
X123844167Y-146981690D01*
X123842306Y-146981176D01*
X123840500Y-146980555D01*
X123838750Y-146979830D01*
X123837060Y-146979003D01*
X123835434Y-146978076D01*
X123833874Y-146977053D01*
X123832384Y-146975934D01*
X123830967Y-146974723D01*
X123829626Y-146973421D01*
X123828364Y-146972032D01*
X123827185Y-146970557D01*
X123826092Y-146968999D01*
X123825087Y-146967360D01*
X123824175Y-146965642D01*
X123823358Y-146963848D01*
X123822640Y-146961981D01*
X123822023Y-146960041D01*
X123821512Y-146958032D01*
X123821108Y-146955957D01*
X123820816Y-146953816D01*
X123820638Y-146951613D01*
X123820579Y-146949351D01*
X123820660Y-146947863D01*
X123820785Y-146946382D01*
X123820952Y-146944913D01*
X123821159Y-146943462D01*
X123821405Y-146942035D01*
X123821689Y-146940639D01*
X123822009Y-146939278D01*
X123822364Y-146937960D01*
X123822753Y-146936691D01*
X123823174Y-146935476D01*
X123823625Y-146934321D01*
X123824106Y-146933233D01*
X123824614Y-146932217D01*
X123825149Y-146931280D01*
X123825710Y-146930428D01*
X123826294Y-146929666D01*
X123827015Y-146928850D01*
X123828094Y-146927839D01*
X123831234Y-146925290D01*
X123835535Y-146922131D01*
X123840819Y-146918474D01*
X123846906Y-146914430D01*
X123853618Y-146910110D01*
X123860777Y-146905627D01*
X123868203Y-146901091D01*
X123970560Y-146836637D01*
X124071294Y-146767219D01*
X124170406Y-146692837D01*
X124267896Y-146613490D01*
X124363764Y-146529178D01*
X124458009Y-146439900D01*
X124550632Y-146345656D01*
X124641633Y-146246445D01*
X124731012Y-146142267D01*
X124818769Y-146033122D01*
X124904903Y-145919008D01*
X124989415Y-145799926D01*
X125072305Y-145675875D01*
X125153572Y-145546855D01*
X125233218Y-145412864D01*
X125311241Y-145273904D01*
X125359766Y-145183035D01*
X125409105Y-145086782D01*
X125458497Y-144986786D01*
X125507178Y-144884688D01*
X125554386Y-144782129D01*
X125599357Y-144680749D01*
X125641330Y-144582189D01*
X125679541Y-144488091D01*
X125705893Y-144421416D01*
X125709387Y-144359503D01*
X125712863Y-144290681D01*
X125715652Y-144217372D01*
X125717718Y-144141786D01*
X125719030Y-144066133D01*
X125719552Y-143992623D01*
X125719253Y-143923467D01*
X125718098Y-143860873D01*
X125716053Y-143807053D01*
X125710764Y-143719554D01*
X125703919Y-143634122D01*
X125695484Y-143550605D01*
X125685420Y-143468851D01*
X125673691Y-143388711D01*
X125660260Y-143310033D01*
X125645090Y-143232665D01*
X125628146Y-143156456D01*
X125609389Y-143081256D01*
X125588784Y-143006913D01*
X125566293Y-142933276D01*
X125541880Y-142860194D01*
X125515508Y-142787516D01*
X125487140Y-142715090D01*
X125456740Y-142642765D01*
X125424270Y-142570391D01*
X125412678Y-142545542D01*
X125402433Y-142523882D01*
X125393541Y-142505444D01*
X125386012Y-142490262D01*
X125382760Y-142483902D01*
X125379852Y-142478369D01*
X125377287Y-142473666D01*
X125375068Y-142469798D01*
X125373195Y-142466769D01*
X125371669Y-142464583D01*
X125371036Y-142463808D01*
X125370490Y-142463245D01*
X125370032Y-142462895D01*
X125369661Y-142462758D01*
X125354815Y-142477825D01*
X125317988Y-142520191D01*
X125196068Y-142665522D01*
X125039262Y-142856156D01*
X124882933Y-143049498D01*
X124556267Y-143466743D01*
X124245979Y-143879880D01*
X123954369Y-144285456D01*
X123683736Y-144680019D01*
X123436380Y-145060116D01*
X123214600Y-145422295D01*
X123020695Y-145763101D01*
X122934915Y-145924411D01*
X122856966Y-146079083D01*
X122845918Y-146101463D01*
X122835912Y-146121380D01*
X122827007Y-146138722D01*
X122819263Y-146153378D01*
X122812740Y-146165236D01*
X122809954Y-146170081D01*
X122807496Y-146174185D01*
X122805373Y-146177533D01*
X122803592Y-146180112D01*
X122802160Y-146181907D01*
X122801578Y-146182507D01*
X122801086Y-146182906D01*
X122800131Y-146183540D01*
X122799113Y-146184130D01*
X122798037Y-146184679D01*
X122796907Y-146185184D01*
X122794503Y-146186069D01*
X122791938Y-146186785D01*
X122789247Y-146187334D01*
X122786464Y-146187717D01*
X122783625Y-146187934D01*
X122780766Y-146187986D01*
X122777922Y-146187874D01*
X122775128Y-146187600D01*
X122772420Y-146187164D01*
X122769832Y-146186567D01*
X122767401Y-146185810D01*
X122765162Y-146184894D01*
X122764125Y-146184376D01*
X122763149Y-146183819D01*
X122762239Y-146183223D01*
X122761399Y-146182588D01*
X122759829Y-146181294D01*
X122758337Y-146179918D01*
X122756926Y-146178467D01*
X122755599Y-146176947D01*
X122754360Y-146175366D01*
X122753211Y-146173731D01*
X122752156Y-146172048D01*
X122751199Y-146170325D01*
X122750342Y-146168568D01*
X122749588Y-146166785D01*
X122748942Y-146164982D01*
X122748406Y-146163167D01*
X122747983Y-146161346D01*
X122747677Y-146159526D01*
X122747491Y-146157715D01*
X122747429Y-146155919D01*
X122747601Y-146154801D01*
X122748106Y-146153023D01*
X122750048Y-146147634D01*
X122753121Y-146140057D01*
X122757192Y-146130598D01*
X122767788Y-146107252D01*
X122780766Y-146080036D01*
X122793744Y-146053217D01*
X122804340Y-146030982D01*
X122811484Y-146015653D01*
X122813426Y-146011303D01*
X122814103Y-146009551D01*
X122811620Y-146008017D01*
X122804449Y-146005165D01*
X122777710Y-145996018D01*
X122686310Y-145967482D01*
X122566573Y-145932041D01*
X122445169Y-145897791D01*
X122267120Y-145851010D01*
X122089425Y-145808340D01*
X121912407Y-145769845D01*
X121736389Y-145735588D01*
X121561697Y-145705632D01*
X121388653Y-145680040D01*
X121217580Y-145658876D01*
X121048804Y-145642203D01*
X120939357Y-145633340D01*
X120840519Y-145626720D01*
X120749352Y-145622296D01*
X120662922Y-145620018D01*
X120578293Y-145619839D01*
X120492529Y-145621709D01*
X120402694Y-145625582D01*
X120305853Y-145631408D01*
X120117655Y-145646500D01*
X119928321Y-145666780D01*
X119737820Y-145692253D01*
X119546116Y-145722928D01*
X119353177Y-145758811D01*
X119158969Y-145799912D01*
X118963459Y-145846236D01*
X118766614Y-145897791D01*
X118707370Y-145914261D01*
X118645210Y-145932041D01*
X118525472Y-145967482D01*
X118474563Y-145983119D01*
X118434072Y-145996018D01*
X118407333Y-146005165D01*
X118400162Y-146008017D01*
X118397679Y-146009551D01*
X118400298Y-146015653D01*
X118407442Y-146030982D01*
X118418038Y-146053217D01*
X118431016Y-146080036D01*
X118437736Y-146093975D01*
X118443994Y-146107252D01*
X118449657Y-146119561D01*
X118454591Y-146130598D01*
X118458661Y-146140057D01*
X118461734Y-146147634D01*
X118462855Y-146150621D01*
X118463677Y-146153023D01*
X118464182Y-146154801D01*
X118464354Y-146155919D01*
X118464291Y-146157715D01*
X118464105Y-146159526D01*
X118463799Y-146161346D01*
X118463377Y-146163167D01*
X118462840Y-146164982D01*
X118462194Y-146166785D01*
X118461441Y-146168568D01*
X118460583Y-146170325D01*
X118459626Y-146172048D01*
X118458571Y-146173731D01*
X118457422Y-146175366D01*
X118456183Y-146176947D01*
X118454856Y-146178467D01*
X118453445Y-146179918D01*
X118451953Y-146181294D01*
X118450384Y-146182588D01*
X118449543Y-146183223D01*
X118448633Y-146183819D01*
X118447658Y-146184376D01*
X118446621Y-146184894D01*
X118444381Y-146185810D01*
X118441950Y-146186567D01*
X118439363Y-146187164D01*
X118436654Y-146187600D01*
X118433860Y-146187874D01*
X118431016Y-146187986D01*
X118428157Y-146187934D01*
X118425319Y-146187717D01*
X118422536Y-146187334D01*
X118419844Y-146186785D01*
X118417279Y-146186069D01*
X118414876Y-146185184D01*
X118412670Y-146184130D01*
X118411652Y-146183540D01*
X118410696Y-146182906D01*
X118409622Y-146181907D01*
X118408191Y-146180112D01*
X118404287Y-146174185D01*
X118399043Y-146165236D01*
X118392519Y-146153378D01*
X118384775Y-146138722D01*
X118375871Y-146121380D01*
X118354816Y-146079083D01*
X118232787Y-145840168D01*
X118093846Y-145587881D01*
X117938319Y-145322750D01*
X117766528Y-145045303D01*
X117578799Y-144756069D01*
X117375453Y-144455577D01*
X117156815Y-144144354D01*
X116923209Y-143822928D01*
X116798093Y-143655057D01*
X116667492Y-143483000D01*
X116398143Y-143136850D01*
X116263547Y-142968019D01*
X116131771Y-142805524D01*
X116004891Y-142651996D01*
X115884984Y-142510066D01*
X115857719Y-142477879D01*
X115848863Y-142467516D01*
X115844979Y-142463076D01*
X115844856Y-142462962D01*
X115844726Y-142462860D01*
X115844590Y-142462769D01*
X115844448Y-142462688D01*
X115844299Y-142462619D01*
X115844145Y-142462560D01*
X115843986Y-142462513D01*
X115843823Y-142462476D01*
X115843655Y-142462449D01*
X115843484Y-142462434D01*
X115843309Y-142462429D01*
X115843132Y-142462434D01*
X115842951Y-142462450D01*
X115842769Y-142462476D01*
X115842585Y-142462513D01*
X115842399Y-142462560D01*
X115842213Y-142462617D01*
X115842026Y-142462685D01*
X115841839Y-142462762D01*
X115841652Y-142462850D01*
X115841466Y-142462947D01*
X115841281Y-142463055D01*
X115841098Y-142463172D01*
X115840916Y-142463299D01*
X115840737Y-142463436D01*
X115840560Y-142463583D01*
X115840387Y-142463739D01*
X115840217Y-142463905D01*
X115840051Y-142464080D01*
X115839890Y-142464265D01*
X115839733Y-142464460D01*
X115839581Y-142464663D01*
X115836811Y-142468997D01*
X115832423Y-142477006D01*
X115819460Y-142502684D01*
X115802032Y-142538958D01*
X115781479Y-142583091D01*
X115749911Y-142654182D01*
X115720314Y-142725382D01*
X115692658Y-142796822D01*
X115666911Y-142868633D01*
X115643043Y-142940946D01*
X115621024Y-143013892D01*
X115600822Y-143087604D01*
X115582406Y-143162211D01*
X115565747Y-143237845D01*
X115550814Y-143314637D01*
X115537575Y-143392718D01*
X115526001Y-143472220D01*
X115516059Y-143553273D01*
X115507721Y-143636009D01*
X115495729Y-143807053D01*
X115493684Y-143860873D01*
X115492529Y-143923467D01*
X115264589Y-143923467D01*
X115264553Y-143923351D01*
X115215059Y-143748316D01*
X115164405Y-143551026D01*
X115117839Y-143348896D01*
X115075583Y-143143246D01*
X115037854Y-142935397D01*
X115004873Y-142726670D01*
X114976860Y-142518385D01*
X114954032Y-142311865D01*
X114936611Y-142108429D01*
X114932926Y-142052697D01*
X114931650Y-142026220D01*
X114930698Y-141998573D01*
X114929602Y-141933496D01*
X114929309Y-141844904D01*
X114929298Y-141785636D01*
X114929582Y-141738253D01*
X114929870Y-141718425D01*
X114930275Y-141700856D01*
X114930810Y-141685310D01*
X114931492Y-141671548D01*
X114932333Y-141659335D01*
X114933349Y-141648432D01*
X114934554Y-141638602D01*
X114935962Y-141629609D01*
X114937587Y-141621214D01*
X114939445Y-141613182D01*
X114941549Y-141605274D01*
X114943914Y-141597254D01*
X114945376Y-141592778D01*
X114946907Y-141588517D01*
X114948506Y-141584471D01*
X114950175Y-141580639D01*
X114951914Y-141577022D01*
X114953725Y-141573618D01*
X114955609Y-141570427D01*
X114957566Y-141567448D01*
X114959598Y-141564682D01*
X114961705Y-141562127D01*
X114962787Y-141560929D01*
X114963888Y-141559783D01*
X114965009Y-141558691D01*
X114966149Y-141557650D01*
X114967308Y-141556663D01*
X114968488Y-141555728D01*
X114969686Y-141554845D01*
X114970905Y-141554015D01*
X114972144Y-141553237D01*
X114973403Y-141552511D01*
X114974682Y-141551837D01*
X114975981Y-141551216D01*
X114978956Y-141550021D01*
X114982260Y-141549053D01*
X114985857Y-141548308D01*
X114989713Y-141547783D01*
X114993793Y-141547474D01*
X114998060Y-141547376D01*
X115002480Y-141547487D01*
X115007017Y-141547803D01*
X115011636Y-141548319D01*
X115016302Y-141549033D01*
X115020978Y-141549940D01*
X115025631Y-141551037D01*
X115030223Y-141552320D01*
X115034721Y-141553786D01*
X115039089Y-141555429D01*
X115043291Y-141557248D01*
X115084142Y-141580812D01*
X115135303Y-141618644D01*
X115196131Y-141670034D01*
X115265983Y-141734269D01*
X115430187Y-141898435D01*
X115622769Y-142105452D01*
X115838582Y-142349631D01*
X116072483Y-142625284D01*
X116319323Y-142926721D01*
X116573959Y-143248253D01*
X116849631Y-143608329D01*
X117112761Y-143964538D01*
X117361552Y-144314207D01*
X117594205Y-144654659D01*
X117808925Y-144983220D01*
X118003914Y-145297215D01*
X118177375Y-145593967D01*
X118327511Y-145870803D01*
X118341590Y-145897493D01*
X118353467Y-145919778D01*
X118361890Y-145935276D01*
X118364417Y-145939736D01*
X118365190Y-145941013D01*
X118365611Y-145941606D01*
X118366216Y-145941801D01*
X118367413Y-145941795D01*
X118371455Y-145941214D01*
X118377477Y-145939926D01*
X118385217Y-145937994D01*
X118394416Y-145935482D01*
X118404813Y-145932453D01*
X118416147Y-145928969D01*
X118428159Y-145925095D01*
X118641996Y-145860193D01*
X118858580Y-145800864D01*
X119077023Y-145747295D01*
X119296442Y-145699671D01*
X119515950Y-145658179D01*
X119734661Y-145623004D01*
X119951691Y-145594334D01*
X120166153Y-145572353D01*
X120271922Y-145563790D01*
X120368351Y-145557361D01*
X120458099Y-145553032D01*
X120543820Y-145550763D01*
X120628172Y-145550519D01*
X120713811Y-145552261D01*
X120803395Y-145555953D01*
X120899579Y-145561558D01*
X121129185Y-145580330D01*
X121362866Y-145607199D01*
X121599426Y-145641925D01*
X121837672Y-145684272D01*
X122076409Y-145734000D01*
X122314443Y-145790873D01*
X122550579Y-145854650D01*
X122783624Y-145925095D01*
X122795636Y-145928969D01*
X122806970Y-145932453D01*
X122817367Y-145935482D01*
X122826566Y-145937994D01*
X122834306Y-145939926D01*
X122837548Y-145940655D01*
X122840327Y-145941214D01*
X122842612Y-145941597D01*
X122844369Y-145941795D01*
X122845567Y-145941801D01*
X122845945Y-145941729D01*
X122846171Y-145941606D01*
X122847366Y-145939736D01*
X122849892Y-145935276D01*
X122858315Y-145919778D01*
X122884271Y-145870803D01*
X123034407Y-145593967D01*
X123207868Y-145297215D01*
X123402857Y-144983220D01*
X123617577Y-144654659D01*
X123850231Y-144314207D01*
X124099021Y-143964538D01*
X124362151Y-143608329D01*
X124637824Y-143248253D01*
X124840622Y-142991520D01*
X125043867Y-142740769D01*
X125241337Y-142503651D01*
X125426812Y-142287816D01*
X125543049Y-142156548D01*
X125651685Y-142036877D01*
X125752292Y-141929239D01*
X125844442Y-141834069D01*
X125927707Y-141751802D01*
X125965874Y-141715644D01*
X126001659Y-141682874D01*
X126035009Y-141653548D01*
X126065870Y-141627720D01*
X126094189Y-141605445D01*
X126119913Y-141586776D01*
X126126885Y-141581960D01*
X126133530Y-141577505D01*
X126139869Y-141573402D01*
X126145923Y-141569641D01*
X126151715Y-141566211D01*
X126157267Y-141563101D01*
X126162600Y-141560302D01*
X126167737Y-141557804D01*
X126172698Y-141555596D01*
X126177507Y-141553668D01*
X126182184Y-141552010D01*
X126186752Y-141550611D01*
X126191232Y-141549461D01*
X126195647Y-141548551D01*
X126200019Y-141547869D01*
X126204368Y-141547406D01*
X126210498Y-141547073D01*
X126213431Y-141547060D01*
X126216277Y-141547152D01*
G37*
D34*
X118174333Y-161425819D02*
X117841000Y-160949628D01*
X117602905Y-161425819D02*
X117602905Y-160425819D01*
X117602905Y-160425819D02*
X117983857Y-160425819D01*
X117983857Y-160425819D02*
X118079095Y-160473438D01*
X118079095Y-160473438D02*
X118126714Y-160521057D01*
X118126714Y-160521057D02*
X118174333Y-160616295D01*
X118174333Y-160616295D02*
X118174333Y-160759152D01*
X118174333Y-160759152D02*
X118126714Y-160854390D01*
X118126714Y-160854390D02*
X118079095Y-160902009D01*
X118079095Y-160902009D02*
X117983857Y-160949628D01*
X117983857Y-160949628D02*
X117602905Y-160949628D01*
X119126714Y-161425819D02*
X118555286Y-161425819D01*
X118841000Y-161425819D02*
X118841000Y-160425819D01*
X118841000Y-160425819D02*
X118745762Y-160568676D01*
X118745762Y-160568676D02*
X118650524Y-160663914D01*
X118650524Y-160663914D02*
X118555286Y-160711533D01*
X157174333Y-166165819D02*
X156841000Y-165689628D01*
X156602905Y-166165819D02*
X156602905Y-165165819D01*
X156602905Y-165165819D02*
X156983857Y-165165819D01*
X156983857Y-165165819D02*
X157079095Y-165213438D01*
X157079095Y-165213438D02*
X157126714Y-165261057D01*
X157126714Y-165261057D02*
X157174333Y-165356295D01*
X157174333Y-165356295D02*
X157174333Y-165499152D01*
X157174333Y-165499152D02*
X157126714Y-165594390D01*
X157126714Y-165594390D02*
X157079095Y-165642009D01*
X157079095Y-165642009D02*
X156983857Y-165689628D01*
X156983857Y-165689628D02*
X156602905Y-165689628D01*
X157507667Y-165165819D02*
X158126714Y-165165819D01*
X158126714Y-165165819D02*
X157793381Y-165546771D01*
X157793381Y-165546771D02*
X157936238Y-165546771D01*
X157936238Y-165546771D02*
X158031476Y-165594390D01*
X158031476Y-165594390D02*
X158079095Y-165642009D01*
X158079095Y-165642009D02*
X158126714Y-165737247D01*
X158126714Y-165737247D02*
X158126714Y-165975342D01*
X158126714Y-165975342D02*
X158079095Y-166070580D01*
X158079095Y-166070580D02*
X158031476Y-166118200D01*
X158031476Y-166118200D02*
X157936238Y-166165819D01*
X157936238Y-166165819D02*
X157650524Y-166165819D01*
X157650524Y-166165819D02*
X157555286Y-166118200D01*
X157555286Y-166118200D02*
X157507667Y-166070580D01*
X137745761Y-145861057D02*
X137650523Y-145813438D01*
X137650523Y-145813438D02*
X137555285Y-145718200D01*
X137555285Y-145718200D02*
X137412428Y-145575342D01*
X137412428Y-145575342D02*
X137317190Y-145527723D01*
X137317190Y-145527723D02*
X137221952Y-145527723D01*
X137269571Y-145765819D02*
X137174333Y-145718200D01*
X137174333Y-145718200D02*
X137079095Y-145622961D01*
X137079095Y-145622961D02*
X137031476Y-145432485D01*
X137031476Y-145432485D02*
X137031476Y-145099152D01*
X137031476Y-145099152D02*
X137079095Y-144908676D01*
X137079095Y-144908676D02*
X137174333Y-144813438D01*
X137174333Y-144813438D02*
X137269571Y-144765819D01*
X137269571Y-144765819D02*
X137460047Y-144765819D01*
X137460047Y-144765819D02*
X137555285Y-144813438D01*
X137555285Y-144813438D02*
X137650523Y-144908676D01*
X137650523Y-144908676D02*
X137698142Y-145099152D01*
X137698142Y-145099152D02*
X137698142Y-145432485D01*
X137698142Y-145432485D02*
X137650523Y-145622961D01*
X137650523Y-145622961D02*
X137555285Y-145718200D01*
X137555285Y-145718200D02*
X137460047Y-145765819D01*
X137460047Y-145765819D02*
X137269571Y-145765819D01*
X138650523Y-145765819D02*
X138079095Y-145765819D01*
X138364809Y-145765819D02*
X138364809Y-144765819D01*
X138364809Y-144765819D02*
X138269571Y-144908676D01*
X138269571Y-144908676D02*
X138174333Y-145003914D01*
X138174333Y-145003914D02*
X138079095Y-145051533D01*
X137674333Y-164395819D02*
X137341000Y-163919628D01*
X137102905Y-164395819D02*
X137102905Y-163395819D01*
X137102905Y-163395819D02*
X137483857Y-163395819D01*
X137483857Y-163395819D02*
X137579095Y-163443438D01*
X137579095Y-163443438D02*
X137626714Y-163491057D01*
X137626714Y-163491057D02*
X137674333Y-163586295D01*
X137674333Y-163586295D02*
X137674333Y-163729152D01*
X137674333Y-163729152D02*
X137626714Y-163824390D01*
X137626714Y-163824390D02*
X137579095Y-163872009D01*
X137579095Y-163872009D02*
X137483857Y-163919628D01*
X137483857Y-163919628D02*
X137102905Y-163919628D01*
X138055286Y-163491057D02*
X138102905Y-163443438D01*
X138102905Y-163443438D02*
X138198143Y-163395819D01*
X138198143Y-163395819D02*
X138436238Y-163395819D01*
X138436238Y-163395819D02*
X138531476Y-163443438D01*
X138531476Y-163443438D02*
X138579095Y-163491057D01*
X138579095Y-163491057D02*
X138626714Y-163586295D01*
X138626714Y-163586295D02*
X138626714Y-163681533D01*
X138626714Y-163681533D02*
X138579095Y-163824390D01*
X138579095Y-163824390D02*
X138007667Y-164395819D01*
X138007667Y-164395819D02*
X138626714Y-164395819D01*
X137674333Y-142165819D02*
X137341000Y-141689628D01*
X137102905Y-142165819D02*
X137102905Y-141165819D01*
X137102905Y-141165819D02*
X137483857Y-141165819D01*
X137483857Y-141165819D02*
X137579095Y-141213438D01*
X137579095Y-141213438D02*
X137626714Y-141261057D01*
X137626714Y-141261057D02*
X137674333Y-141356295D01*
X137674333Y-141356295D02*
X137674333Y-141499152D01*
X137674333Y-141499152D02*
X137626714Y-141594390D01*
X137626714Y-141594390D02*
X137579095Y-141642009D01*
X137579095Y-141642009D02*
X137483857Y-141689628D01*
X137483857Y-141689628D02*
X137102905Y-141689628D01*
X138531476Y-141499152D02*
X138531476Y-142165819D01*
X138293381Y-141118200D02*
X138055286Y-141832485D01*
X138055286Y-141832485D02*
X138674333Y-141832485D01*
X109256905Y-153335819D02*
X109256905Y-152335819D01*
X109256905Y-152335819D02*
X109495000Y-152335819D01*
X109495000Y-152335819D02*
X109637857Y-152383438D01*
X109637857Y-152383438D02*
X109733095Y-152478676D01*
X109733095Y-152478676D02*
X109780714Y-152573914D01*
X109780714Y-152573914D02*
X109828333Y-152764390D01*
X109828333Y-152764390D02*
X109828333Y-152907247D01*
X109828333Y-152907247D02*
X109780714Y-153097723D01*
X109780714Y-153097723D02*
X109733095Y-153192961D01*
X109733095Y-153192961D02*
X109637857Y-153288200D01*
X109637857Y-153288200D02*
X109495000Y-153335819D01*
X109495000Y-153335819D02*
X109256905Y-153335819D01*
X110780714Y-153335819D02*
X110209286Y-153335819D01*
X110495000Y-153335819D02*
X110495000Y-152335819D01*
X110495000Y-152335819D02*
X110399762Y-152478676D01*
X110399762Y-152478676D02*
X110304524Y-152573914D01*
X110304524Y-152573914D02*
X110209286Y-152621533D01*
X165491905Y-153335819D02*
X165491905Y-152335819D01*
X165491905Y-152335819D02*
X165730000Y-152335819D01*
X165730000Y-152335819D02*
X165872857Y-152383438D01*
X165872857Y-152383438D02*
X165968095Y-152478676D01*
X165968095Y-152478676D02*
X166015714Y-152573914D01*
X166015714Y-152573914D02*
X166063333Y-152764390D01*
X166063333Y-152764390D02*
X166063333Y-152907247D01*
X166063333Y-152907247D02*
X166015714Y-153097723D01*
X166015714Y-153097723D02*
X165968095Y-153192961D01*
X165968095Y-153192961D02*
X165872857Y-153288200D01*
X165872857Y-153288200D02*
X165730000Y-153335819D01*
X165730000Y-153335819D02*
X165491905Y-153335819D01*
X166444286Y-152431057D02*
X166491905Y-152383438D01*
X166491905Y-152383438D02*
X166587143Y-152335819D01*
X166587143Y-152335819D02*
X166825238Y-152335819D01*
X166825238Y-152335819D02*
X166920476Y-152383438D01*
X166920476Y-152383438D02*
X166968095Y-152431057D01*
X166968095Y-152431057D02*
X167015714Y-152526295D01*
X167015714Y-152526295D02*
X167015714Y-152621533D01*
X167015714Y-152621533D02*
X166968095Y-152764390D01*
X166968095Y-152764390D02*
X166396667Y-153335819D01*
X166396667Y-153335819D02*
X167015714Y-153335819D01*
D35*
%TO.C,R1*%
X121611000Y-164711000D02*
X121611000Y-164381000D01*
X121611000Y-161971000D02*
X121611000Y-162301000D01*
X115071000Y-164711000D02*
X121611000Y-164711000D01*
X115071000Y-164381000D02*
X115071000Y-164711000D01*
X115071000Y-162301000D02*
X115071000Y-161971000D01*
X115071000Y-161971000D02*
X121611000Y-161971000D01*
%TO.C,R3*%
X160611000Y-164711000D02*
X154071000Y-164711000D01*
X160611000Y-164381000D02*
X160611000Y-164711000D01*
X160611000Y-162301000D02*
X160611000Y-161971000D01*
X160611000Y-161971000D02*
X154071000Y-161971000D01*
X154071000Y-164711000D02*
X154071000Y-164381000D01*
X154071000Y-161971000D02*
X154071000Y-162301000D01*
%TO.C,Q1*%
X138621000Y-146661000D02*
G75*
G02*
X139649445Y-150938684I-780000J-2450000D01*
G01*
X136029547Y-150953156D02*
G75*
G02*
X137021000Y-146661000I1811453J1842156D01*
G01*
X136041000Y-150961000D02*
X139641000Y-150961000D01*
%TO.C,R2*%
X139341000Y-164691000D02*
G75*
G02*
X139385513Y-168959249I-1500000J-2150000D01*
G01*
X136291000Y-168991000D02*
G75*
G02*
X136312766Y-164675475I1550000J2150000D01*
G01*
X136291000Y-168991000D02*
X139341000Y-168991000D01*
X136291000Y-164691000D02*
X139341000Y-164691000D01*
%TO.C,R4*%
X141111000Y-140711000D02*
X134571000Y-140711000D01*
X141111000Y-140381000D02*
X141111000Y-140711000D01*
X141111000Y-138301000D02*
X141111000Y-137971000D01*
X141111000Y-137971000D02*
X134571000Y-137971000D01*
X134571000Y-140711000D02*
X134571000Y-140381000D01*
X134571000Y-137971000D02*
X134571000Y-138301000D01*
%TO.C,D1*%
X107435000Y-155296000D02*
X107435000Y-158386000D01*
X107435000Y-155296170D02*
G75*
G02*
X112985000Y-156841000I2560000J-1544830D01*
G01*
X112985000Y-156841000D02*
G75*
G02*
X107435000Y-158385830I-2990000J0D01*
G01*
X112495000Y-156841000D02*
G75*
G02*
X107495000Y-156841000I-2500000J0D01*
G01*
X107495000Y-156841000D02*
G75*
G02*
X112495000Y-156841000I2500000J0D01*
G01*
%TO.C,D2*%
X163670000Y-155296000D02*
X163670000Y-158386000D01*
X163670000Y-155296170D02*
G75*
G02*
X169220000Y-156841000I2560000J-1544830D01*
G01*
X169220000Y-156841000D02*
G75*
G02*
X163670000Y-158385830I-2990000J0D01*
G01*
X168730000Y-156841000D02*
G75*
G02*
X163730000Y-156841000I-2500000J0D01*
G01*
X163730000Y-156841000D02*
G75*
G02*
X168730000Y-156841000I2500000J0D01*
G01*
%TD*%
D34*
%TO.C,BT1*%
X148591000Y-123341000D02*
G75*
G02*
X128091000Y-123341000I-10250000J0D01*
G01*
X128091000Y-123341000D02*
G75*
G02*
X148591000Y-123341000I10250000J0D01*
G01*
%TD*%
D36*
X93345000Y-74930000D02*
X90805000Y-74930000D01*
X90805000Y-80010000D02*
X91440000Y-88265000D01*
X90805000Y-74930000D02*
X90805000Y-80010000D01*
X104775000Y-142240000D02*
X103505000Y-153035000D01*
X108585000Y-120015000D02*
X105410000Y-126365000D01*
X105410000Y-126365000D02*
X104775000Y-142240000D01*
X97155000Y-106680000D02*
X108585000Y-120015000D01*
X91440000Y-88265000D02*
X97155000Y-106680000D01*
X119179672Y-111952891D02*
G75*
G02*
X157027737Y-112238285I18615328J-41082109D01*
G01*
X168275000Y-120015000D02*
X176530000Y-111760000D01*
X182245000Y-76835000D02*
X165100000Y-97155000D01*
X165100000Y-97155000D02*
X157027737Y-112238286D01*
X186690000Y-74295000D02*
X182245000Y-76835000D01*
X184150000Y-94615000D02*
X186690000Y-74295000D01*
X176530000Y-111760000D02*
X184150000Y-94615000D01*
X172720000Y-144145000D02*
X171450000Y-126365000D01*
X171450000Y-126365000D02*
X168275000Y-120015000D01*
X172720000Y-144145000D02*
X172720000Y-162560000D01*
X161672843Y-171757840D02*
X172720000Y-162560000D01*
X161672843Y-171757840D02*
G75*
G02*
X114794818Y-171612124I-23242873J63172780D01*
G01*
X109220000Y-166370000D02*
X114794818Y-171612124D01*
X105410000Y-163195000D02*
X109220000Y-166370000D01*
X103505000Y-153035000D02*
X105410000Y-163195000D01*
X119179672Y-111952891D02*
X112395000Y-98425000D01*
X112395000Y-98425000D02*
X93345000Y-74930000D01*
M02*
