M48
; DRILL file {KiCad 9.0.2} date 2025-06-24T15:13:51+0300
; FORMAT={-:-/ absolute / metric / decimal}
; #@! TF.CreationDate,2025-06-24T15:13:51+03:00
; #@! TF.GenerationSoftware,Kicad,Pcbnew,9.0.2
; #@! TF.FileFunction,Plated,1,2,PTH
FMAT,2
METRIC
; #@! TA.AperFunction,Plated,PTH,ViaDrill
T1C0.300
; #@! TA.AperFunction,Plated,PTH,ComponentDrill
T2C0.750
; #@! TA.AperFunction,Plated,PTH,ComponentDrill
T3C0.800
; #@! TA.AperFunction,Plated,PTH,ComponentDrill
T4C0.900
; #@! TA.AperFunction,Plated,PTH,ViaDrill
T5C5.000
%
G90
G05
T1
X100.965Y-101.6
X105.41Y-105.41
X175.895Y-98.425
T2
X136.571Y-149.111
X137.841Y-147.841
X139.111Y-149.111
T3
X112.841Y-128.438
X112.841Y-133.438
X114.531Y-163.341
X122.151Y-163.341
X134.031Y-139.341
X136.141Y-166.841
X139.541Y-166.841
X141.651Y-139.341
X153.531Y-163.341
X161.151Y-163.341
X162.901Y-127.801
X162.901Y-132.881
X165.441Y-130.341
T4
X108.725Y-156.841
X111.265Y-156.841
X164.96Y-156.841
X167.5Y-156.841
T5
X100.965Y-93.345
M30
